<svg xmlns="http://www.w3.org/2000/svg" viewBox="0 0 64 64"><defs><style>.cls-1{fill:none;}</style></defs><title>TC</title><g id="ARTWORK"><path d="M60,20V44a8.00917,8.00917,0,0,1-8,8H48a2,2,0,0,1,0-4h4a4.004,4.004,0,0,0,4-4V20a4.004,4.004,0,0,0-4-4H12a4.004,4.004,0,0,0-4,4V44a4.004,4.004,0,0,0,4,4h4a2,2,0,0,1,0,4H12a8.00917,8.00917,0,0,1-8-8V20a8.00917,8.00917,0,0,1,8-8H52A8.00917,8.00917,0,0,1,60,20ZM41.78418,49.88086A4.0003,4.0003,0,0,1,38.3916,56H25.6084a4.0003,4.0003,0,0,1-3.39258-6.11914l6.3916-10.22656a4.00009,4.00009,0,0,1,6.78516,0ZM38.3916,52,32,41.77344,25.6084,52Z"/></g><g id="White_space" data-name="White space"><rect class="cls-1" width="64" height="64"/></g></svg>