<svg xmlns="http://www.w3.org/2000/svg" viewBox="0 0 64 64"><defs><style>.cls-1{fill:none;}</style></defs><title>TC</title><g id="ARTWORK"><path d="M58.2627,43.88379,38.85938,11.54688a7.99771,7.99771,0,0,0-13.71876-.001L5.7373,43.88379A8.00029,8.00029,0,0,0,12.59668,56H51.40332A8.00029,8.00029,0,0,0,58.2627,43.88379ZM54.88379,49.9707A3.95532,3.95532,0,0,1,51.40332,52H12.59668A3.9999,3.9999,0,0,1,9.167,45.94238L28.57031,13.60352a3.99859,3.99859,0,0,1,6.85938.001L54.833,45.94238A3.954,3.954,0,0,1,54.88379,49.9707ZM30,36.97723V25.15692a3.9992,3.9992,0,0,1,.31567-1.56378,3.231,3.231,0,0,1,.782-1.17224A1.38835,1.38835,0,0,1,32.01538,22q.75238,0,1.50366,1.1416A2.2019,2.2019,0,0,1,34,24.31506V36.13538q0,.66083-.91772,1.26281a3.52849,3.52849,0,0,1-1.96875.60077Q30.00134,37.999,30,36.97723Zm3.66992,5.59235a2.82536,2.82536,0,0,1,.57178,1.354q0,.75111-1.02356,1.41407A3.971,3.971,0,0,1,31.02173,46q-1.26344,0-1.26343-1.14349a4.44573,4.44573,0,0,1,.34644-1.72992,3.6321,3.6321,0,0,1,.87182-1.30872,1.58692,1.58692,0,0,1,1.06873-.48236Q32.82769,41.33551,33.66992,42.56958Z"/></g><g id="White_space" data-name="White space"><rect class="cls-1" width="64" height="64"/></g></svg>