<svg xmlns="http://www.w3.org/2000/svg" viewBox="0 0 64 64"><defs><style>.cls-1{fill:#fff;}.cls-2{fill:none;}</style></defs><title>TC</title><g id="ARTWORK"><path class="cls-1" d="M32,6A26,26,0,1,0,58,32,26.02885,26.02885,0,0,0,32,6Zm0,48A22,22,0,1,1,54,32,22.02489,22.02489,0,0,1,32,54ZM46,32a2.0001,2.0001,0,0,1-2,2H34V44a2,2,0,0,1-4,0V34H20a2,2,0,0,1,0-4H30V20a2,2,0,0,1,4,0V30H44A2.0001,2.0001,0,0,1,46,32Z"/></g><g id="White_space" data-name="White space"><rect class="cls-2" width="64" height="64"/></g></svg>