<svg xmlns="http://www.w3.org/2000/svg" viewBox="0 0 64 64"><defs><style>.cls-1{fill:none;}</style></defs><title>TC</title><g id="ARTWORK"><path d="M54,30V24a8.00917,8.00917,0,0,0-8-8H44V11.44519a4,4,0,1,0-4,0V16H24V11.44519a4,4,0,1,0-4,0V16H18a8.00917,8.00917,0,0,0-8,8v6a4,4,0,0,0,0,8V50a8.00917,8.00917,0,0,0,8,8H46a8.00917,8.00917,0,0,0,8-8V38a4,4,0,0,0,0-8ZM50,50a4.00427,4.00427,0,0,1-4,4H18a4.00427,4.00427,0,0,1-4-4V24a4.00427,4.00427,0,0,1,4-4H46a4.00427,4.00427,0,0,1,4,4ZM30,32a6,6,0,1,0-6,6A6.00657,6.00657,0,0,0,30,32Zm-8,0a2,2,0,1,1,2,2A2.00229,2.00229,0,0,1,22,32Zm18-6a6,6,0,1,0,6,6A6.00657,6.00657,0,0,0,40,26Zm0,8a2,2,0,1,1,2-2A2.00229,2.00229,0,0,1,40,34Zm3.65332,8.874a2.00107,2.00107,0,0,1-.52734,2.7793C40.90332,47.167,36.95215,48,32,48s-8.90332-.833-11.126-2.34668a2.00032,2.00032,0,1,1,2.252-3.30664C23.69531,42.73438,26.01807,44,32,44s8.30469-1.26562,8.874-1.65332A2.00247,2.00247,0,0,1,43.65332,42.874Z"/></g><g id="White_space" data-name="White space"><rect class="cls-1" width="64" height="64"/></g></svg>