<svg xmlns="http://www.w3.org/2000/svg" viewBox="0 0 64 64"><defs><style>.cls-1{fill:#fff;}.cls-2{fill:none;}</style></defs><title>TC</title><g id="ARTWORK"><path class="cls-1" d="M32,6A26,26,0,1,0,58,32,26.02885,26.02885,0,0,0,32,6Zm0,48A22,22,0,1,1,54,32,22.02489,22.02489,0,0,1,32,54ZM43.66406,25.10938l-12,18a1.99718,1.99718,0,0,1-1.46679.88085A1.91827,1.91827,0,0,1,30,44a2.0005,2.0005,0,0,1-1.41406-.58594l-8-8a1.99978,1.99978,0,0,1,2.82812-2.82812l6.27539,6.27441L40.33594,22.89062a2,2,0,1,1,3.32812,2.21876Z"/></g><g id="White_space" data-name="White space"><rect class="cls-2" width="64" height="64"/></g></svg>