<svg xmlns="http://www.w3.org/2000/svg" viewBox="0 0 64 64"><defs><style>.cls-1{fill:#fff;}.cls-2{fill:none;}</style></defs><title>TC</title><g id="ARTWORK"><path class="cls-1" d="M47,24H45.7984a9.93959,9.93959,0,0,0-1.46124-3.509l1.0769-1.07691a1.99978,1.99978,0,0,0-2.82812-2.82812L41.509,17.66284A9.93959,9.93959,0,0,0,38,16.2016V15a2,2,0,0,0-4,0v1.2016a9.93959,9.93959,0,0,0-3.509,1.46124l-1.07691-1.0769a1.99978,1.99978,0,0,0-2.82812,2.82812l1.0769,1.07691A9.93959,9.93959,0,0,0,26.2016,24H25a2,2,0,0,0,0,4h1.2016a9.93959,9.93959,0,0,0,1.46124,3.509l-1.0769,1.07691a1.99978,1.99978,0,1,0,2.82812,2.82812l1.07691-1.0769A9.93959,9.93959,0,0,0,34,35.7984V37a2,2,0,0,0,4,0V35.7984a9.93959,9.93959,0,0,0,3.509-1.46124l1.07691,1.0769a1.99978,1.99978,0,0,0,2.82812-2.82812L44.33716,31.509A9.93959,9.93959,0,0,0,45.7984,28H47a2,2,0,0,0,0-4ZM36,32a6,6,0,1,1,6-6A6.00657,6.00657,0,0,1,36,32ZM35,4A23.02823,23.02823,0,0,0,12.0127,26.22461L7.46387,31.34277A4,4,0,0,0,10.4541,38H12v8a4.004,4.004,0,0,0,4,4h6a4.004,4.004,0,0,1,4,4v2a4.004,4.004,0,0,0,4,4H46a4.004,4.004,0,0,0,4-4V46l.03613-1.09277A24.0424,24.0424,0,0,0,58,27,23.02556,23.02556,0,0,0,35,4ZM47.40137,41.89746A4.04844,4.04844,0,0,0,46,44.93457V56H30V54a8.00917,8.00917,0,0,0-8-8H16V34H10.4541L16,27.76074V27a19,19,0,0,1,38,0A20.2653,20.2653,0,0,1,47.40137,41.89746Z"/></g><g id="White_space" data-name="White space"><rect class="cls-2" width="64" height="64"/></g></svg>