<svg xmlns="http://www.w3.org/2000/svg" viewBox="0 0 64 64"><defs><style>.cls-1{fill:none;}</style></defs><title>TC</title><g id="ARTWORK"><path d="M46,41a3,3,0,1,1-3-3A3,3,0,0,1,46,41ZM21,38a3,3,0,1,0,3,3A3,3,0,0,0,21,38ZM60,22v6a4.00427,4.00427,0,0,1-4,4H54V46a4.00427,4.00427,0,0,1-4,4v4a4.00427,4.00427,0,0,1-4,4H42a4.00427,4.00427,0,0,1-4-4V50H26v4a4.00427,4.00427,0,0,1-4,4H18a4.00427,4.00427,0,0,1-4-4V50a4.00427,4.00427,0,0,1-4-4V32H8a4.00427,4.00427,0,0,1-4-4V22a4.00427,4.00427,0,0,1,4-4h2V14a8.00917,8.00917,0,0,1,8-8H46a8.00917,8.00917,0,0,1,8,8v4h2A4.00427,4.00427,0,0,1,60,22ZM30,32V18H14V32Zm4,0H50.0014l-.00018-1.98792L50,30l.00122-.01208-.00073-9.9834L50,20l.00043-.00452L50.00031,18H34ZM14,14H50a4.00427,4.00427,0,0,0-4-4H18A4.00427,4.00427,0,0,0,14,14ZM10,28V22H8v6ZM22,50H18v4h4Zm24,0H42v4h4Zm4.00244-4-.00073-10H14V46ZM56,22H54v6h2Z"/></g><g id="White_space" data-name="White space"><rect class="cls-1" width="64" height="64"/></g></svg>