<svg xmlns="http://www.w3.org/2000/svg" viewBox="0 0 64 64"><defs><style>.cls-1{fill:none;}</style></defs><title>TC</title><g id="ARTWORK"><path d="M50.48315,50.26428a25.98472,25.98472,0,0,0-36.74743-36.7475c-.03968.03388-.083.061-.12049.09845s-.06457.08088-.09838.12049a25.98472,25.98472,0,0,0,36.74743,36.7475c.03968-.03388.083-.061.12049-.09845S50.44934,50.30389,50.48315,50.26428ZM30.06458,53.90991a21.89844,21.89844,0,0,1-12.13416-5.01227L32,34.82812,36.22876,39.057A25.91733,25.91733,0,0,0,30.06458,53.90991Zm8.99255-12.02472,7.01245,7.01245a21.9007,21.9007,0,0,1-11.9873,5.0011A21.93249,21.93249,0,0,1,39.05713,41.88519Zm2.82812-2.82812a21.93309,21.93309,0,0,1,12.01343-4.97486,21.89982,21.89982,0,0,1-5.001,11.98731Zm12.02466-8.99249a25.917,25.917,0,0,0-14.853,6.16424L34.82812,32,48.89771,17.93048A21.89868,21.89868,0,0,1,53.90991,30.06458ZM15.10229,17.93048l6.9336,6.93347a21.93621,21.93621,0,0,1-11.928,4.967A21.90225,21.90225,0,0,1,15.10229,17.93048Zm2.82813-2.82812a21.90156,21.90156,0,0,1,11.90051-4.99445A21.9351,21.9351,0,0,1,24.864,22.03583ZM33.85,10.08356a21.898,21.898,0,0,1,12.2196,5.0188L32,29.17188,27.69214,24.864A25.91958,25.91958,0,0,0,33.85,10.08356ZM10.0835,33.85A25.9193,25.9193,0,0,0,24.864,27.69208L29.17188,32,15.10229,46.06952A21.89794,21.89794,0,0,1,10.0835,33.85Z"/></g><g id="White_space" data-name="White space"><rect class="cls-1" width="64" height="64"/></g></svg>