<svg xmlns="http://www.w3.org/2000/svg" viewBox="0 0 64 64"><defs><style>.cls-1{fill:none;}</style></defs><title>TC</title><g id="ARTWORK"><path d="M49.4375,42a5.99064,5.99064,0,0,0,5.8208-4.54492l4.62158-18.48535A4,4,0,0,0,55.999,14H17.2395l-.95679-4.78418A4.01069,4.01069,0,0,0,12.36035,6H6a2,2,0,0,0,0,4h6.36084l7.29529,36.47736A5.99852,5.99852,0,1,0,27.65,54H42.35a6,6,0,1,0,0-4H27.65a6.01873,6.01873,0,0,0-3.96136-3.754L22.83936,42ZM55.999,18,51.37744,36.48535A1.996,1.996,0,0,1,49.4375,38H22.03943L18.03949,18ZM22,54a1.99982,1.99982,0,0,1-.00348-3.99963l.00153.00012.00341-.00037A1.99994,1.99994,0,0,1,22,54Zm26-4a2,2,0,1,1-2,2A2.002,2.002,0,0,1,48,50Z"/></g><g id="White_space" data-name="White space"><rect class="cls-1" width="64" height="64"/></g></svg>