<svg xmlns="http://www.w3.org/2000/svg" viewBox="0 0 64 64"><defs><style>.cls-1{fill:none;}</style></defs><title>TC</title><g id="ARTWORK"><path d="M27.41406,24.58594A2.00025,2.00025,0,0,0,26,24H15.81836A3.67389,3.67389,0,0,0,12,27.5v9A3.67389,3.67389,0,0,0,15.81836,40H38a1.99993,1.99993,0,0,0,1.41406-3.41406ZM16,35.99365V28h9.17188l7.998,7.99854ZM56,22h-.25293A8.01476,8.01476,0,0,0,48,16H12a8.00917,8.00917,0,0,0-8,8V40a8.00917,8.00917,0,0,0,8,8H48a8.01476,8.01476,0,0,0,7.74707-6H56c2.24316,0,4-2.0498,4-4.6665V26.6665C60,24.0498,58.24316,22,56,22Zm0,15.3335A1.23159,1.23159,0,0,1,55.8291,38H52v2a4.00427,4.00427,0,0,1-4,4H12a4.00427,4.00427,0,0,1-4-4V24a4.00427,4.00427,0,0,1,4-4H48a4.00427,4.00427,0,0,1,4,4v2h3.8291A1.23159,1.23159,0,0,1,56,26.6665Z"/></g><g id="White_space" data-name="White space"><rect class="cls-1" width="64" height="64"/></g></svg>