<svg xmlns="http://www.w3.org/2000/svg" viewBox="0 0 64 64"><defs><style>.cls-1{fill:none;}</style></defs><title>TC</title><g id="ARTWORK"><path d="M53.83545,35.15918,34.918,54.77441A3.96656,3.96656,0,0,1,32.04834,56H32.041a3.967,3.967,0,0,1-2.86768-1.21582L9.99219,35.01562a13.8282,13.8282,0,0,1-1.64258-1.90429A1.99976,1.99976,0,0,1,10.01221,30h8.76416l3.44677-6.89453a2.00042,2.00042,0,0,1,3.57813,0l6.21094,12.42285,2.21093-4.42285A2.00025,2.00025,0,0,1,36.01221,30h6a2,2,0,1,1,0,4H37.24805l-3.44678,6.89453a2.00042,2.00042,0,0,1-3.57813,0L24.01221,28.47168l-2.21094,4.42285A2.00025,2.00025,0,0,1,20.01221,34H14.58154L32.04346,51.99805,50.95605,32.38184a11.07753,11.07753,0,0,0-.02343-15.2793A10.0873,10.0873,0,0,0,43.646,13.98242h-.01514A10.08867,10.08867,0,0,0,36.3374,17.125l-2.90722,3.01465a2.00157,2.00157,0,0,1-1.43653.61133h-.00293a1.99885,1.99885,0,0,1-1.43554-.60743l-2.916-3.00585a10.0873,10.0873,0,0,0-7.28662-3.12012H20.3374A10.08859,10.08859,0,0,0,13.044,17.16016a10.99076,10.99076,0,0,0-2.99366,8.6875,2.00011,2.00011,0,0,1-3.98242.37695A14.99046,14.99046,0,0,1,10.165,14.38281a14.05515,14.05515,0,0,1,10.166-4.36523h.02149a14.05569,14.05569,0,0,1,10.15771,4.335L31.98633,15.874l1.47217-1.52636a14.05516,14.05516,0,0,1,10.166-4.36524H43.646a14.05571,14.05571,0,0,1,10.15771,4.335A15.1107,15.1107,0,0,1,53.83545,35.15918Z"/></g><g id="White_space" data-name="White space"><rect class="cls-1" width="64" height="64"/></g></svg>