<svg xmlns="http://www.w3.org/2000/svg" viewBox="0 0 64 64"><defs><style>.cls-1{fill:#fff;}.cls-2{fill:none;}</style></defs><title>TC</title><g id="ARTWORK"><path class="cls-1" d="M34,34V56a2,2,0,0,1-4,0V34a2,2,0,0,1,4,0Zm7.07129-19.0708a1.99979,1.99979,0,1,0-2.82813,2.82812,6.00135,6.00135,0,0,1,0,8.48536,1.99979,1.99979,0,1,0,2.82813,2.82812,9.99989,9.99989,0,0,0,0-14.1416ZM46.72754,9.272a2.00013,2.00013,0,0,0-2.82813,2.8291,13.99843,13.99843,0,0,1,0,19.79786,2.00013,2.00013,0,0,0,2.82813,2.8291,17.99934,17.99934,0,0,0,0-25.45606ZM32,19a3,3,0,1,0,3,3A3,3,0,0,0,32,19Zm-6.24316-4.07129a2.00016,2.00016,0,0,0-2.82813.00049,9.99989,9.99989,0,0,0,0,14.1416,1.99979,1.99979,0,1,0,2.82813-2.82812,6.00135,6.00135,0,0,1,0-8.48536A1.99986,1.99986,0,0,0,25.75684,14.92871ZM16,22a13.90438,13.90438,0,0,1,4.10059-9.89893A2.00013,2.00013,0,0,0,17.27246,9.272a17.99934,17.99934,0,0,0,0,25.45606,2.00013,2.00013,0,0,0,2.82813-2.8291A13.90438,13.90438,0,0,1,16,22Z"/></g><g id="White_space" data-name="White space"><rect class="cls-2" width="64" height="64"/></g></svg>