<svg xmlns="http://www.w3.org/2000/svg" viewBox="0 0 64 64"><defs><style>.cls-1{fill:none;}</style></defs><title>TC</title><g id="ARTWORK"><path d="M50,18H45.44214L43.002,10.68018C42.04,7.79346,39.94336,6,37.53125,6H26.46875c-2.41211,0-4.50879,1.79346-5.4707,4.68018L18.55786,18H14a8.00917,8.00917,0,0,0-8,8V50a8.00917,8.00917,0,0,0,8,8H50a8.00917,8.00917,0,0,0,8-8V26A8.00917,8.00917,0,0,0,50,18ZM24.793,11.94482C25.21875,10.668,25.958,10,26.46875,10h11.0625c.51074,0,1.25.668,1.67578,1.94482L41.22565,18H22.77435ZM54,50a4.00427,4.00427,0,0,1-4,4H14a4.00427,4.00427,0,0,1-4-4V26a4.00427,4.00427,0,0,1,4-4H50a4.00427,4.00427,0,0,1,4,4ZM32,26A12,12,0,1,0,44,38,12.01343,12.01343,0,0,0,32,26Zm0,20a8,8,0,1,1,8-8A8.00917,8.00917,0,0,1,32,46Z"/></g><g id="White_space" data-name="White space"><rect class="cls-1" width="64" height="64"/></g></svg>