<svg xmlns="http://www.w3.org/2000/svg" viewBox="0 0 64 64"><defs><style>.cls-1{fill:none;}</style></defs><title>TC</title><g id="ARTWORK"><path d="M51.832,30.168A10.0171,10.0171,0,0,0,42,22a9.78361,9.78361,0,0,0-1.30371.08691A14.00491,14.00491,0,0,0,14.12207,26.147,12.00048,12.00048,0,0,0,16,50H50a10.0007,10.0007,0,0,0,1.832-19.832ZM50,46H16a8,8,0,0,1,0-16h2V28a10.00149,10.00149,0,0,1,19.54688-2.98438l.60839,1.95069,1.9375-.65039A5.98793,5.98793,0,0,1,48,32v2h2a6,6,0,0,1,0,12Z"/></g><g id="White_space" data-name="White space"><rect class="cls-1" width="64" height="64"/></g></svg>