<svg xmlns="http://www.w3.org/2000/svg" viewBox="0 0 64 64"><defs><style>.cls-1{fill:#fff;}.cls-2{fill:none;}</style></defs><title>TC</title><g id="ARTWORK"><path class="cls-1" d="M46.82812,26a4.00206,4.00206,0,0,0-5.65624,0L34,33.17188V16a4.004,4.004,0,0,0-4-4H10a4.004,4.004,0,0,0-4,4V54a4.004,4.004,0,0,0,4,4H54a4.004,4.004,0,0,0,4-4V38.82812A3.97268,3.97268,0,0,0,56.82812,36ZM22,54H18V50h4Zm8,0H26V48a2.0001,2.0001,0,0,0-2-2H16a2.0001,2.0001,0,0,0-2,2v6H10V16l20-.00293V54Zm24,0H34V38.82812l10-10,10,10ZM26,40a2.0001,2.0001,0,0,1-2,2H16a2,2,0,0,1,0-4h8A2.0001,2.0001,0,0,1,26,40Zm0-8a2.0001,2.0001,0,0,1-2,2H16a2,2,0,0,1,0-4h8A2.0001,2.0001,0,0,1,26,32Zm0-8a2.0001,2.0001,0,0,1-2,2H16a2,2,0,0,1,0-4h8A2.0001,2.0001,0,0,1,26,24ZM40,38h8a2,2,0,0,1,0,4H40a2,2,0,0,1,0-4ZM50,48a2.0001,2.0001,0,0,1-2,2H40a2,2,0,0,1,0-4h8A2.0001,2.0001,0,0,1,50,48Zm8.57031-28.083a1.99613,1.99613,0,0,1-2.4873-1.34668,12.016,12.016,0,0,0-14.93164-8.07324,2.00031,2.00031,0,0,1-1.14258-3.834A16.01841,16.01841,0,0,1,59.917,17.42969,2,2,0,0,1,58.57031,19.917ZM40.457,17.01074A2,2,0,0,1,41.67285,14.457a8.00561,8.00561,0,0,1,10.21289,4.877,1.9999,1.9999,0,1,1-3.77148,1.332,4.00619,4.00619,0,0,0-5.10352-2.43946A1.99967,1.99967,0,0,1,40.457,17.01074Z"/></g><g id="White_space" data-name="White space"><rect class="cls-2" width="64" height="64"/></g></svg>