<svg xmlns="http://www.w3.org/2000/svg" viewBox="0 0 64 64"><defs><style>.cls-1{fill:#fff;}.cls-2{fill:none;}</style></defs><title>TC</title><g id="ARTWORK"><path class="cls-1" d="M52,10H24a8.00917,8.00917,0,0,0-8,8v8H12a8.00917,8.00917,0,0,0-8,8V46a8.00917,8.00917,0,0,0,8,8h7.16992l5.709,5.70752A3,3,0,0,0,30,57.58594V54h9.999a8.00916,8.00916,0,0,0,8-8V38H52a8.00917,8.00917,0,0,0,8-8V18A8.00917,8.00917,0,0,0,52,10ZM43.999,46a4.00426,4.00426,0,0,1-4,4H26v5.17236L20.82617,50H12a4.00427,4.00427,0,0,1-4-4V34a4.00427,4.00427,0,0,1,4-4h4a8.00917,8.00917,0,0,0,8,8h6v3.58594a2.999,2.999,0,0,0,5.12109,2.12158L40.8291,38H43.999ZM56,30a4.00427,4.00427,0,0,1-4,4H39.17285L34,39.17188V34H24a4.00427,4.00427,0,0,1-4-4V18a4.00427,4.00427,0,0,1,4-4H52a4.00427,4.00427,0,0,1,4,4Z"/></g><g id="White_space" data-name="White space"><rect class="cls-2" width="64" height="64"/></g></svg>