<svg xmlns="http://www.w3.org/2000/svg" viewBox="0 0 64 64"><defs><style>.cls-1{fill:none;}</style></defs><title>TC</title><g id="ARTWORK"><path d="M57.62793,36.47949A8.161,8.161,0,0,0,55.08527,34.697,16.11669,16.11669,0,0,0,43.78009,24.46277a13.00009,13.00009,0,1,0-23.55713.00635A16.01512,16.01512,0,0,0,8,40v4a8.00917,8.00917,0,0,0,8,8H37.9588l5.8869,6.08594a2.99574,2.99574,0,0,0,4.30957-.001L57.62793,48.291A8.563,8.563,0,0,0,57.62793,36.47949ZM32,10a9,9,0,1,1-9,9A9.00984,9.00984,0,0,1,32,10ZM12,44V40A12.01457,12.01457,0,0,1,22.707,28.07245a12.9584,12.9584,0,0,0,18.58008.00653,12.10278,12.10278,0,0,1,9.1673,6.046,8.04214,8.04214,0,0,0-4.4358,2.35449L46,36.499l-.01855-.01953a8.03442,8.03442,0,0,0-11.61036.001A8.56073,8.56073,0,0,0,34.1167,48H16A4.004,4.004,0,0,1,12,44Zm42.75293,1.50977L46,54.55957l-8.75391-9.0498a4.53133,4.53133,0,0,1,0-6.249,4.0355,4.0355,0,0,1,5.86036,0l1.456,1.50488a2.06,2.06,0,0,0,2.875,0l1.45606-1.50488a4.03436,4.03436,0,0,1,5.85938,0A4.53036,4.53036,0,0,1,54.75293,45.50977Z"/></g><g id="White_space" data-name="White space"><rect class="cls-1" width="64" height="64"/></g></svg>