<svg xmlns="http://www.w3.org/2000/svg" viewBox="0 0 64 64"><defs><style>.cls-1{fill:none;}</style></defs><title>TC</title><g id="ARTWORK"><path d="M60,20V44a8.00917,8.00917,0,0,1-8,8H30a2,2,0,0,1,0-4H52a4.004,4.004,0,0,0,4-4V20a4.004,4.004,0,0,0-4-4H12a4.004,4.004,0,0,0-4,4v6a2,2,0,0,1-4,0V20a8.00917,8.00917,0,0,1,8-8H52A8.00917,8.00917,0,0,1,60,20ZM6,48a2,2,0,1,0,2,2A2,2,0,0,0,6,48Zm.88867-16H6a2,2,0,0,0,0,4h.88867A13.11446,13.11446,0,0,1,19.97754,48.335q.022.38526.02246.77637V50a2,2,0,0,0,4,0v-.88867c0-.33692-.00977-.66992-.02832-1.00488A17.11975,17.11975,0,0,0,6.88867,32ZM6.7998,40H6a2,2,0,0,0,0,4h.7998A5.20636,5.20636,0,0,1,12,49.2002V50a2,2,0,0,0,4,0v-.7998A9.21031,9.21031,0,0,0,6.7998,40Z"/></g><g id="White_space" data-name="White space"><rect class="cls-1" width="64" height="64"/></g></svg>