<svg xmlns="http://www.w3.org/2000/svg" viewBox="0 0 64 64"><defs><style>.cls-1{fill:none;}</style></defs><title>TC</title><g id="ARTWORK"><path d="M31.54858,38.94562a4.84414,4.84414,0,0,1,.89753,2.81018,5.49943,5.49943,0,0,1-1.08283,3.295A7.32126,7.32126,0,0,1,28.571,47.376a8.26915,8.26915,0,0,1-3.64727.82727,8.4292,8.4292,0,0,1-4.0174-.96887A6.251,6.251,0,0,1,18.228,44.6701,2.139,2.139,0,0,1,18,43.90082q0-.5984.82635-1.13977a3.16875,3.16875,0,0,1,1.76661-.54132.96924.96924,0,0,1,.8833.39886,5.18666,5.18666,0,0,0,1.63824,1.49585,4.09563,4.09563,0,0,0,1.98035.47015,3.65569,3.65569,0,0,0,3.0235-1.33374,1.96189,1.96189,0,0,0,.39618-.88964,2.48447,2.48447,0,0,0-.94086-2.62043A4.39361,4.39361,0,0,0,24.89532,39H23.61316q-.57037,0-1.16821-.85486a1.73155,1.73155,0,0,1-.37037-.91174q0-.51279.71222-.96881a2.71331,2.71331,0,0,1,1.48169-.45587,4.33218,4.33218,0,0,0,2.60718-.698,2.19784,2.19784,0,0,0,.95447-1.8664,1.94592,1.94592,0,0,0-.81189-1.58142,3.188,3.188,0,0,0-2.03729-.641,5.4554,5.4554,0,0,0-3.87506,1.99463,1.12969,1.12969,0,0,1-.76941.3988,1.71832,1.71832,0,0,1-1.3678-.96869,1.95568,1.95568,0,0,1-.3988-1.02575,1.05778,1.05778,0,0,1,.171-.54145A7.41824,7.41824,0,0,1,21.56165,28.372a7.97908,7.97908,0,0,1,3.78967-.96875,6.90725,6.90725,0,0,1,3.2055.73987,5.77435,5.77435,0,0,1,2.23658,1.94873,4.68575,4.68575,0,0,1,.79791,2.63159,4.57619,4.57619,0,0,1-.62683,2.33331,5.62722,5.62722,0,0,1-1.852,1.87744A5.91362,5.91362,0,0,1,31.54858,38.94562Zm11.329-11.19049a3.18142,3.18142,0,0,0-1.26617.259l-5.92822,2.67633q-1.35288.63327-1.35242,1.4389a2.29258,2.29258,0,0,0,.43158,1.06476q.66174,1.03593,1.38141,1.036a1.15389,1.15389,0,0,0,.46033-.11517L40,32.5611V45.94257a2.42137,2.42137,0,0,0,.48907,1.17993q.77711,1.12225,1.49646,1.12225a1.73673,1.73673,0,0,0,1.38141-.97839A3.89268,3.89268,0,0,0,44,45.108V28.79114Q44,27.75521,42.87762,27.75513ZM56,18V50a8.00917,8.00917,0,0,1-8,8H16a8.00917,8.00917,0,0,1-8-8V18a4.00458,4.00458,0,0,1,4-4h4V10a4.00458,4.00458,0,0,1,4-4h4a4.00458,4.00458,0,0,1,4,4v4h8V10a4.00458,4.00458,0,0,1,4-4h4a4.00458,4.00458,0,0,1,4,4v4h4A4.00458,4.00458,0,0,1,56,18ZM40,18h4V10H40ZM20,18h4V10H20Zm32,0H48a4.00458,4.00458,0,0,1-4,4H40a4.00458,4.00458,0,0,1-4-4H28a4.00458,4.00458,0,0,1-4,4H20a4.00458,4.00458,0,0,1-4-4H12V50a4.00458,4.00458,0,0,0,4,4H48a4.00458,4.00458,0,0,0,4-4Z"/></g><g id="White_space" data-name="White space"><rect class="cls-1" width="64" height="64"/></g></svg>