<svg xmlns="http://www.w3.org/2000/svg" viewBox="0 0 64 64"><defs><style>.cls-1{fill:#fff;}.cls-2{fill:none;}</style></defs><title>TC</title><g id="ARTWORK"><path class="cls-1" d="M52,16a2.0001,2.0001,0,0,1-2,2H36a2,2,0,0,1,0-4H50A2.0001,2.0001,0,0,1,52,16Zm-8,4H36a2,2,0,0,0,0,4h8a2,2,0,0,0,0-4Zm16-6V24a8.00917,8.00917,0,0,1-8,8H50.82812l-5.707,5.707A2.99973,2.99973,0,0,1,40,35.58594V32H36a11.92436,11.92436,0,0,1-1.9845,6.59363A14.01985,14.01985,0,0,1,44,52a6.00657,6.00657,0,0,1-6,6H10a6.00657,6.00657,0,0,1-6-6,14.01985,14.01985,0,0,1,9.9845-13.40637A11.956,11.956,0,0,1,26,20.1806V14a8.00917,8.00917,0,0,1,8-8H52A8.00917,8.00917,0,0,1,60,14ZM16,32a8,8,0,1,0,8-8A8.00917,8.00917,0,0,0,16,32ZM30.57147,42.029a11.94035,11.94035,0,0,1-13.14294,0A10.00444,10.00444,0,0,0,8,52a2.0026,2.0026,0,0,0,2,2H38a2.0026,2.0026,0,0,0,2-2A10.00444,10.00444,0,0,0,30.57147,42.029ZM56,14a4.004,4.004,0,0,0-4-4H34a4.004,4.004,0,0,0-4,4v7.62347A12.04612,12.04612,0,0,1,35.3,28H44v5.17188L49.17188,28H52a4.004,4.004,0,0,0,4-4Z"/></g><g id="White_space" data-name="White space"><rect class="cls-2" width="64" height="64"/></g></svg>