<svg xmlns="http://www.w3.org/2000/svg" viewBox="0 0 64 64"><defs><style>.cls-1{fill:#fff;}.cls-2{fill:none;}</style></defs><title>TC</title><g id="ARTWORK"><path class="cls-1" d="M51,40a7.00058,7.00058,0,0,0,1.39648-13.86035,10.4022,10.4022,0,0,0-1.29589-.13672L50,26.002V26a4.004,4.004,0,0,0-4-4H16a4.004,4.004,0,0,0-4,4v8a18.01147,18.01147,0,0,0,4.58472,12H13a3.00328,3.00328,0,0,0-3,3v1a8.00917,8.00917,0,0,0,8,8H44a8.00917,8.00917,0,0,0,8-8V49a3.00328,3.00328,0,0,0-3-3H45.41528a18.0447,18.0447,0,0,0,3.55121-6Zm-.044-10a5.75862,5.75862,0,0,1,.64551.05957A3.00075,3.00075,0,0,1,51,36H49.87921A17.95578,17.95578,0,0,0,50,34V30ZM44,54H18a4.004,4.004,0,0,1-4-4H48A4.004,4.004,0,0,1,44,54ZM22.80042,46A14.01308,14.01308,0,0,1,16,34V26H46v8a14.01308,14.01308,0,0,1-6.80042,12Zm.95739-34.58594a2.0028,2.0028,0,0,0,0-2.82812L22.58594,7.41406a1.99978,1.99978,0,0,1,2.82812-2.82812l1.17188,1.17187a6.00491,6.00491,0,0,1,0,8.48438l-.34375.34375a2,2,0,0,0-.31543,2.41894,2.00037,2.00037,0,0,1-3.457,2.01367,6.00431,6.00431,0,0,1,.94433-7.26074Zm10,0a2.00163,2.00163,0,0,0,0-2.82812L32.58594,7.41406a1.99978,1.99978,0,0,1,2.82812-2.82812l1.17188,1.17187a6.00491,6.00491,0,0,1,0,8.48438l-.34375.34375a2.00012,2.00012,0,0,0-.31641,2.418,1.99988,1.99988,0,1,1-3.457,2.01171,6.00282,6.00282,0,0,1,.94531-7.25781Z"/></g><g id="White_space" data-name="White space"><rect class="cls-2" width="64" height="64"/></g></svg>