<svg xmlns="http://www.w3.org/2000/svg" viewBox="0 0 64 64"><defs><style>.cls-1{fill:none;}</style></defs><title>TC</title><g id="ARTWORK"><path d="M50.82812,16,40,5.17188A3.97268,3.97268,0,0,0,37.17188,4H20a8.00917,8.00917,0,0,0-8,8V56a4.004,4.004,0,0,0,4,4H44a8.00917,8.00917,0,0,0,8-8V18.82812A3.97268,3.97268,0,0,0,50.82812,16Zm-5.65624,0H40V10.82812ZM44,56H16V12a4.004,4.004,0,0,1,4-4H36v8a4.004,4.004,0,0,0,4,4h8V52A4.004,4.004,0,0,1,44,56ZM42,36a2.0001,2.0001,0,0,1-2,2H24a2,2,0,0,1,0-4H40A2.0001,2.0001,0,0,1,42,36Zm0-10a2.0001,2.0001,0,0,1-2,2H24a2,2,0,0,1,0-4H40A2.0001,2.0001,0,0,1,42,26Zm0,20a2.0001,2.0001,0,0,1-2,2H24a2,2,0,0,1,0-4H40A2.0001,2.0001,0,0,1,42,46Z"/></g><g id="White_space" data-name="White space"><rect class="cls-1" width="64" height="64"/></g></svg>