<svg xmlns="http://www.w3.org/2000/svg" viewBox="0 0 64 64"><defs><style>.cls-1{fill:#fff;}.cls-2{fill:none;}</style></defs><title>TC</title><g id="ARTWORK"><path class="cls-1" d="M50,4H30a8.00917,8.00917,0,0,0-8,8v4H14a8.00917,8.00917,0,0,0-8,8V52a8.00917,8.00917,0,0,0,8,8H24a8.00691,8.00691,0,0,0,7.73669-6H50a8.00917,8.00917,0,0,0,8-8V12A8.00917,8.00917,0,0,0,50,4ZM30,8H50a4.004,4.004,0,0,1,4,4V38H32V24a8.00691,8.00691,0,0,0-6-7.73669V12A4.004,4.004,0,0,1,30,8ZM14,20H24a4.004,4.004,0,0,1,4,4V44H10V24A4.004,4.004,0,0,1,14,20ZM24,56H14a4.004,4.004,0,0,1-4-4V48H28v4A4.004,4.004,0,0,1,24,56ZM54,46a4.004,4.004,0,0,1-4,4H32V42H54ZM38,46a2,2,0,1,1,2,2A2,2,0,0,1,38,46ZM21,52a2,2,0,1,1-2-2A2.00006,2.00006,0,0,1,21,52Z"/></g><g id="White_space" data-name="White space"><rect class="cls-2" width="64" height="64"/></g></svg>