<svg xmlns="http://www.w3.org/2000/svg" viewBox="0 0 64 64"><defs><style>.cls-1{fill:#fff;}.cls-2{fill:none;}</style></defs><title>TC</title><g id="ARTWORK"><path class="cls-1" d="M20.58594,27.41406l-4-4A2.00025,2.00025,0,0,1,16,22V16a2,2,0,0,1,4,0v5l.11456.28644,3.2995,3.2995a1.99978,1.99978,0,1,1-2.82812,2.82812ZM60,37.81641V46a4.004,4.004,0,0,1-4,4H53.70514a6.99515,6.99515,0,0,1-13.41773-.029A1.98268,1.98268,0,0,1,40,50H27.70514a6.99515,6.99515,0,0,1-13.41773-.029A1.98268,1.98268,0,0,1,14,50H11.86621A3.939,3.939,0,0,1,8,46V31.7793A13.988,13.988,0,1,1,29.47272,14H40a4.004,4.004,0,0,1,4,4v4h4.92969a3.99115,3.99115,0,0,1,3.32812,1.78125l6.39844,9.59766A7.97175,7.97175,0,0,1,60,37.81641ZM18,32A10,10,0,1,0,8,22,10.01177,10.01177,0,0,0,18,32Zm6,16a3,3,0,1,0-3,3A3.00328,3.00328,0,0,0,24,48ZM40,18H31.4104A13.9705,13.9705,0,0,1,12,34.62994V46h2a1.98268,1.98268,0,0,1,.28741.029A6.99515,6.99515,0,0,1,27.70514,46H40ZM50,48a3,3,0,1,0-3,3A3.00328,3.00328,0,0,0,50,48Zm6-10.18359a3.98818,3.98818,0,0,0-.67188-2.21875L48.92969,26H44V41.68518A6.97582,6.97582,0,0,1,53.70514,46H56Z"/></g><g id="White_space" data-name="White space"><rect class="cls-2" width="64" height="64"/></g></svg>