<svg xmlns="http://www.w3.org/2000/svg" viewBox="0 0 64 64"><defs><style>.cls-1{fill:#fff;}.cls-2{fill:none;}</style></defs><title>TC</title><g id="ARTWORK"><path class="cls-1" d="M50,10H14a8.00917,8.00917,0,0,0-8,8V46a8.00917,8.00917,0,0,0,8,8H50a8.00917,8.00917,0,0,0,8-8V18A8.00917,8.00917,0,0,0,50,10Zm4,36a4.004,4.004,0,0,1-4,4H14a4.004,4.004,0,0,1-4-4V18a4.004,4.004,0,0,1,4-4H50a4.004,4.004,0,0,1,4,4ZM21,32a7,7,0,1,0-7-7A7.00848,7.00848,0,0,0,21,32Zm0-10a3,3,0,1,1-3,3A3.00328,3.00328,0,0,1,21,22ZM51.41406,34.58594a1.99978,1.99978,0,0,1-2.82812,2.82812L42,30.82812,29.41406,43.41406a1.99926,1.99926,0,0,1-2.82812,0L22,38.82812l-6.58594,6.58594a1.99978,1.99978,0,0,1-2.82812-2.82812L19.17188,36a4.00206,4.00206,0,0,1,5.65624,0L28,39.17188,39.17188,28a4.00206,4.00206,0,0,1,5.65624,0Z"/></g><g id="White_space" data-name="White space"><rect class="cls-2" width="64" height="64"/></g></svg>