<svg xmlns="http://www.w3.org/2000/svg" viewBox="0 0 64 64"><defs><style>.cls-1{fill:none;}</style></defs><title>TC</title><g id="ARTWORK"><path d="M48,8H16a8.00917,8.00917,0,0,0-8,8V48a8.00917,8.00917,0,0,0,8,8H48a8.00917,8.00917,0,0,0,8-8V16A8.00917,8.00917,0,0,0,48,8Zm4,40a4.00427,4.00427,0,0,1-4,4H16a4.00427,4.00427,0,0,1-4-4V16a4.00427,4.00427,0,0,1,4-4H48a4.00427,4.00427,0,0,1,4,4ZM44,16H20a4.00427,4.00427,0,0,0-4,4V36a4.00427,4.00427,0,0,0,4,4h2v4a4.00427,4.00427,0,0,0,4,4H38a4.00427,4.00427,0,0,0,4-4V40h2a4.00427,4.00427,0,0,0,4-4V20A4.00427,4.00427,0,0,0,44,16Zm0,20H42a4.00427,4.00427,0,0,0-4,4v4H26V40a4.00427,4.00427,0,0,0-4-4H20V20h6v4a2,2,0,0,0,4,0V20h4v4a2,2,0,0,0,4,0V20h6Z"/></g><g id="White_space" data-name="White space"><rect class="cls-1" width="64" height="64"/></g></svg>