<svg xmlns="http://www.w3.org/2000/svg" viewBox="0 0 64 64"><defs><style>.cls-1{fill:none;}</style></defs><title>TC</title><g id="ARTWORK"><path d="M58,32V50a8.00917,8.00917,0,0,1-8,8H14a8.00917,8.00917,0,0,1-8-8V32a2,2,0,0,1,4,0V50a4.00458,4.00458,0,0,0,4,4H50a4.00458,4.00458,0,0,0,4-4V32a2,2,0,0,1,4,0ZM29.87891,44.707a3.00244,3.00244,0,0,0,4.24218,0l11.293-11.293a1.99978,1.99978,0,0,0-2.82812-2.82812L34,39.17151V12a2,2,0,0,0-4,0V39.17151l-8.58594-8.58557a1.99978,1.99978,0,0,0-2.82812,2.82812Z"/></g><g id="White_space" data-name="White space"><rect class="cls-1" width="64" height="64"/></g></svg>