<svg xmlns="http://www.w3.org/2000/svg" viewBox="0 0 64 64"><defs><style>.cls-1{fill:none;}</style></defs><title>TC</title><g id="ARTWORK"><path d="M46,6H18a8.00917,8.00917,0,0,0-8,8V50a8.00917,8.00917,0,0,0,8,8H46a8.00917,8.00917,0,0,0,8-8V14A8.00917,8.00917,0,0,0,46,6Zm4,44a4.004,4.004,0,0,1-4,4H42V52a2,2,0,0,0-4,0v2H34V52a2,2,0,0,0-4,0v2H26V52a2,2,0,0,0-4,0v2H18a4.004,4.004,0,0,1-4-4V14a4.004,4.004,0,0,1,4-4h4v2a2,2,0,0,0,4,0V10h4v2a2,2,0,0,0,4,0V10h4v2a2,2,0,0,0,4,0V10h4a4.004,4.004,0,0,1,4,4ZM42,18H28.02832a3.97265,3.97265,0,0,0-2.82812,1.17188L19.17188,25.2002A3.97265,3.97265,0,0,0,18,28.02832V42a4.004,4.004,0,0,0,4,4H42a4.004,4.004,0,0,0,4-4V22A4.004,4.004,0,0,0,42,18Zm0,24H22V28.02832L28.02832,22H42Z"/></g><g id="White_space" data-name="White space"><rect class="cls-1" width="64" height="64"/></g></svg>