<svg xmlns="http://www.w3.org/2000/svg" viewBox="0 0 64 64"><defs><style>.cls-1{fill:none;}</style></defs><title>TC</title><g id="ARTWORK"><path d="M45.6131,30.36487a16.00006,16.00006,0,1,0-27.2262,0A18.03077,18.03077,0,0,0,4,48v2a8.00917,8.00917,0,0,0,8,8H52a8.00917,8.00917,0,0,0,8-8V48A18.03077,18.03077,0,0,0,45.6131,30.36487ZM32,10A12,12,0,1,1,20,22,12.01343,12.01343,0,0,1,32,10ZM56,50a4.00427,4.00427,0,0,1-4,4H12a4.00427,4.00427,0,0,1-4-4V48A14.00574,14.00574,0,0,1,21.48138,34.02625a15.90841,15.90841,0,0,0,21.03724,0A14.00574,14.00574,0,0,1,56,48Z"/></g><g id="White_space" data-name="White space"><rect class="cls-1" width="64" height="64"/></g></svg>