<svg xmlns="http://www.w3.org/2000/svg" viewBox="0 0 64 64"><defs><style>.cls-1{fill:#fff;}.cls-2{fill:none;}</style></defs><title>TC</title><g id="ARTWORK"><path class="cls-1" d="M54,28H26.61365L54.4248,21.9541a1.9994,1.9994,0,0,0,1.53614-2.34668l-2-10a1.9994,1.9994,0,0,0-2.4043-1.55762L19.0047,15.448l-.119-.04761-.03283.082L7.55664,18.0498A2,2,0,0,0,6,20V50a4.00427,4.00427,0,0,0,4,4H54a4.00427,4.00427,0,0,0,4-4V32A4.00427,4.00427,0,0,0,54,28ZM38.09894,21.4104l-6.691,1.45447,2.69885-6.74719,6.70111-1.52295-2.66485,6.66211C38.12286,21.30737,38.11481,21.35925,38.09894,21.4104ZM26.6897,23.8905l-7.54822,1.64087,2.64532-6.61365,7.58118-1.7229Zm24.96362-5.42663-8.85461,1.9248,2.74841-6.87109,4.89429-1.11231ZM10,21.59668l7.048-1.60181L14.42328,26.557,10,27.51855ZM10,50V32H54l.00244,18Z"/></g><g id="White_space" data-name="White space"><rect class="cls-2" width="64" height="64"/></g></svg>