<svg xmlns="http://www.w3.org/2000/svg" viewBox="0 0 64 64"><defs><style>.cls-1{fill:#fff;}.cls-2{fill:none;}</style></defs><title>TC</title><g id="ARTWORK"><path class="cls-1" d="M52,12H12a8.00917,8.00917,0,0,0-8,8V44a8.00917,8.00917,0,0,0,8,8H52a8.00917,8.00917,0,0,0,8-8V20A8.00917,8.00917,0,0,0,52,12Zm0,4a3.9496,3.9496,0,0,1,1.02277.14911L39.17188,30H24.82812L10.97723,16.14911A3.9496,3.9496,0,0,1,12,16Zm4,28a4.00427,4.00427,0,0,1-4,4H12a4.00427,4.00427,0,0,1-4-4V20a3.95,3.95,0,0,1,.14911-1.02277L22,32.82812A3.97268,3.97268,0,0,0,24.82812,34H39.17188A3.97268,3.97268,0,0,0,42,32.82812L55.85089,18.97723A3.95,3.95,0,0,1,56,20Z"/></g><g id="White_space" data-name="White space"><rect class="cls-2" width="64" height="64"/></g></svg>