<svg xmlns="http://www.w3.org/2000/svg" viewBox="0 0 64 64"><defs><style>.cls-1{fill:#fff;}.cls-2{fill:none;}</style></defs><title>TC</title><g id="ARTWORK"><path class="cls-1" d="M52,8H32a24.093,24.093,0,0,0-17.49121,7.56641,23.982,23.982,0,0,0-.70252,32.0744A17.256,17.256,0,0,0,10,58a2,2,0,0,0,4,0,13.06072,13.06072,0,0,1,2.66992-7.53326,23.86456,23.86456,0,0,0,13.80274,5.48541q.77782.04834,1.54785.04785a23.77114,23.77114,0,0,0,16.41308-6.50879A24.093,24.093,0,0,0,56,32V12A4.004,4.004,0,0,0,52,8Zm0,24A19.99656,19.99656,0,0,1,19.34424,47.48383L22.82812,44H36a2,2,0,0,0,0-4H26.82812l6-6H42a2,2,0,0,0,0-4H36.82812l6.58594-6.58594a1.99978,1.99978,0,0,0-2.82812-2.82812L34,27.17188V22a2,2,0,0,0-4,0v9.17188l-6,6V28a2,2,0,0,0-4,0V41.17188L16.51611,44.6557A19.99783,19.99783,0,0,1,32,12H52Z"/></g><g id="White_space" data-name="White space"><rect class="cls-2" width="64" height="64"/></g></svg>