<svg xmlns="http://www.w3.org/2000/svg" viewBox="0 0 64 64"><defs><style>.cls-1{fill:none;}</style></defs><title>TC</title><g id="ARTWORK"><path d="M45.13281,32.58887l-14,3.11133A3.97479,3.97479,0,0,0,28,39.60449v7.34278A8.82262,8.82262,0,0,0,24,46c-4.41113,0-8,3.14062-8,7s3.58887,7,8,7,8-3.14062,8-7a6.16594,6.16594,0,0,0-.0368-.63525A2.00083,2.00083,0,0,0,32,52V39.60449l14-3.11133v8.45411A8.82262,8.82262,0,0,0,42,44c-4.41113,0-8,3.14062-8,7s3.58887,7,8,7,8-3.14062,8-7a6.16594,6.16594,0,0,0-.0368-.63525A2.00083,2.00083,0,0,0,50,50V36.49316a3.9993,3.9993,0,0,0-4.86719-3.90429ZM24,56c-2.168,0-4-1.374-4-3s1.832-3,4-3,4,1.374,4,3S26.168,56,24,56Zm18-2c-2.168,0-4-1.374-4-3s1.832-3,4-3,4,1.374,4,3S44.168,54,42,54ZM56,24H26.19806l28.23358-5.64648a4.00051,4.00051,0,0,0,3.13672-4.707l-1.1377-5.6914a3.99984,3.99984,0,0,0-4.707-3.13867L7.21582,13.71777A4.009,4.009,0,0,0,4,17.63965V50a4.004,4.004,0,0,0,4,4h4a2,2,0,0,0,0-4H8V28H56V50H54a2,2,0,0,0,0,4h2a4.004,4.004,0,0,0,4-4V28A4.004,4.004,0,0,0,56,24ZM45.94043,10.48535a1.99744,1.99744,0,0,0,.05579-.44476l6.51159-1.30231,1.13867,5.69336-9.15008,1.83Zm-12,2c.00287-.0116.00232-.02307.005-.03467L41.714,10.897l-1.55817,6.23267-7.76471,1.55292Zm-17.88086,9.0293a1.99353,1.99353,0,0,0-.05572.44519L8,23.56055v-5.9209L17.50348,15.739Zm5.78449-6.64374L29.6087,13.318l-1.54913,6.19666c-.00293.01178-.00244.02337-.00513.03515l-7.76855,1.55365Z"/></g><g id="White_space" data-name="White space"><rect class="cls-1" width="64" height="64"/></g></svg>