<svg xmlns="http://www.w3.org/2000/svg" viewBox="0 0 64 64"><defs><style>.cls-1{fill:#fff;}.cls-2{fill:none;}</style></defs><title>TC</title><g id="ARTWORK"><path class="cls-1" d="M52,16H35.65723A6.01019,6.01019,0,0,0,30,12H10a6.00657,6.00657,0,0,0-6,6V46a8.00917,8.00917,0,0,0,8,8H52a8.00917,8.00917,0,0,0,8-8V24A8.00917,8.00917,0,0,0,52,16Zm4,30a4.00427,4.00427,0,0,1-4,4H12a4.00427,4.00427,0,0,1-4-4V18a2.00229,2.00229,0,0,1,2-2H30a2.00229,2.00229,0,0,1,2,2v2H52a4.00427,4.00427,0,0,1,4,4ZM50,28a2.0001,2.0001,0,0,1-2,2H16a2,2,0,0,1,0-4H48A2.0001,2.0001,0,0,1,50,28Z"/></g><g id="White_space" data-name="White space"><rect class="cls-2" width="64" height="64"/></g></svg>