<svg xmlns="http://www.w3.org/2000/svg" viewBox="0 0 64 64"><defs><style>.cls-1{fill:none;}</style></defs><title>TC</title><g id="ARTWORK"><path d="M57.88086,24.7168A3.94773,3.94773,0,0,0,54.0918,22H40.419L35.77539,8.7334a3.99964,3.99964,0,0,0-7.55078-.001L23.58105,22H9.9082a3.99991,3.99991,0,0,0-2.42968,7.17773l11.17285,8.54395L14.06445,51.48145a3.99994,3.99994,0,0,0,6.13672,4.50683L32,47.4668l11.79883,8.52148a3.94066,3.94066,0,0,0,4.709-.01855,3.93971,3.93971,0,0,0,1.42774-4.48926L45.34863,37.72168l11.17285-8.54395A3.94894,3.94894,0,0,0,57.88086,24.7168ZM42.91992,34.544a4.0027,4.0027,0,0,0-1.36621,4.44335l4.58691,13.75879L34.3418,44.22461a3.99306,3.99306,0,0,0-4.6836,0L17.85938,52.74609l4.58691-13.76074a4.00181,4.00181,0,0,0-1.36524-4.4414L9.9082,26H23.58105a4.00253,4.00253,0,0,0,3.7754-2.67773L32,10.05469l4.64355,13.2666A4.00209,4.00209,0,0,0,40.419,26H54.0918Z"/></g><g id="White_space" data-name="White space"><rect class="cls-1" width="64" height="64"/></g></svg>