<svg xmlns="http://www.w3.org/2000/svg" viewBox="0 0 64 64"><defs><style>.cls-1{fill:#fff;}.cls-2{fill:none;}</style></defs><title>TC</title><g id="ARTWORK"><path class="cls-1" d="M56,40H45.73669a7.988,7.988,0,0,0-15.47338,0H8a2,2,0,0,0,0,4H30.26331a7.988,7.988,0,0,0,15.47338,0H56a2,2,0,0,0,0-4ZM38,46a4,4,0,1,1,4-4A4.00427,4.00427,0,0,1,38,46ZM8,24H18.26331a7.988,7.988,0,0,0,15.47338,0H56a2,2,0,0,0,0-4H33.73669a7.988,7.988,0,0,0-15.47338,0H8a2,2,0,0,0,0,4Zm18-6a4,4,0,1,1-4,4A4.00427,4.00427,0,0,1,26,18Z"/></g><g id="White_space" data-name="White space"><rect class="cls-2" width="64" height="64"/></g></svg>