<svg xmlns="http://www.w3.org/2000/svg" viewBox="0 0 64 64"><defs><style>.cls-1{fill:none;}</style></defs><title>TC</title><g id="ARTWORK"><path d="M56,16H47.9386A8.99029,8.99029,0,0,0,32,9.35535,8.99334,8.99334,0,0,0,16,15a9.15939,9.15939,0,0,0,.05627,1H8a3.84814,3.84814,0,0,0-4,3.667v6.666A3.84814,3.84814,0,0,0,8,30V48a8.00917,8.00917,0,0,0,8,8H48a8.00917,8.00917,0,0,0,8-8V30a3.84814,3.84814,0,0,0,4-3.667V19.667A3.84814,3.84814,0,0,0,56,16ZM39,10a4.97179,4.97179,0,0,1,4.89258,6h-9.781A4.95351,4.95351,0,0,1,39,10ZM20,15a5.00026,5.00026,0,1,1,9.88849,1H20.10516A5.0299,5.0299,0,0,1,20,15Zm10,5v6H8V20ZM12,48V30H30V52H16A4.004,4.004,0,0,1,12,48Zm40,0a4.004,4.004,0,0,1-4,4H34V30H52Zm0-22H34V20H56v6Z"/></g><g id="White_space" data-name="White space"><rect class="cls-1" width="64" height="64"/></g></svg>