<svg xmlns="http://www.w3.org/2000/svg" viewBox="0 0 64 64"><defs><style>.cls-1{fill:#fff;}.cls-2{fill:none;}</style></defs><title>TC</title><g id="ARTWORK"><path class="cls-1" d="M56,54a2.0001,2.0001,0,0,1-2,2H16a8.00917,8.00917,0,0,1-8-8V10a2,2,0,0,1,4,0V48a4.004,4.004,0,0,0,4,4H54A2.0001,2.0001,0,0,1,56,54ZM18,40a1.99348,1.99348,0,0,0,1.41406-.58594L27,31.82812,32.17188,37a4.00206,4.00206,0,0,0,5.65624,0L50,24.82812V30a2,2,0,0,0,4,0V22a4.004,4.004,0,0,0-4-4H42a2,2,0,0,0,0,4h5.17188L35,34.17188,29.82812,29a4.09412,4.09412,0,0,0-5.65624,0l-7.58594,7.58594A2,2,0,0,0,18,40Z"/></g><g id="White_space" data-name="White space"><rect class="cls-2" width="64" height="64"/></g></svg>