<svg xmlns="http://www.w3.org/2000/svg" viewBox="0 0 64 64"><defs><style>.cls-1{fill:none;}</style></defs><title>TC</title><g id="ARTWORK"><path d="M32,18a6,6,0,1,0,6,6A6.00657,6.00657,0,0,0,32,18Zm0,8a2,2,0,1,1,2-2A2.0026,2.0026,0,0,1,32,26Zm2,24v8a2,2,0,0,1-4,0V50a2,2,0,0,1,4,0Zm6,0v4a2,2,0,0,1-4,0V50a2,2,0,0,1,4,0ZM28,50v4a2,2,0,0,1-4,0V50a2,2,0,0,1,4,0ZM53.59668,38.544A17.55413,17.55413,0,0,0,46.37793,28.4035c.03412-12.60144-8.55164-20.48944-11.95215-23.10662a3.97993,3.97993,0,0,0-4.85156,0C26.17371,7.91406,17.588,15.802,17.62207,28.40344a17.55319,17.55319,0,0,0-7.21875,10.14148,4.02345,4.02345,0,0,0,1.02246,3.74024,3.96708,3.96708,0,0,0,2.86133,1.21777,4.03935,4.03935,0,0,0,.791-.0791l5.83033-1.1659c.23687.51722.47577,1.03522.74194,1.56238A3.96682,3.96682,0,0,0,25.21582,46H38.78418a3.96682,3.96682,0,0,0,3.56543-2.17969c.26617-.52716.50507-1.04516.74194-1.56238l5.83033,1.1659a4.032,4.032,0,0,0,.791.0791,3.96708,3.96708,0,0,0,2.86133-1.21777A4.02459,4.02459,0,0,0,53.59668,38.544Zm-39.30078.92187a12.81147,12.81147,0,0,1,3.74866-6.25421,33.89355,33.89355,0,0,0,1.34961,5.25915ZM38.78418,42l-13.56348.01758C15.665,23.09277,28.00488,11.55273,31.98633,8.4668c4.00781,3.085,16.33984,14.62011,6.80078,33.53515Zm5.818-3.51886a33.89263,33.89263,0,0,0,1.35315-5.26868A12.82764,12.82764,0,0,1,49.707,39.502Z"/></g><g id="White_space" data-name="White space"><rect class="cls-1" width="64" height="64"/></g></svg>