<svg xmlns="http://www.w3.org/2000/svg" viewBox="0 0 64 64"><defs><style>.cls-1{fill:#fff;}.cls-2{fill:none;}</style></defs><title>TC</title><g id="ARTWORK"><path class="cls-1" d="M26,40a2.0001,2.0001,0,0,1-2,2H22v2a2,2,0,0,1-4,0V42H16a2,2,0,0,1,0-4h2V36a2,2,0,0,1,4,0v2h2A2.0001,2.0001,0,0,1,26,40Zm22-4a2,2,0,1,0,2,2A2,2,0,0,0,48,36Zm-6,4a2,2,0,1,0,2,2A2,2,0,0,0,42,40Zm17.98242-.771A15.99491,15.99491,0,0,1,34.33789,52.74707,3.97893,3.97893,0,0,0,31.93359,52H31.71a3.43978,3.43978,0,0,0-2.04785.74707A15.99761,15.99761,0,0,1,4.01758,39.22949,16.18177,16.18177,0,0,1,20.39551,24H32V22a8.00917,8.00917,0,0,1,8-8,4.00427,4.00427,0,0,0,4-4V6a2,2,0,0,1,4,0v4a8.00917,8.00917,0,0,1-8,8,4.00427,4.00427,0,0,0-4,4v2h7.60449A16.1817,16.1817,0,0,1,59.98242,39.229Zm-3.99609.188A12.1871,12.1871,0,0,0,43.60449,28h-23.209A12.18716,12.18716,0,0,0,8.01367,39.41748a11.994,11.994,0,0,0,19.22852,10.144A7.36544,7.36544,0,0,1,31.71,48h.22363a7.99526,7.99526,0,0,1,4.82422,1.562A11.99675,11.99675,0,0,0,55.98633,39.417Z"/></g><g id="White_space" data-name="White space"><rect class="cls-2" width="64" height="64"/></g></svg>