<svg xmlns="http://www.w3.org/2000/svg" viewBox="0 0 64 64"><defs><style>.cls-1{fill:none;}</style></defs><title>TC</title><g id="ARTWORK"><path d="M60,32a2.0001,2.0001,0,0,1-2,2H54a2,2,0,0,1,0-4h4A2.0001,2.0001,0,0,1,60,32ZM51.79883,12.20117a1.99928,1.99928,0,0,0-2.82813,0L46.14258,15.0293a1.99978,1.99978,0,1,0,2.82812,2.82812l2.82813-2.82812A1.99928,1.99928,0,0,0,51.79883,12.20117ZM32,12a2.0001,2.0001,0,0,0,2-2V6a2,2,0,0,0-4,0v4A2.0001,2.0001,0,0,0,32,12ZM17.85742,17.85742a1.99926,1.99926,0,0,0,0-2.82812L15.0293,12.20117a1.99979,1.99979,0,1,0-2.82813,2.82813l2.82813,2.82812a1.99926,1.99926,0,0,0,2.82812,0ZM10,30H6a2,2,0,0,0,0,4h4a2,2,0,0,0,0-4Zm38,2a15.96833,15.96833,0,0,1-5.5293,12.0752,3.57428,3.57428,0,0,0-.832,1.11914L40,48.47253v3.29993a8.12274,8.12274,0,0,1-7.00879,8.167A8.00138,8.00138,0,0,1,24,52V48.47253l-1.6416-3.28405a3.58438,3.58438,0,0,0-.83008-1.11817A15.9898,15.9898,0,1,1,48,32ZM36,50H28v2a4.00172,4.00172,0,0,0,4.50977,3.96875A4.175,4.175,0,0,0,36,51.77246Zm8-18a12.00043,12.00043,0,1,0-19.85352,9.04688,7.54487,7.54487,0,0,1,1.78907,2.35156L27.23633,46h9.52722l1.297-2.59473a7.53949,7.53949,0,0,1,1.792-2.35351A11.973,11.973,0,0,0,44,32Z"/></g><g id="White_space" data-name="White space"><rect class="cls-1" width="64" height="64"/></g></svg>