<svg xmlns="http://www.w3.org/2000/svg" viewBox="0 0 64 64"><defs><style>.cls-1{fill:none;}</style></defs><title>TC</title><g id="ARTWORK"><path d="M46,46a2.0001,2.0001,0,0,1-2,2v2a8,8,0,0,1-16,0V44c-4.41113,0-8-3.25244-8-7.25V26a2.0001,2.0001,0,0,1,2-2h4a2,2,0,0,1,0,4H24v8.75C24,38.542,25.794,40,28,40h4c2.206,0,4-1.458,4-3.25V28H34a2,2,0,0,1,0-4h4a2.0001,2.0001,0,0,1,2,2V36.75C40,40.74756,36.41113,44,32,44v6a4,4,0,0,0,8,0V48a2,2,0,0,1,0-4h4A2.0001,2.0001,0,0,1,46,46ZM58.06543,29.17188,36.24219,7.34863a5.999,5.999,0,0,0-8.48438,0L5.93457,29.17188A3.99976,3.99976,0,0,0,8.7627,36H10V54a4.00427,4.00427,0,0,0,4,4H24a2,2,0,0,0,0-4H14V32H8.7627L30.58594,10.17676a2.049,2.049,0,0,1,2.82812,0L55.2373,32H50V54H48a2,2,0,0,0,0,4h2a4.00427,4.00427,0,0,0,4-4V36h1.2373a3.99976,3.99976,0,0,0,2.82813-6.82812Z"/></g><g id="White_space" data-name="White space"><rect class="cls-1" width="64" height="64"/></g></svg>