<svg xmlns="http://www.w3.org/2000/svg" viewBox="0 0 64 64"><defs><style>.cls-1{fill:none;}</style></defs><title>TC</title><g id="ARTWORK"><path d="M58.06543,29.17188,36.24219,7.34863a5.999,5.999,0,0,0-8.48438,0L5.93457,29.17188A3.99964,3.99964,0,0,0,8.7627,36H12V54a4.004,4.004,0,0,0,4,4H48a4.004,4.004,0,0,0,4-4V36h3.2373a3.99964,3.99964,0,0,0,2.82813-6.82812ZM48,32V54H16V32H8.7627L30.58594,10.17676a2.04706,2.04706,0,0,1,2.82812,0L55.2373,32ZM30,40v6a4.004,4.004,0,0,0,4,4h6a4.004,4.004,0,0,0,4-4V40a4.004,4.004,0,0,0-4-4H34A4.004,4.004,0,0,0,30,40Zm4,0h6l.00293,6H34Z"/></g><g id="White_space" data-name="White space"><rect class="cls-1" width="64" height="64"/></g></svg>