<svg xmlns="http://www.w3.org/2000/svg" viewBox="0 0 64 64"><defs><style>.cls-1{fill:#fff;}.cls-2{fill:none;}</style></defs><title>TC</title><g id="ARTWORK"><path class="cls-1" d="M32,6A26,26,0,1,0,58,32,26.02916,26.02916,0,0,0,32,6Zm0,48A22,22,0,1,1,54,32,22.02489,22.02489,0,0,1,32,54Zm2-26.97729V42.84027a3.999,3.999,0,0,1-.31567,1.56378,3.23152,3.23152,0,0,1-.78193,1.17224,1.38838,1.38838,0,0,1-.91772.421q-.75248,0-1.50378-1.14166A2.202,2.202,0,0,1,30,43.68213V27.86456q0-.66073.91772-1.26275a3.52828,3.52828,0,0,1,1.96882-.60083Q33.99871,26.001,34,27.02271Zm.24164-7.87928a4.44443,4.44443,0,0,1-.34644,1.72992,3.63166,3.63166,0,0,1-.8717,1.30878,1.58755,1.58755,0,0,1-1.06879.48236q-.78231,0-1.62463-1.23407a2.82551,2.82551,0,0,1-.57172-1.35407q0-.7511,1.0235-1.41406A3.97106,3.97106,0,0,1,32.97821,18Q34.24165,18,34.24164,19.14343Z"/></g><g id="White_space" data-name="White space"><rect class="cls-2" width="64" height="64"/></g></svg>