<svg xmlns="http://www.w3.org/2000/svg" viewBox="0 0 64 64"><defs><style>.cls-1{fill:none;}</style></defs><title>TC</title><g id="ARTWORK"><path d="M58,32A26.02746,26.02746,0,0,0,32.10333,6.00262l-.02258-.00054C32.05371,6.002,32.0271,6,32,6c-.02588,0-.05133.00189-.07721.00195l-.02759.00074a25.99873,25.99873,0,0,0,.10352,51.99725L31.999,58h.002l.0003-.00006A26.02879,26.02879,0,0,0,58,32Zm-6.35559,9.886a45.91167,45.91167,0,0,0-8.19891-2.63965A47.46785,47.46785,0,0,0,44,32a47.47482,47.47482,0,0,0-.55414-7.24438,45.93218,45.93218,0,0,0,8.20044-2.63794A21.92281,21.92281,0,0,1,51.64441,41.886ZM32,53.7027c-2.91138-1.88831-5.288-6.02686-6.67413-11.24372a48.75449,48.75449,0,0,1,13.34826,0C37.288,47.67584,34.91138,51.81439,32,53.7027ZM32,38a53.7522,53.7522,0,0,0-7.49121.53369,42.20514,42.20514,0,0,1,.00006-13.06763A53.8213,53.8213,0,0,0,32,26h.00684a53.77652,53.77652,0,0,0,7.48455-.53265A42.60136,42.60136,0,0,1,40,32a42.59906,42.59906,0,0,1-.50879,6.53369A53.7522,53.7522,0,0,0,32,38Zm0-27.7027c2.91156,1.88843,5.28821,6.02741,6.67438,11.24469A49.8565,49.8565,0,0,1,32.00684,22H32a49.9146,49.9146,0,0,1-6.67407-.45923C26.7121,16.324,29.08868,12.18561,32,10.2973Zm17.50006,8.39087a42.17585,42.17585,0,0,1-6.84875,2.14624,29.12348,29.12348,0,0,0-4.42517-9.93152A22.06843,22.06843,0,0,1,49.50006,18.68817Zm-23.7262-7.78528a29.12184,29.12184,0,0,0-4.42474,9.93,42.13384,42.13384,0,0,1-6.84753-2.14679A22.06828,22.06828,0,0,1,25.77386,10.90289ZM12.35535,22.11444a45.8763,45.8763,0,0,0,8.19909,2.63947,47.62662,47.62662,0,0,0,.00006,14.49243A45.91167,45.91167,0,0,0,12.35559,41.886a21.92276,21.92276,0,0,1-.00024-19.77155ZM14.50159,45.3139a42.1876,42.1876,0,0,1,6.84753-2.14666,29.12494,29.12494,0,0,0,4.42456,9.92987A22.06816,22.06816,0,0,1,14.50159,45.3139Zm23.72473,7.78321a29.12494,29.12494,0,0,0,4.42456-9.92987,42.1876,42.1876,0,0,1,6.84753,2.14666A22.06816,22.06816,0,0,1,38.22632,53.09711Z"/></g><g id="White_space" data-name="White space"><rect class="cls-1" width="64" height="64"/></g></svg>