<svg xmlns="http://www.w3.org/2000/svg" viewBox="0 0 64 64"><defs><style>.cls-1{fill:none;}</style></defs><title>TC</title><g id="ARTWORK"><path d="M48,4H20a8.00917,8.00917,0,0,0-8,8V56a4.00427,4.00427,0,0,0,4,4H44a8.00917,8.00917,0,0,0,8-8V8A4.00427,4.00427,0,0,0,48,4Zm0,48a4.00427,4.00427,0,0,1-4,4l-28,.00244V12a4.00427,4.00427,0,0,1,4-4H48ZM22,40a2.0001,2.0001,0,0,1,2-2H40a2,2,0,0,1,0,4H24A2.0001,2.0001,0,0,1,22,40Zm0-8a2.0001,2.0001,0,0,1,2-2h8a2,2,0,0,1,0,4H24A2.0001,2.0001,0,0,1,22,32ZM42,48a2.0001,2.0001,0,0,1-2,2H36a2,2,0,0,1,0-4h4A2.0001,2.0001,0,0,1,42,48ZM38.58984,33.40967A1.96533,1.96533,0,0,1,38,32a1.70553,1.70553,0,0,1,.04-.39014,1.79576,1.79576,0,0,1,.10937-.37988,2.329,2.329,0,0,1,.19043-.34033,1.4451,1.4451,0,0,1,.25-.29981,1.99273,1.99273,0,0,1,1.79981-.5498,1.7976,1.7976,0,0,1,.37988.10986,1.60192,1.60192,0,0,1,.33985.18994,2.14653,2.14653,0,0,1,.55078.54981,2.3231,2.3231,0,0,1,.18945.34033,1.85933,1.85933,0,0,1,.11035.37988A1.70553,1.70553,0,0,1,42,32a1.96533,1.96533,0,0,1-.58984,1.40967,1.43239,1.43239,0,0,1-.30078.25,2.1883,2.1883,0,0,1-.33985.18994,2.7165,2.7165,0,0,1-.37988.11035A1.73134,1.73134,0,0,1,40,34,1.96494,1.96494,0,0,1,38.58984,33.40967ZM22,24a2.0001,2.0001,0,0,1,2-2h8a2,2,0,0,1,0,4H24A2.0001,2.0001,0,0,1,22,24Zm16.04.38965a1.91835,1.91835,0,0,1,0-.77979,1.63765,1.63765,0,0,1,.10937-.37988,2.329,2.329,0,0,1,.19043-.34033,1.83265,1.83265,0,0,1,.25-.31006A2.01466,2.01466,0,0,1,40.38965,22.04a2.649,2.649,0,0,1,.37988.10986,1.60192,1.60192,0,0,1,.33985.18994,1.77782,1.77782,0,0,1,.30078.23975,1.83265,1.83265,0,0,1,.25.31006,2.3231,2.3231,0,0,1,.18945.34033A2.00152,2.00152,0,0,1,41.96,24.38965a1.86356,1.86356,0,0,1-.11035.38037,2.31807,2.31807,0,0,1-.18945.33984,1.44485,1.44485,0,0,1-.25.29981,1.97944,1.97944,0,0,1-2.82032,0,1.44485,1.44485,0,0,1-.25-.29981,2.324,2.324,0,0,1-.19043-.33984A1.79985,1.79985,0,0,1,38.04,24.38965ZM22,16a2.0001,2.0001,0,0,1,2-2h8a2,2,0,0,1,0,4H24A2.0001,2.0001,0,0,1,22,16Zm16.04.38965a1.91835,1.91835,0,0,1,0-.77979,1.79576,1.79576,0,0,1,.10937-.37988,2.329,2.329,0,0,1,.19043-.34033,1.4451,1.4451,0,0,1,.25-.29981,1.99273,1.99273,0,0,1,1.79981-.5498,2.649,2.649,0,0,1,.37988.10986,2.22937,2.22937,0,0,1,.33985.18994,2.14653,2.14653,0,0,1,.55078.54981,2.3231,2.3231,0,0,1,.18945.34033,1.85933,1.85933,0,0,1,.11035.37988,1.91835,1.91835,0,0,1,0,.77979,1.86356,1.86356,0,0,1-.11035.38037,2.31807,2.31807,0,0,1-.18945.33984,1.83226,1.83226,0,0,1-.25.31006,1.77732,1.77732,0,0,1-.30078.23975,1.60148,1.60148,0,0,1-.33985.18994,1.79945,1.79945,0,0,1-.37988.11035A1.73134,1.73134,0,0,1,40,18a1.99766,1.99766,0,0,1-1.41016-.58008,1.83226,1.83226,0,0,1-.25-.31006,2.324,2.324,0,0,1-.19043-.33984A1.79985,1.79985,0,0,1,38.04,16.38965Z"/></g><g id="White_space" data-name="White space"><rect class="cls-1" width="64" height="64"/></g></svg>