<svg xmlns="http://www.w3.org/2000/svg" viewBox="0 0 64 64"><defs><style>.cls-1{fill:none;}</style></defs><title>TC</title><g id="ARTWORK"><path d="M57.58594,48.75781l-6.794-6.794a24.03217,24.03217,0,1,0-8.82812,8.82812l6.62213,6.62213a6.25008,6.25008,0,0,0,8.82812,0l.17188-.17187a6.00019,6.00019,0,0,0,0-8.48438ZM10,30A20,20,0,1,1,30,50,20.02229,20.02229,0,0,1,10,30ZM54.75781,54.41406l-.17187.17188a2.24447,2.24447,0,0,1-3.17188,0L45.302,48.47388A24.21384,24.21384,0,0,0,48.47388,45.302l6.28393,6.28394a2.00163,2.00163,0,0,1,0,2.82812ZM37.53644,26.658a8,8,0,1,0-15.07288,0A10.00815,10.00815,0,0,0,16,36a6.00657,6.00657,0,0,0,6,6H38a6.00657,6.00657,0,0,0,6-6A10.00815,10.00815,0,0,0,37.53644,26.658ZM30,20a4,4,0,1,1-4,4A4.004,4.004,0,0,1,30,20Zm8,18H22a2.0026,2.0026,0,0,1-2-2,6.00786,6.00786,0,0,1,4.85077-5.88684,7.9696,7.9696,0,0,0,10.29846,0A6.00786,6.00786,0,0,1,40,36,2.0026,2.0026,0,0,1,38,38Z"/></g><g id="White_space" data-name="White space"><rect class="cls-1" width="64" height="64"/></g></svg>