<svg xmlns="http://www.w3.org/2000/svg" viewBox="0 0 64 64"><defs><style>.cls-1{fill:#fff;}.cls-2{fill:none;}</style></defs><title>TC</title><g id="ARTWORK"><path class="cls-1" d="M54,32.26331V30a22,22,0,0,0-44,0v2.26331A8.00691,8.00691,0,0,0,4,40v6a8.00917,8.00917,0,0,0,8,8h2a4.004,4.004,0,0,0,4-4V36a4.004,4.004,0,0,0-4-4V30a18,18,0,0,1,36,0v2a4.004,4.004,0,0,0-4,4V50a4.004,4.004,0,0,0,4,4h2a8.00917,8.00917,0,0,0,8-8V40A8.00691,8.00691,0,0,0,54,32.26331ZM14.00293,50H12a4.004,4.004,0,0,1-4-4V40a4.004,4.004,0,0,1,4-4h2ZM56,46a4.004,4.004,0,0,1-4,4H50l-.00293-14H52a4.004,4.004,0,0,1,4,4Z"/></g><g id="White_space" data-name="White space"><rect class="cls-2" width="64" height="64"/></g></svg>