<svg xmlns="http://www.w3.org/2000/svg" viewBox="0 0 64 64"><defs><style>.cls-1{fill:#fff;}.cls-2{fill:none;}</style></defs><title>TC</title><g id="ARTWORK"><path class="cls-1" d="M53.81934,12.3501a14.06869,14.06869,0,0,0-20.34473,0L32,13.874,30.52539,12.3501a14.06869,14.06869,0,0,0-20.34473,0,15.10876,15.10876,0,0,0,0,20.84179L29.12793,52.7793a3.98966,3.98966,0,0,0,5.74512-.00049L53.81934,33.19189A15.10876,15.10876,0,0,0,53.81934,12.3501Zm-2.875,18.06054L32.002,49.99756,13.05566,30.41064a11.07608,11.07608,0,0,1,0-15.27929,10.06864,10.06864,0,0,1,14.59473,0l2.91211,3.00976a2.06,2.06,0,0,0,2.875,0l2.91211-3.00976a10.06864,10.06864,0,0,1,14.59473,0A11.07608,11.07608,0,0,1,50.94434,30.41064Z"/></g><g id="White_space" data-name="White space"><rect class="cls-2" width="64" height="64"/></g></svg>