<svg xmlns="http://www.w3.org/2000/svg" viewBox="0 0 64 64"><defs><style>.cls-1{fill:#fff;}.cls-2{fill:none;}</style></defs><title>TC</title><g id="ARTWORK"><path class="cls-1" d="M46,26a2.0001,2.0001,0,0,1-2,2H24a2,2,0,0,1,0-4H44A2.0001,2.0001,0,0,1,46,26ZM24,18H44a2,2,0,0,0,0-4H24a2,2,0,0,0,0,4ZM44,34H24a2,2,0,0,0,0,4H44a2,2,0,0,0,0-4ZM54,8V52a8.00917,8.00917,0,0,1-8,8H14a8.00917,8.00917,0,0,1-8-8V50a4.00427,4.00427,0,0,1,4-4h4V12a8.00917,8.00917,0,0,1,8-8H50A4.00427,4.00427,0,0,1,54,8ZM14,56H39.08252A7.93961,7.93961,0,0,1,38,52V50H10v2A4.00427,4.00427,0,0,0,14,56ZM50,8H22a4.00427,4.00427,0,0,0-4,4V46H38a4.00427,4.00427,0,0,1,4,4v2a4,4,0,0,0,8,0Z"/></g><g id="White_space" data-name="White space"><rect class="cls-2" width="64" height="64"/></g></svg>