<svg xmlns="http://www.w3.org/2000/svg" viewBox="0 0 64 64"><defs><style>.cls-1{fill:none;}</style></defs><title>TC</title><g id="ARTWORK"><path d="M37.17151,34H10a2,2,0,0,1,0-4H37.17151l-8.58557-8.58594a1.99978,1.99978,0,0,1,2.82812-2.82812L43.41278,30.58466a2.00855,2.00855,0,0,1,.25073.30664c.03174.04748.05335.099.08057.14843a1.17162,1.17162,0,0,1,.165.39539c.01715.05786.03949.11334.05139.17334a2.00573,2.00573,0,0,1,0,.78308c-.0119.06-.03424.11548-.05139.17334a1.17162,1.17162,0,0,1-.165.39539c-.02722.04943-.04883.10095-.08057.14843a2.00855,2.00855,0,0,1-.25073.30664L31.41406,45.41406a1.99978,1.99978,0,0,1-2.82812-2.82812ZM48,8H24a2,2,0,0,0,0,4H48a4.00427,4.00427,0,0,1,4,4V48a4.00427,4.00427,0,0,1-4,4H24a2,2,0,0,0,0,4H48a8.00917,8.00917,0,0,0,8-8V16A8.00917,8.00917,0,0,0,48,8Z"/></g><g id="White_space" data-name="White space"><rect class="cls-1" width="64" height="64"/></g></svg>