<svg xmlns="http://www.w3.org/2000/svg" viewBox="0 0 64 64"><defs><style>.cls-1{fill:none;}</style></defs><title>TC</title><g id="ARTWORK"><path d="M54,22H46a3.97288,3.97288,0,0,0-2.81824,1.17706c-5.774-2.02337-10.89459-7.72918-12.72961-14.37237a6.02357,6.02357,0,0,0-5.16358-4.41016,5.86557,5.86557,0,0,0-5.90771,3.11621,12.90607,12.90607,0,0,0-.58154,1.24707,11.7273,11.7273,0,0,0-.15284,8.09278L21.17236,24H12a6.00657,6.00657,0,0,0-6,6v2A6.00138,6.00138,0,0,0,8.773,37.05664,5.95864,5.95864,0,0,0,8,40v2a6.00987,6.00987,0,0,0,4.42188,5.78906A5.97567,5.97567,0,0,0,12,50v2a6.00657,6.00657,0,0,0,6,6H43a1.98277,1.98277,0,0,0,.5-.07074A1.98277,1.98277,0,0,0,44,58H56a2.0001,2.0001,0,0,0,2-2V26A4.00427,4.00427,0,0,0,54,22ZM16,52V50a2.00229,2.00229,0,0,1,2-2,2,2,0,0,0,0-4H14a2.00229,2.00229,0,0,1-2-2V40a2.00229,2.00229,0,0,1,2-2,2,2,0,0,0,0-4H12a2.00229,2.00229,0,0,1-2-2V30a2.00229,2.00229,0,0,1,2-2H23.99371L24,28.001a1.97994,1.97994,0,0,0,.3725-.03852c.04474-.00848.08679-.02276.13043-.03412.05438-.01428.10913-.02343.16309-.0426.0177-.00628.03247-.01678.04986-.0235a1.97492,1.97492,0,0,0,.20258-.09539c.05237-.02723.1054-.05268.15454-.08393a1.98307,1.98307,0,0,0,.16009-.11938c.05-.03949.1012-.07733.14685-.1211.04621-.04425.08625-.09356.12812-.14209.04168-.0484.08465-.09509.12133-.147.03815-.05377.0691-.11182.10187-.16931.03046-.05365.06256-.10584.088-.16205.02686-.05926.04615-.1217.0672-.1839.02094-.06164.04285-.12231.05768-.18591.01343-.05762.01984-.11713.02814-.17652a1.96912,1.96912,0,0,0,.02222-.22045C25.995,26.03638,26,26.01892,26,26c0-.04242-.00989-.08209-.01251-.1239a1.54327,1.54327,0,0,0-.07233-.42145c-.01147-.04016-.01532-.08075-.02942-.12067l-3.456-9.78125a7.70161,7.70161,0,0,1,.08008-5.2998,8.69294,8.69294,0,0,1,.39941-.85742,1.908,1.908,0,0,1,1.939-1.02539,2.00939,2.00939,0,0,1,1.74854,1.499C28.77875,17.77014,34.98016,24.57574,42,26.9939V54H18A2.00229,2.00229,0,0,1,16,52Zm38,2H46V26.05316c.00049-.01813.00537-.035.00537-.05316H54Z"/></g><g id="White_space" data-name="White space"><rect class="cls-1" width="64" height="64"/></g></svg>