<svg xmlns="http://www.w3.org/2000/svg" viewBox="0 0 64 64"><defs><style>.cls-1{fill:none;}</style></defs><title>TC</title><g id="ARTWORK"><path d="M37.0498,28.22168a11.0125,11.0125,0,0,1,0,15.55664L25.77832,55.0498a11.01251,11.01251,0,0,1-15.55664,0L8.9502,53.77832a11.0125,11.0125,0,0,1,0-15.55664l7.63574-7.63574a1.99978,1.99978,0,0,1,2.82812,2.82812L11.77832,41.0498a7.00868,7.00868,0,0,0,0,9.9004l1.27148,1.27148a7.01044,7.01044,0,0,0,9.9004,0L34.22168,40.9502a7.00868,7.00868,0,0,0,0-9.9004l-1.63574-1.63574a1.99978,1.99978,0,0,1,2.82812-2.82812Zm18-18L53.77832,8.9502a11.0125,11.0125,0,0,0-15.55664,0L26.9502,20.22168a11.0125,11.0125,0,0,0,0,15.55664l1.63574,1.63574a1.99978,1.99978,0,0,0,2.82812-2.82812L29.77832,32.9502a7.00868,7.00868,0,0,1,0-9.9004L41.0498,11.77832a7.01044,7.01044,0,0,1,9.9004,0l1.27148,1.27148a7.00868,7.00868,0,0,1,0,9.9004l-7.63574,7.63574a1.99978,1.99978,0,0,0,2.82812,2.82812l7.63574-7.63574A11.0125,11.0125,0,0,0,55.0498,10.22168Z"/></g><g id="White_space" data-name="White space"><rect class="cls-1" width="64" height="64"/></g></svg>