<svg xmlns="http://www.w3.org/2000/svg" viewBox="0 0 64 64"><defs><style>.cls-1{fill:none;}</style></defs><title>TC</title><g id="ARTWORK"><path d="M60,25A20.97793,20.97793,0,0,0,21.11475,14.05084c-.03394.01819-.06983.02936-.103.04975a21.01687,21.01687,0,0,0-6.96118,6.9815A20.999,20.999,0,0,0,25,60,21.10017,21.10017,0,0,0,42.95288,49.88538a21.00473,21.00473,0,0,0,7.01025-7.00861A20.98531,20.98531,0,0,0,60,25ZM25,56A17.01406,17.01406,0,0,1,11.21179,29.03729,21.359,21.359,0,0,0,11,32,21.02422,21.02422,0,0,0,32,53a20.69189,20.69189,0,0,0,2.91028-.21118A17.03391,17.03391,0,0,1,25,56Zm7-7A17.01378,17.01378,0,0,1,18.23981,21.9989,20.845,20.845,0,0,0,42.00336,45.75983,16.89926,16.89926,0,0,1,32,49Zm7-7A17,17,0,1,1,56,25,17.019,17.019,0,0,1,39,42ZM35.39539,21h7.64013c.53723,0,.78919.25189.78919.72491,0,1.10541-.75836,2.27509-1.42157,2.27509H34.5777a8.14431,8.14431,0,0,0-.0315,1.06439A6.19747,6.19747,0,0,0,34.5777,26h7.35608c.53729,0,.78918.25189.78918.72491C42.723,27.83032,41.96466,29,41.304,29h-6a5.20534,5.20534,0,0,0,5.08227,3.53467,10.59044,10.59044,0,0,0,2.90491-.56812,7.06828,7.06828,0,0,1,1.67352-.347c.72748,0,1.10535.347,1.10535,1.01031a3.44826,3.44826,0,0,1-1.4524,2.93573,9.67112,9.67112,0,0,1-4.545,1.01026c-4.67352,0-8.17743-2.80976-9.53473-7.57581H29.30652a.68008.68008,0,0,1-.44214-.19025,2.312,2.312,0,0,1-.97943-1.48327C27.885,26.69409,28.95947,26,29.93634,26H30.216a6.19942,6.19942,0,0,1-.03149-.93561A8.14688,8.14688,0,0,1,30.216,24h-.471a.68006.68006,0,0,1-.44214-.19025,2.31191,2.31191,0,0,1-.97943-1.48327c0-.63239,1.072-1.32648,2.05139-1.32648h.4422c1.64264-4.64014,5.39843-7.51416,9.78662-7.51416a9.38517,9.38517,0,0,1,5.11566,1.48328,1.00254,1.00254,0,0,1,.473.85351A3.48947,3.48947,0,0,1,45.182,18.31616a1.27042,1.27042,0,0,1-.88428.41132,1.3094,1.3094,0,0,1-.599-.19025A6.6507,6.6507,0,0,0,40.47766,17.527C38.236,17.527,36.53162,18.69409,35.39539,21Z"/></g><g id="White_space" data-name="White space"><rect class="cls-1" width="64" height="64"/></g></svg>