<svg xmlns="http://www.w3.org/2000/svg" viewBox="0 0 64 64"><defs><style>.cls-1{fill:#fff;}.cls-2{fill:none;}</style></defs><title>TC</title><g id="ARTWORK"><path class="cls-1" d="M40,4H24a8.00917,8.00917,0,0,0-8,8V52a8.00917,8.00917,0,0,0,8,8H40a8.00917,8.00917,0,0,0,8-8V12A8.00917,8.00917,0,0,0,40,4ZM20,12a4.00427,4.00427,0,0,1,4-4H40a4.00427,4.00427,0,0,1,4,4V44H20ZM44,52a4.00427,4.00427,0,0,1-4,4H24a4.00427,4.00427,0,0,1-4-4V48H44ZM30,52a2,2,0,1,1,2,2A2,2,0,0,1,30,52Z"/></g><g id="White_space" data-name="White space"><rect class="cls-2" width="64" height="64"/></g></svg>