<svg xmlns="http://www.w3.org/2000/svg" viewBox="0 0 64 64"><defs><style>.cls-1{fill:#fff;}.cls-2{fill:none;}</style></defs><title>TC</title><g id="ARTWORK"><path class="cls-1" d="M50.49121,11.38477a3.986,3.986,0,0,0-3.3916-.76856l-21.999,5.07715A3.98134,3.98134,0,0,0,22,19.59082V39.35266A9.75538,9.75538,0,0,0,17,38c-4.96289,0-9,3.58887-9,8s4.03711,8,9,8,9-3.58887,9-8V19.5918l22-5.07813v18.839A9.75538,9.75538,0,0,0,43,32c-4.96289,0-9,3.58887-9,8s4.03711,8,9,8,9-3.58887,9-8V14.51367A3.97683,3.97683,0,0,0,50.49121,11.38477ZM17,50c-2.75684,0-5-1.794-5-4s2.24316-4,5-4,5,1.794,5,4S19.75684,50,17,50Zm26-6c-2.75684,0-5-1.794-5-4s2.24316-4,5-4,5,1.794,5,4S45.75684,44,43,44Z"/></g><g id="White_space" data-name="White space"><rect class="cls-2" width="64" height="64"/></g></svg>