<svg xmlns="http://www.w3.org/2000/svg" viewBox="0 0 64 64"><defs><style>.cls-1{fill:#fff;}.cls-2{fill:none;}</style></defs><title>TC</title><g id="ARTWORK"><path class="cls-1" d="M32,14A10,10,0,1,0,42,24,10.01177,10.01177,0,0,0,32,14Zm0,16a6,6,0,1,1,6-6A6.00657,6.00657,0,0,1,32,30ZM32,4A20.02229,20.02229,0,0,0,12,24c0,12.48926,13.62988,28.10547,17.80957,32.5957A3.00365,3.00365,0,0,0,32,57.54883h.002a3.00391,3.00391,0,0,0,2.19043-.95508C38.37012,52.10547,52,36.48926,52,24A20.02229,20.02229,0,0,0,32,4Zm0,49.06641C28.07129,48.72559,16,34.52734,16,24a16,16,0,0,1,32,0C48,34.52734,35.92871,48.72559,32,53.06641Z"/></g><g id="White_space" data-name="White space"><rect class="cls-2" width="64" height="64"/></g></svg>