<svg xmlns="http://www.w3.org/2000/svg" viewBox="0 0 64 64"><defs><style>.cls-1{fill:#fff;}.cls-2{fill:none;}</style></defs><title>TC</title><g id="ARTWORK"><path class="cls-1" d="M38.37207,11.27539a2.98944,2.98944,0,0,0-3.11523.22656l-9.291,6.63575A9.94445,9.94445,0,0,1,20.1543,20H12a8.00917,8.00917,0,0,0-8,8v4a8.01347,8.01347,0,0,0,6.39783,7.83838l2.92737,11.7085a5.88078,5.88078,0,0,0,11.41015-2.85352l-2.09424-8.37622a9.96059,9.96059,0,0,1,3.32569,1.54614l9.28808,6.63379A3.00009,3.00009,0,0,0,40,46.05664V13.94336A2.98728,2.98728,0,0,0,38.37207,11.27539ZM20.5127,51.27637a1.88042,1.88042,0,0,1-3.30665-.7002L14.56183,40h3.87646l2.4162,9.66406A1.8671,1.8671,0,0,1,20.5127,51.27637ZM36,44.11328,28.292,38.6084A13.916,13.916,0,0,0,20.1543,36H12a4.004,4.004,0,0,1-4-4V28a4.004,4.004,0,0,1,4-4h8.1543A13.91686,13.91686,0,0,0,28.291,21.39258L36,15.88672ZM52,30a20.636,20.636,0,0,1-4.48047,13.30078,2.00025,2.00025,0,0,1-3.03906-2.60156A16.60348,16.60348,0,0,0,48,30a16.60348,16.60348,0,0,0-3.51953-10.69922,2.00025,2.00025,0,0,1,3.03906-2.60156A20.636,20.636,0,0,1,52,30Zm8,0c0,7.45508-2.3623,14.48926-6.48047,19.30078a2.00025,2.00025,0,0,1-3.03906-2.60156C53.98828,42.60156,56,36.51562,56,30s-2.01172-12.60156-5.51953-16.69922a2.00025,2.00025,0,0,1,3.03906-2.60156C57.6377,15.51074,60,22.54492,60,30Z"/></g><g id="White_space" data-name="White space"><rect class="cls-2" width="64" height="64"/></g></svg>