<svg xmlns="http://www.w3.org/2000/svg" viewBox="0 0 64 64"><defs><style>.cls-1{fill:none;}</style></defs><title>TC</title><g id="ARTWORK"><path d="M54,40a5.95606,5.95606,0,0,0-3.16119.90979l-6.35614-5.08447a11.93022,11.93022,0,0,0-.71247-12.76746l4.17395-4.17432a8.02833,8.02833,0,1,0-2.828-2.82818L40.94208,20.2298a11.93248,11.93248,0,0,0-14.74054.66809L15.62048,12.08038a6.01987,6.01987,0,1,0-2.56115,3.07178l10.58215,8.81842a11.78622,11.78622,0,0,0-1.43622,8.19025l-3.61468,1.31433A7.99241,7.99241,0,1,0,20,38c0-.25867-.01471-.51385-.03882-.7663l3.61359-1.314a12.04939,12.04939,0,0,0,6.5094,5.41107l-1.12793,6.76624a5.99689,5.99689,0,1,0,3.9458.65515l1.12579-6.7536a11.937,11.937,0,0,0,7.94727-3.05707l6.36328,5.09015A5.9963,5.9963,0,1,0,54,40ZM12,42a4,4,0,1,1,4-4A4.00427,4.00427,0,0,1,12,42ZM52,8a4,4,0,1,1-4,4A4.00427,4.00427,0,0,1,52,8ZM10,12a2,2,0,1,1,2-2A2.00229,2.00229,0,0,1,10,12ZM30,56a2,2,0,1,1,2-2A2.00229,2.00229,0,0,1,30,56Zm4-18a8,8,0,1,1,8-8A8.00917,8.00917,0,0,1,34,38ZM54,48a2,2,0,1,1,2-2A2.00229,2.00229,0,0,1,54,48Z"/></g><g id="White_space" data-name="White space"><rect class="cls-1" width="64" height="64"/></g></svg>