<svg xmlns="http://www.w3.org/2000/svg" viewBox="0 0 64 64"><defs><style>.cls-1{fill:none;}</style></defs><title>TC</title><g id="ARTWORK"><path d="M36,50a4,4,0,1,1-4-4A4,4,0,0,1,36,50ZM56.667,18.81055a38.86954,38.86954,0,0,0-7.44629-4.78022L53.47949,9.3457a1.99995,1.99995,0,0,0-2.959-2.6914l-5.19165,5.71081A38.87086,38.87086,0,0,0,7.333,18.81055a2,2,0,0,0,2.5332,3.0957,34.8837,34.8837,0,0,1,32.53-6.31531l-6.148,6.76276a26.72875,26.72875,0,0,0-21.49438,5.88165,2,2,0,1,0,2.55664,3.07617A23.0179,23.0179,0,0,1,32,26c.30054,0,.59827.02753.89771.03937L10.52051,50.6543a1.99995,1.99995,0,1,0,2.959,2.6914l11.9624-13.15857a10.93365,10.93365,0,0,1,13.76709.52381,2.00032,2.00032,0,1,0,2.62891-3.01563A14.97886,14.97886,0,0,0,32,34c-.32507,0-.64722.01825-.96875.03876l6.64844-7.31336a23.00382,23.00382,0,0,1,9.00976,4.58612,2,2,0,1,0,2.55664-3.07617,26.98014,26.98014,0,0,0-8.58874-4.78528l5.75427-6.32977a34.9241,34.9241,0,0,1,7.72217,4.786,2,2,0,1,0,2.5332-3.0957Z"/></g><g id="White_space" data-name="White space"><rect class="cls-1" width="64" height="64"/></g></svg>