<svg xmlns="http://www.w3.org/2000/svg" viewBox="0 0 64 64"><defs><style>.cls-1{fill:none;}</style></defs><title>TC</title><g id="ARTWORK"><path d="M36,36a2.0001,2.0001,0,0,1-2,2H18a2,2,0,0,1,0-4H34A2.0001,2.0001,0,0,1,36,36Zm-2,6H18a2,2,0,0,0,0,4H34a2,2,0,0,0,0-4Zm2-24V28a2.0001,2.0001,0,0,1-2,2H18a2.0001,2.0001,0,0,1-2-2V18a2.0001,2.0001,0,0,1,2-2H34A2.0001,2.0001,0,0,1,36,18Zm-4,2H20v6H32Zm24,2V50a8.00917,8.00917,0,0,1-8,8H16a8.00917,8.00917,0,0,1-8-8V10a4.004,4.004,0,0,1,4-4H40a4.004,4.004,0,0,1,4,4v8h8A4.004,4.004,0,0,1,56,22ZM41.08246,54A7.94017,7.94017,0,0,1,40,50V10H12V50a4.004,4.004,0,0,0,4,4ZM52,22H44V50a4,4,0,0,0,8,0Z"/></g><g id="White_space" data-name="White space"><rect class="cls-1" width="64" height="64"/></g></svg>