<svg xmlns="http://www.w3.org/2000/svg" viewBox="0 0 64 64"><defs><style>.cls-1{fill:none;}</style></defs><title>TC</title><g id="ARTWORK"><path d="M58.29883,33.4707A6.4217,6.4217,0,0,0,50,32.85669V26a4.004,4.004,0,0,0,4-4V16a4.004,4.004,0,0,0-4-4H48A7.98922,7.98922,0,0,0,34,6.72632,7.98922,7.98922,0,0,0,20,12H18a4.004,4.004,0,0,0-4,4v6a4.004,4.004,0,0,0,4,4v8.08948a3.97021,3.97021,0,0,0-2,1.0824l-10,10a4.00384,4.00384,0,0,0,0,5.65624L13.17188,58a4.00325,4.00325,0,0,0,5.65624,0l2-2H43.17188A3.97268,3.97268,0,0,0,46,54.82812L58.29883,42.5293A6.41159,6.41159,0,0,0,58.29883,33.4707ZM46,36.22327l-2.28223,1.95642A6.01138,6.01138,0,0,0,38,34H36V26H46ZM50,16l.00293,6H36V16ZM40,8a4.004,4.004,0,0,1,4,4H36A4.004,4.004,0,0,1,40,8ZM28,8a4.004,4.004,0,0,1,4,4H24A4.004,4.004,0,0,1,28,8ZM18,16H32v6H18ZM32,26v8H22V26ZM55.4707,39.70117,43.17188,52h-24L16,55.17188,8.82812,48l10-10H38a2.00026,2.00026,0,0,1,.52734,3.92969A3.97636,3.97636,0,0,1,37.78027,42H28a2,2,0,0,0,0,4H38a5.968,5.968,0,0,0,1.43164-.17285,8.00932,8.00932,0,0,0,3.55566-1.75293l9.2168-7.90039a2.40555,2.40555,0,0,1,3.2666,3.52734Z"/></g><g id="White_space" data-name="White space"><rect class="cls-1" width="64" height="64"/></g></svg>