<svg xmlns="http://www.w3.org/2000/svg" viewBox="0 0 64 64"><defs><style>.cls-1{fill:none;}</style></defs><title>TC</title><g id="ARTWORK"><path d="M54,40H48V34a4.00427,4.00427,0,0,0-4-4H34V24H48a4.00427,4.00427,0,0,0,4-4V10a4.00427,4.00427,0,0,0-4-4H16a4.00427,4.00427,0,0,0-4,4V20a4.00427,4.00427,0,0,0,4,4H30v6H20a4.00427,4.00427,0,0,0-4,4l-.00073,6H10a4.00427,4.00427,0,0,0-4,4V54a4.00427,4.00427,0,0,0,4,4H24a4.00427,4.00427,0,0,0,4-4V44a4.00427,4.00427,0,0,0-4-4H19.99927L20,34H44v6H40a4.00427,4.00427,0,0,0-4,4V54a4.00427,4.00427,0,0,0,4,4H54a4.00427,4.00427,0,0,0,4-4V44A4.00427,4.00427,0,0,0,54,40ZM16,10H48V20H16Zm8,44H10V44H24Zm30,0H40V44H54Z"/></g><g id="White_space" data-name="White space"><rect class="cls-1" width="64" height="64"/></g></svg>