<svg xmlns="http://www.w3.org/2000/svg" viewBox="0 0 64 64"><defs><style>.cls-1{fill:none;}</style></defs><title>TC</title><g id="ARTWORK"><path d="M46,24H24.00262A9.99488,9.99488,0,1,1,40.65137,13.00293a2.00009,2.00009,0,1,0,3.46093-2.00586A13.99235,13.99235,0,0,0,19.35675,24H18a8.00917,8.00917,0,0,0-8,8V50a8.00917,8.00917,0,0,0,8,8H46a8.00917,8.00917,0,0,0,8-8V32A8.00917,8.00917,0,0,0,46,24Zm4,26a4.004,4.004,0,0,1-4,4H18a4.004,4.004,0,0,1-4-4V32a4.004,4.004,0,0,1,4-4H46a4.004,4.004,0,0,1,4,4ZM34,40v6a2,2,0,0,1-4,0V40a2,2,0,0,1,4,0Z"/></g><g id="White_space" data-name="White space"><rect class="cls-1" width="64" height="64"/></g></svg>