<svg xmlns="http://www.w3.org/2000/svg" viewBox="0 0 64 64"><defs><style>.cls-1{fill:none;}</style></defs><title>TC</title><g id="ARTWORK"><path d="M34.82812,29.17188a3.99957,3.99957,0,1,1-5.65624,0A4.00382,4.00382,0,0,1,34.82812,29.17188ZM48,32A16,16,0,1,1,32,16,16.01833,16.01833,0,0,1,48,32Zm-4,0A12,12,0,1,0,32,44,12.01343,12.01343,0,0,0,44,32Zm14,0A26,26,0,1,1,32,6,26.02916,26.02916,0,0,1,58,32Zm-4,0A22,22,0,1,0,32,54,22.02489,22.02489,0,0,0,54,32Z"/></g><g id="White_space" data-name="White space"><rect class="cls-1" width="64" height="64"/></g></svg>