<svg xmlns="http://www.w3.org/2000/svg" viewBox="0 0 64 64"><defs><style>.cls-1{fill:#fff;}.cls-2{fill:none;}</style></defs><title>TC</title><g id="ARTWORK"><path class="cls-1" d="M44,30a5.96578,5.96578,0,0,0-2.21094.42188,6.02332,6.02332,0,0,0-2.87964-3.66315A13.99612,13.99612,0,1,0,22,30.64233v2.51392a6.10847,6.10847,0,0,0-6.917-2.13867A6.00222,6.00222,0,0,0,11.752,39.25879l6.86914,14.21973A8.0427,8.0427,0,0,0,25.8252,58H42a8.00917,8.00917,0,0,0,8-8V36A6.00657,6.00657,0,0,0,44,30ZM18,18a10,10,0,1,1,16,7.99921V18.17188a6.1409,6.1409,0,0,0-5.418-6.14454A6.00146,6.00146,0,0,0,22,18v7.99921A10.02085,10.02085,0,0,1,18,18ZM46,50a4.004,4.004,0,0,1-4,4H25.8252a4.02118,4.02118,0,0,1-3.60254-2.26074L15.35352,37.51953a2.00257,2.00257,0,0,1,1.11914-2.751,1.784,1.784,0,0,1,.623-.11035,2.20544,2.20544,0,0,1,1.93555,1.27637L21.415,40.87012A2.00064,2.00064,0,0,0,23.21582,42H24a2.0001,2.0001,0,0,0,2-2V18a1.99934,1.99934,0,0,1,2.20312-1.99023A2.1114,2.1114,0,0,1,30,18.17188V32a2,2,0,0,0,4,0,2,2,0,0,1,4,0v4a2,2,0,0,0,4,0,2,2,0,0,1,4,0Z"/></g><g id="White_space" data-name="White space"><rect class="cls-2" width="64" height="64"/></g></svg>