<svg xmlns="http://www.w3.org/2000/svg" viewBox="0 0 64 64"><defs><style>.cls-1{fill:none;}</style></defs><title>TC</title><g id="ARTWORK"><path d="M56,34.83624V20a8.00917,8.00917,0,0,0-8-8H12a8.00917,8.00917,0,0,0-8,8V40a8.00917,8.00917,0,0,0,8,8H30.30231A14.99706,14.99706,0,1,0,56,34.83624ZM12,16H48a4.004,4.004,0,0,1,4,4v2H8V20A4.004,4.004,0,0,1,12,16ZM8,40V26H52v5.74341A14.96958,14.96958,0,0,0,30.05066,44H12A4.004,4.004,0,0,1,8,40ZM45,56A11,11,0,1,1,56,45,11.01245,11.01245,0,0,1,45,56Zm6.66406-13.89062-6,9a1.99718,1.99718,0,0,1-1.46679.88085A1.91827,1.91827,0,0,1,44,52a2.0005,2.0005,0,0,1-1.41406-.58594l-4-4a1.99978,1.99978,0,0,1,2.82812-2.82812l2.27539,2.27441,4.64649-6.96973a2,2,0,1,1,3.32812,2.21876Z"/></g><g id="White_space" data-name="White space"><rect class="cls-1" width="64" height="64"/></g></svg>