<svg xmlns="http://www.w3.org/2000/svg" viewBox="0 0 64 64"><defs><style>.cls-1{fill:#fff;}.cls-2{fill:none;}</style></defs><title>TC</title><g id="ARTWORK"><path class="cls-1" d="M49.12793,19.83594c-.43152-.29492-.86829-.559-1.30347-.83228l5.5896-5.5896a1.99978,1.99978,0,0,0-2.82812-2.82812l-6.40113,6.40112A28.25931,28.25931,0,0,0,32,14C16.919,14,4,28.582,4,32c0,2.10376,4.89813,8.4342,12.17847,12.99341l-5.59253,5.59253a1.99978,1.99978,0,1,0,2.82812,2.82812l6.40528-6.40527A28.19051,28.19051,0,0,0,32,50c15.081,0,28-14.582,28-18C60,29.52246,54.81836,23.72461,49.12793,19.83594ZM8.0918,32C9.53125,29.08789,19.85156,18,32,18a23.55041,23.55041,0,0,1,9.17383,1.998l-2.23169,2.23169a11.981,11.981,0,0,0-16.7124,16.7124l-3.1568,3.1568C13.17035,38.60919,8.97137,33.77948,8.0918,32ZM40,32a7.98393,7.98393,0,0,1-12.0556,6.88373l6.37811-6.37811A1.99575,1.99575,0,0,0,38.25,32a5.95734,5.95734,0,0,0-.67279-2.74908l1.30652-1.30652A7.93927,7.93927,0,0,1,40,32ZM24,32a7.98393,7.98393,0,0,1,12.0556-6.88373l-1.3938,1.3938A5.96051,5.96051,0,0,0,32.25,26a1.9952,1.9952,0,0,0-.87079,3.79266L25.11627,36.0556A7.93927,7.93927,0,0,1,24,32Zm8,14a23.4998,23.4998,0,0,1-9.1748-1.99707l2.23266-2.23267a11.981,11.981,0,0,0,16.7124-16.7124l3.15564-3.15564c.7005.41449,1.35352.832,1.94519,1.23645a32.513,32.513,0,0,1,9.03223,8.873C54.44141,34.94141,44.13281,46,32,46Z"/></g><g id="White_space" data-name="White space"><rect class="cls-2" width="64" height="64"/></g></svg>