<svg xmlns="http://www.w3.org/2000/svg" viewBox="0 0 64 64"><defs><style>.cls-1{fill:none;}</style></defs><title>TC</title><g id="ARTWORK"><path d="M58,30V26a10.00815,10.00815,0,0,0-6.46356-9.342,8,8,0,1,0-15.07288,0A10.03306,10.03306,0,0,0,32,20.02576a10.03306,10.03306,0,0,0-4.46356-3.3678,8,8,0,1,0-15.07288,0A10.00815,10.00815,0,0,0,6,26v4a6.00657,6.00657,0,0,0,6,6,7.94647,7.94647,0,0,0,.46356,2.658A10.00815,10.00815,0,0,0,6,48v4a6.00657,6.00657,0,0,0,6,6H28a5.96877,5.96877,0,0,0,4-1.54047A5.96877,5.96877,0,0,0,36,58H52a6.00657,6.00657,0,0,0,6-6V48a10.00815,10.00815,0,0,0-6.46356-9.342A7.94647,7.94647,0,0,0,52,36,6.00657,6.00657,0,0,0,58,30ZM44,10a4,4,0,1,1-4,4A4.004,4.004,0,0,1,44,10ZM20,10a4,4,0,1,1-4,4A4.004,4.004,0,0,1,20,10ZM30,52a2.0026,2.0026,0,0,1-2,2H12a2.0026,2.0026,0,0,1-2-2V48a6.00786,6.00786,0,0,1,4.85077-5.88684,7.9696,7.9696,0,0,0,10.29846,0A6.00786,6.00786,0,0,1,30,48ZM16,36a4,4,0,1,1,4,4A4.004,4.004,0,0,1,16,36ZM54,48v4a2.0026,2.0026,0,0,1-2,2H36a2.0026,2.0026,0,0,1-2-2V48a6.00786,6.00786,0,0,1,4.85077-5.88684,7.9696,7.9696,0,0,0,10.29846,0A6.00786,6.00786,0,0,1,54,48ZM40,36a4,4,0,1,1,4,4A4.004,4.004,0,0,1,40,36Zm10.91754-4a7.98869,7.98869,0,0,0-14.454,6.658A10.03306,10.03306,0,0,0,32,42.02576a10.03306,10.03306,0,0,0-4.46356-3.3678A7.99007,7.99007,0,0,0,13.08246,32H12a2.0026,2.0026,0,0,1-2-2V26a6.00786,6.00786,0,0,1,4.85077-5.88684,7.9696,7.9696,0,0,0,10.29846,0A6.00786,6.00786,0,0,1,30,26v4a2,2,0,0,0,4,0V26a6.00786,6.00786,0,0,1,4.85077-5.88684,7.9696,7.9696,0,0,0,10.29846,0A6.00786,6.00786,0,0,1,54,26v4a2.0026,2.0026,0,0,1-2,2Z"/></g><g id="White_space" data-name="White space"><rect class="cls-1" width="64" height="64"/></g></svg>