<svg xmlns="http://www.w3.org/2000/svg" viewBox="0 0 64 64"><defs><style>.cls-1{fill:none;}</style></defs><title>TC</title><g id="ARTWORK"><path d="M32,20A12,12,0,1,0,44,32,12.01312,12.01312,0,0,0,32,20Zm0,20a8,8,0,1,1,8-8A8.00917,8.00917,0,0,1,32,40Zm6.25-8a2,2,0,0,1-4,0,2.0026,2.0026,0,0,0-2-2,2,2,0,0,1,0-4A6.00657,6.00657,0,0,1,38.25,32ZM49.12793,19.83594C43.541,16.01758,37.61816,14,32,14,16.919,14,4,28.582,4,32S16.919,50,32,50,60,35.418,60,32C60,29.52246,54.81836,23.72461,49.12793,19.83594ZM32,46C19.85156,46,9.53125,34.91211,8.0918,32,9.53125,29.08789,19.85156,18,32,18c6.0752,0,11.44043,2.79395,14.87109,5.13867a32.513,32.513,0,0,1,9.03223,8.873C54.44141,34.94141,44.13281,46,32,46Z"/></g><g id="White_space" data-name="White space"><rect class="cls-1" width="64" height="64"/><rect class="cls-1" width="64" height="64"/></g></svg>