<svg xmlns="http://www.w3.org/2000/svg" viewBox="0 0 64 64"><defs><style>.cls-1{fill:#fff;}.cls-2{fill:none;}</style></defs><title>TC</title><g id="ARTWORK"><path class="cls-1" d="M44,16H20a16,16,0,0,0,0,32H44a16,16,0,0,0,0-32Zm0,28H20a12,12,0,0,1,0-24H44a12,12,0,0,1,0,24ZM28,32a2.0001,2.0001,0,0,1-2,2H16a2,2,0,0,1,0-4H26A2.0001,2.0001,0,0,1,28,32Zm22,0a2.0001,2.0001,0,0,1-2,2H45v3a2,2,0,0,1-4,0V34H38a2,2,0,0,1,0-4h3V27a2,2,0,0,1,4,0v3h3A2.0001,2.0001,0,0,1,50,32Z"/></g><g id="White_space" data-name="White space"><rect class="cls-2" width="64" height="64"/></g></svg>