<svg xmlns="http://www.w3.org/2000/svg" viewBox="0 0 64 64"><defs><style>.cls-1{fill:none;}</style></defs><title>TC</title><g id="ARTWORK"><path d="M56,40A16.01512,16.01512,0,0,0,43.777,24.46912a13,13,0,1,0-23.55408,0A16.01512,16.01512,0,0,0,8,40v4a8.00917,8.00917,0,0,0,8,8h8v2a6.00657,6.00657,0,0,0,6,6H50a6.00657,6.00657,0,0,0,6-6V52a7.93935,7.93935,0,0,0-1.11188-4.04828A7.74562,7.74562,0,0,0,56,44ZM32,10a9,9,0,1,1-9,9A9.00984,9.00984,0,0,1,32,10ZM16,48a4.004,4.004,0,0,1-4-4V40A12.01457,12.01457,0,0,1,22.707,28.07245a12.958,12.958,0,0,0,18.58606,0A12.01457,12.01457,0,0,1,52,40v4a3.54078,3.54078,0,0,1-.15948.98547A7.93933,7.93933,0,0,0,48.932,44.059a9.00012,9.00012,0,1,0-17.864,0A8.00582,8.00582,0,0,0,25.08246,48Zm29-5a5,5,0,1,1-5-5A5.00588,5.00588,0,0,1,45,43Zm7,11a2.0026,2.0026,0,0,1-2,2H30a2.0026,2.0026,0,0,1-2-2V52a4.004,4.004,0,0,1,4-4h.52167a8.99068,8.99068,0,0,0,14.95666,0H48a4.004,4.004,0,0,1,4,4Z"/></g><g id="White_space" data-name="White space"><rect class="cls-1" width="64" height="64"/></g></svg>