<svg xmlns="http://www.w3.org/2000/svg" viewBox="0 0 64 64"><defs><style>.cls-1{fill:#fff;}.cls-2{fill:none;}</style></defs><title>TC</title><g id="ARTWORK"><path class="cls-1" d="M56,43.17188,47.82861,35a4.09473,4.09473,0,0,0-5.65673,0L38.415,38.75684a2.00281,2.00281,0,0,1-2.82959.001L25.24219,28.41309a1.9981,1.9981,0,0,1,.001-2.82715l3.75733-3.75782A4.00518,4.00518,0,0,0,29,16.17188L20.82861,8a4.09473,4.09473,0,0,0-5.65673,0l-3.27247,3.27246a18.01972,18.01972,0,0,0,0,25.45508L27.27246,52.10059a18.01941,18.01941,0,0,0,25.45508,0l3.273-3.27247A4.00518,4.00518,0,0,0,56,43.17188Zm-6.10059,6.10058a14.01494,14.01494,0,0,1-19.79882,0l-15.373-15.373a14.01583,14.01583,0,0,1,0-19.79882L18,10.82812,26.17188,19,22.415,22.75684a5.9984,5.9984,0,0,0-.00049,8.48535L32.75781,41.58691a6.00963,6.00963,0,0,0,8.48535-.001L45,37.82812,53.17188,46Z"/></g><g id="White_space" data-name="White space"><rect class="cls-2" width="64" height="64"/></g></svg>