<svg xmlns="http://www.w3.org/2000/svg" viewBox="0 0 64 64"><defs><style>.cls-1{fill:#fff;}.cls-2{fill:none;}</style></defs><title>TC</title><g id="ARTWORK"><path class="cls-1" d="M52,12H12a8.00917,8.00917,0,0,0-8,8V40a8.00917,8.00917,0,0,0,8,8h4v5.58594A2.999,2.999,0,0,0,21.12109,55.707L28.82812,48H52a8.00917,8.00917,0,0,0,8-8V20A8.00917,8.00917,0,0,0,52,12Zm4,28a4.004,4.004,0,0,1-4,4H27.17188L20,51.17188V44H12a4.004,4.004,0,0,1-4-4V20a4.004,4.004,0,0,1,4-4H52a4.004,4.004,0,0,1,4,4ZM52,30a2.0001,2.0001,0,0,1-2,2H14a2,2,0,0,1,0-4H50A2.0001,2.0001,0,0,1,52,30ZM42,38a2.0001,2.0001,0,0,1-2,2H14a2,2,0,0,1,0-4H40A2.0001,2.0001,0,0,1,42,38Z"/></g><g id="White_space" data-name="White space"><rect class="cls-2" width="64" height="64"/></g></svg>