<svg xmlns="http://www.w3.org/2000/svg" viewBox="0 0 64 64"><defs><style>.cls-1{fill:none;}</style></defs><title>TC</title><g id="ARTWORK"><path d="M51.06787,26.92676,21.15527,10.15332A6.00067,6.00067,0,0,0,12,15.25684V48.74316a5.9228,5.9228,0,0,0,3.10352,5.25391,5.92522,5.92522,0,0,0,6.05175-.15039L50.978,37.126l.08984-.05274a6.00072,6.00072,0,0,0,0-10.14648ZM48.96875,33.667l-29.811,16.71387-.08984.05273A2,2,0,0,1,16,48.74316V15.25684a1.96073,1.96073,0,0,1,1.03467-1.751,2.075,2.075,0,0,1,.98-.25684,1.94514,1.94514,0,0,1,1.05322.31739L48.96875,30.333a1.99991,1.99991,0,0,1,0,3.334Z"/></g><g id="White_space" data-name="White space"><rect class="cls-1" width="64" height="64"/></g></svg>