<svg xmlns="http://www.w3.org/2000/svg" viewBox="0 0 64 64"><defs><style>.cls-1{fill:#fff;}.cls-2{fill:none;}</style></defs><title>TC_</title><g id="ARTWORK"><path class="cls-1" d="M54,40a5.97921,5.97921,0,0,0-4.29309,1.81689L45.0686,39.676a17.89894,17.89894,0,0,0-5.903-19.76807l2.53369-4.054a6.01534,6.01534,0,1,0-3.38959-2.12237L35.77332,17.79A17.96609,17.96609,0,0,0,14.56537,45.93781l-2.26868,2.521A6.0024,6.0024,0,1,0,15.27,51.13446l2.26568-2.5177A17.92133,17.92133,0,0,0,43.381,43.30151l4.647,2.14478C48.01123,45.62891,48,45.81311,48,46a6,6,0,1,0,6-6ZM43,8a2,2,0,1,1-2,2A2.00229,2.00229,0,0,1,43,8ZM28,20A13.998,13.998,0,0,1,40.88959,39.46191c-.07837-.15338-.142-.31353-.22846-.46289a10.01954,10.01954,0,0,0-5.12756-4.33337,8,8,0,1,0-15.07-.00775,10.04284,10.04284,0,0,0-5.35815,4.79364A13.99922,13.99922,0,0,1,28,20Zm0,16a4,4,0,1,1,4-4A4.00427,4.00427,0,0,1,28,36ZM10,56a2,2,0,1,1,2-2A2.00229,2.00229,0,0,1,10,56Zm18-8a13.9525,13.9525,0,0,1-9.98944-4.20911,6.0044,6.0044,0,0,1,4.84021-5.67773,7.97071,7.97071,0,0,0,10.28772.00976,5.93979,5.93979,0,0,1,4.848,5.67121A13.95228,13.95228,0,0,1,28,48Zm26,0a2,2,0,1,1,2-2A2.00229,2.00229,0,0,1,54,48Z"/></g><g id="White_space" data-name="White space"><rect class="cls-2" width="64" height="64"/></g></svg>