<svg xmlns="http://www.w3.org/2000/svg" viewBox="0 0 64 64"><defs><style>.cls-1{fill:#fff;}.cls-2{fill:none;}</style></defs><title>TC</title><g id="ARTWORK"><path class="cls-1" d="M32,46A12.01343,12.01343,0,0,0,44,34V16a12,12,0,0,0-24,0V34A12.01343,12.01343,0,0,0,32,46ZM32,8a8.00917,8.00917,0,0,1,8,8V34a8,8,0,0,1-16,0V30h6a2,2,0,0,0,0-4H24V22h6a2,2,0,0,0,0-4H24V16A8.00917,8.00917,0,0,1,32,8ZM49.91992,42.88965A19.87361,19.87361,0,0,1,34,53.89014V58a2,2,0,0,1-4,0V53.89014A19.87361,19.87361,0,0,1,14.08008,42.88965a1.9998,1.9998,0,1,1,3.582-1.7793,16.00743,16.00743,0,0,0,28.67578,0,1.9998,1.9998,0,1,1,3.582,1.7793Z"/></g><g id="White_space" data-name="White space"><rect class="cls-2" width="64" height="64"/></g></svg>