<svg xmlns="http://www.w3.org/2000/svg" viewBox="0 0 64 64"><defs><style>.cls-1{fill:none;}</style></defs><title>TC</title><g id="ARTWORK"><path d="M38.3457,4.11328a3.97623,3.97623,0,0,0-3.02929,1.0083A4.02085,4.02085,0,0,0,34,8.09424V30H55.89941a4.03177,4.03177,0,0,0,2.97852-1.31934,3.94271,3.94271,0,0,0,1.00879-3.02587V25.6543A24.019,24.019,0,0,0,38.3457,4.11328ZM37.99609,26,37.959,8.09473A20.01047,20.01047,0,0,1,55.90137,26Zm5.89063,10H28V20.11328a4.02978,4.02978,0,0,0-1.33691-2.99463,3.9448,3.9448,0,0,0-3.05176-.99023,22.00112,22.00112,0,0,0,1.207,43.84033q.58887.0315,1.1709.03076A22.00773,22.00773,0,0,0,47.87109,40.38867a3.944,3.944,0,0,0-.99023-3.05224A4.03,4.03,0,0,0,43.88672,36ZM25.02734,55.97461A18.00128,18.00128,0,0,1,24,20.10986V36a4.00427,4.00427,0,0,0,4,4l15.89453-.041A18.03625,18.03625,0,0,1,25.02734,55.97461Z"/></g><g id="White_space" data-name="White space"><rect class="cls-1" width="64" height="64"/></g></svg>