<svg xmlns="http://www.w3.org/2000/svg" viewBox="0 0 64 64"><defs><style>.cls-1{fill:none;}</style></defs><title>TC</title><g id="ARTWORK"><path d="M40.82812,40a4.00206,4.00206,0,0,0-5.65624,0L32,43.17188,20.82812,32,24,28.82812a4.00384,4.00384,0,0,0,0-5.65624L16.82812,16a4.00206,4.00206,0,0,0-5.65624,0L9.89941,17.27246a18.01883,18.01883,0,0,0,0,25.45508l11.373,11.373a18.01941,18.01941,0,0,0,25.45508,0L48,52.82812a4.00384,4.00384,0,0,0,0-5.65624Zm3.07129,11.27246a14.01494,14.01494,0,0,1-19.79882,0l-11.37305-11.373a14.01672,14.01672,0,0,1,0-19.79882L14,18.82812,21.17188,26,18,29.17188a4.00384,4.00384,0,0,0,0,5.65624L29.17188,46a4.00206,4.00206,0,0,0,5.65624,0L38,42.82812,45.17188,50ZM58,30a2,2,0,0,1-4,0A20.02229,20.02229,0,0,0,34,10a2,2,0,0,1,0-4A24.0275,24.0275,0,0,1,58,30Zm-8,0a2,2,0,0,1-4,0A12.01312,12.01312,0,0,0,34,18a2,2,0,0,1,0-4A16.01833,16.01833,0,0,1,50,30ZM34,26a2,2,0,0,1,0-4,8.00917,8.00917,0,0,1,8,8,2,2,0,0,1-4,0A4.004,4.004,0,0,0,34,26Z"/></g><g id="White_space" data-name="White space"><rect class="cls-1" width="64" height="64"/></g></svg>