<svg xmlns="http://www.w3.org/2000/svg" viewBox="0 0 64 64"><defs><style>.cls-1{fill:none;}</style></defs><title>TC</title><g id="ARTWORK"><path d="M18,40a2,2,0,1,1,2,2A2,2,0,0,1,18,40Zm-2,2a2,2,0,1,0,2,2A2,2,0,0,0,16,42Zm8,0a2,2,0,1,0,2,2A2,2,0,0,0,24,42Zm-4,4a2,2,0,1,0,2,2A2,2,0,0,0,20,46ZM38,32a6,6,0,1,1-6-6A6.00657,6.00657,0,0,1,38,32Zm-4,0a2,2,0,1,0-2,2A2.0026,2.0026,0,0,0,34,32ZM44,4a2,2,0,0,0,0,4A12.01312,12.01312,0,0,1,56,20a2,2,0,0,0,4,0A16.01833,16.01833,0,0,0,44,4Zm0,8a2,2,0,0,0,0,4,4.004,4.004,0,0,1,4,4,2,2,0,0,0,4,0A8.00917,8.00917,0,0,0,44,12Zm1.67188,12.84375a8.00771,8.00771,0,0,1,0,11.3125L25.41406,56.41406A12.60638,12.60638,0,0,1,7.58594,38.58594L27.84375,18.32812a8.00771,8.00771,0,0,1,11.3125,0Zm-2.82813,2.82813-6.51563-6.51563a4.00561,4.00561,0,0,0-5.65624,0L10.41406,41.41406A8.60682,8.60682,0,0,0,22.58594,53.58594L42.84375,33.32812A4.00384,4.00384,0,0,0,42.84375,27.67188Z"/></g><g id="White_space" data-name="White space"><rect class="cls-1" width="64" height="64"/></g></svg>