<svg xmlns="http://www.w3.org/2000/svg" viewBox="0 0 64 64"><defs><style>.cls-1{fill:none;}</style></defs><title>TC</title><g id="ARTWORK"><path d="M49.65674,16.82812,39.17236,6.34375A7.94942,7.94942,0,0,0,33.51465,4H20a8.00917,8.00917,0,0,0-8,8V52a8.00917,8.00917,0,0,0,8,8H44a8.00917,8.00917,0,0,0,8-8V22.48535A7.95253,7.95253,0,0,0,49.65674,16.82812ZM48,52a4.00427,4.00427,0,0,1-4,4H20a4.00427,4.00427,0,0,1-4-4V12a4.00427,4.00427,0,0,1,4-4H33.51465a3.97211,3.97211,0,0,1,2.82861,1.17188L46.82764,19.65625A3.97538,3.97538,0,0,1,48,22.48535ZM44,38A12,12,0,1,1,32,26h1.17157l-2.58563-2.58594a1.99978,1.99978,0,0,1,2.82812-2.82812l6,6a1.99926,1.99926,0,0,1,0,2.82812l-6,6a1.99978,1.99978,0,0,1-2.82812-2.82812L33.17157,30H32a8,8,0,1,0,8,8,2,2,0,0,1,4,0Z"/></g><g id="White_space" data-name="White space"><rect class="cls-1" width="64" height="64"/></g></svg>