<svg xmlns="http://www.w3.org/2000/svg" viewBox="0 0 64 64"><defs><style>.cls-1{fill:none;}</style></defs><title>TC</title><g id="ARTWORK"><path d="M47,50a2,2,0,1,1,2,2A2,2,0,0,1,47,50ZM60,20V54a4.004,4.004,0,0,1-4,4H42a4.004,4.004,0,0,1-4-4V40a2,2,0,0,1,4,0v2H56V20H42v4a2,2,0,0,1-4,0V20a4.004,4.004,0,0,1,4-4H56A4.004,4.004,0,0,1,60,20ZM56,46H42v8H56ZM38.02637,30.01562,35.165,25.00781a1.99982,1.99982,0,1,0-3.47266,1.98438L34.55371,32H26.82812l.58594-.58594a1.99978,1.99978,0,0,0-2.82812-2.82812l-4,4a1.98242,1.98242,0,0,0-.3161.4273c-.02106.03693-.04.07343-.05866.11145a1.99128,1.99128,0,0,0-.16907.47486l-.00378.01282a2.00229,2.00229,0,0,0-.02612.51495c.00262.04132.00659.08136.01178.12262a1.9857,1.9857,0,0,0,.12738.51178l.001.0039L20.161,34.78a1.99171,1.99171,0,0,0,.25977.43188c.02856.03717.05694.0727.08789.10761.02722.03076.04785.06512.07727.09454l4,4a1.99978,1.99978,0,0,0,2.82812-2.82812L26.82812,36h7.72559a4.00016,4.00016,0,0,0,3.47266-5.98438ZM16,32H9.44629l4.0708-7.124.58545,1.75683a2.0002,2.0002,0,0,0,3.79492-1.26562l-2-6c-.01416-.0423-.03705-.07874-.05365-.11945a1.53693,1.53693,0,0,0-.18915-.35718c-.0346-.05169-.06878-.10272-.1084-.1513a1.97054,1.97054,0,0,0-.14959-.16034c-.03888-.03821-.07678-.07648-.1192-.11176a2.0046,2.0046,0,0,0-.20685-.14758c-.02741-.01746-.04993-.03961-.07843-.05591-.01184-.00677-.02466-.00982-.03662-.01636a1.996,1.996,0,0,0-.246-.10955c-.03949-.01508-.078-.03321-.11792-.0456a1.973,1.973,0,0,0-.25445-.05645c-.04218-.00721-.08374-.01789-.1261-.02234a1.97915,1.97915,0,0,0-.24481-.00537c-.04913.00091-.098-.00129-.14679.00323a2.002,2.002,0,0,0-.20905.036c-.0625.01251-.12451.0238-.18548.04218-.01923.00586-.03864.00665-.0578.01312l-6,2a2.0002,2.0002,0,0,0,1.26562,3.79492L9.6665,23.553,5.97363,30.01562A4.00016,4.00016,0,0,0,9.44629,36H16a2,2,0,0,0,0-4Zm9.66626-15.553-1.03345-.34442a2.0002,2.0002,0,0,0-1.26562,3.79492l6,2c.0188.00629.03772.0036.05658.00928a1.99934,1.99934,0,0,0,.53973.08826c.01209.00024.02442.006.0365.006.00873,0,.01672-.00391.02545-.004a1.98618,1.98618,0,0,0,.53473-.084,2908.4315,2908.4315,0,0,1,.432-.17663c.03784-.02161.06817-.0506.10406-.07422.039-.02564.0755-.052.11267-.08038a1.99118,1.99118,0,0,0,.38593-.37561c.00744-.00989.01221-.02155.01953-.03156a1.99117,1.99117,0,0,0,.25238-.483c.00787-.02124.0235-.03705.0307-.05872l2-6a2.0002,2.0002,0,1,0-3.79492-1.26562l-.58551,1.757L25.47266,8.04688a3.99928,3.99928,0,0,0-6.94532,0l-2.835,4.96093A1.99982,1.99982,0,0,0,19.165,14.99219L22,10.03125Z"/></g><g id="White_space" data-name="White space"><rect class="cls-1" width="64" height="64"/></g></svg>