<svg xmlns="http://www.w3.org/2000/svg" viewBox="0 0 64 64"><defs><style>.cls-1{fill:none;}</style></defs><title>TC</title><g id="ARTWORK"><path d="M54.627,48.03125A7.92452,7.92452,0,0,1,47.7168,52H38.82812l2.58594,2.58594a1.99978,1.99978,0,1,1-2.82812,2.82812l-6-6c-.02979-.02972-.05054-.06445-.07813-.09552-.03027-.0343-.0581-.069-.08618-.10553a1.98779,1.98779,0,0,1-.26318-.43774l-.00611-.01013-.00073-.00275a1.98878,1.98878,0,0,1-.12768-.51263c-.00513-.0412-.009-.08118-.01172-.12244a2.00031,2.00031,0,0,1,.02612-.515l.00378-.01275a1.98861,1.98861,0,0,1,.16907-.475c.01856-.038.0376-.07446.0586-.11139a1.9829,1.9829,0,0,1,.31616-.42724l6-6a1.99978,1.99978,0,0,1,2.82812,2.82812L38.82812,48H47.7168a3.99988,3.99988,0,0,0,3.48242-5.96777L46.085,32.98438a2.0002,2.0002,0,0,1,3.48242-1.96876l5.11426,9.04786A7.92546,7.92546,0,0,1,54.627,48.03125Zm-33.78515-24.29a1.99921,1.99921,0,0,0,2.72558-.75732l4.9502-8.7583a4.00056,4.00056,0,0,1,6.96484-.00049L41.00684,24H38a2,2,0,0,0,0,4h8a2.0001,2.0001,0,0,0,2-2V18a2,2,0,0,0-4,0v3.1662l-5.03516-8.90936a8.00088,8.00088,0,0,0-13.92968.00048L20.085,21.01611A2.00086,2.00086,0,0,0,20.8418,23.74121ZM28,48H16.2832a3.99988,3.99988,0,0,1-3.48242-5.96777L18,32.83459V36a2,2,0,0,0,4,0V28a2.0001,2.0001,0,0,0-2-2H12a2,2,0,0,0,0,4h3.00708L9.31836,40.06348A8.00025,8.00025,0,0,0,16.2832,52H28a2,2,0,0,0,0-4Z"/></g><g id="White_space" data-name="White space"><rect class="cls-1" width="64" height="64"/></g></svg>