<svg xmlns="http://www.w3.org/2000/svg" viewBox="0 0 64 64"><defs><style>.cls-1{fill:#fff;}.cls-2{fill:none;}</style></defs><title>TC</title><g id="ARTWORK"><path class="cls-1" d="M52,32H12a8.00917,8.00917,0,0,0-8,8v6a8.00917,8.00917,0,0,0,8,8H52a8.00917,8.00917,0,0,0,8-8V40A8.00917,8.00917,0,0,0,52,32Zm4,14a4.004,4.004,0,0,1-4,4H12a4.004,4.004,0,0,1-4-4V40a4.004,4.004,0,0,1,4-4H52a4.004,4.004,0,0,1,4,4ZM30,43a2.0001,2.0001,0,0,1-2,2H16a2,2,0,0,1,0-4H28A2.0001,2.0001,0,0,1,30,43Zm12,0a2,2,0,1,1-2-2A2.00006,2.00006,0,0,1,42,43Zm8,0a2,2,0,1,1-2-2A2.00006,2.00006,0,0,1,50,43ZM15.543,16.84766a2.00008,2.00008,0,0,1,.21484-2.82032,24.898,24.898,0,0,1,32.48438,0,2,2,0,0,1-2.60547,3.03516,20.89768,20.89768,0,0,0-27.27344,0A2.00082,2.00082,0,0,1,15.543,16.84766ZM32,18a11.8217,11.8217,0,0,1,8.416,3.48633,2.00048,2.00048,0,0,1-2.83008,2.82812,7.89808,7.89808,0,0,0-11.17188,0A2.00048,2.00048,0,1,1,23.584,21.48633,11.8217,11.8217,0,0,1,32,18Z"/></g><g id="White_space" data-name="White space"><rect class="cls-2" width="64" height="64"/></g></svg>