<svg xmlns="http://www.w3.org/2000/svg" viewBox="0 0 64 64"><defs><style>.cls-1{fill:none;}</style></defs><title>TC</title><g id="ARTWORK"><path d="M59.42676,15.74707a4.00257,4.00257,0,0,0-6.6875-1.74951L45.3916,21.34473a2.04273,2.04273,0,0,1-3.13086-.29395,2.19488,2.19488,0,0,1,.40821-2.75293L49.7666,11.2002a4.02343,4.02343,0,0,0,1.03125-3.90137A3.92524,3.92524,0,0,0,47.958,4.49756,15.97556,15.97556,0,0,0,28.65918,24.50977L6.36621,46.75732a7.84758,7.84758,0,0,0-.67383,10.44776,7.6937,7.6937,0,0,0,5.55078,2.78662c.12012.00537.24122.0083.36133.0083a7.67387,7.67387,0,0,0,5.417-2.24121l22.4668-22.42041A15.9644,15.9644,0,0,0,59.81543,22.4541,16.08475,16.08475,0,0,0,59.42676,15.74707Zm-3.56641,6.11377A11.96794,11.96794,0,0,1,39.67773,31.1792l-1.21289-.46973L14.19434,54.9292a3.69635,3.69635,0,0,1-2.76172,1.06689A3.6373,3.6373,0,0,1,8.77637,54.6582a3.81877,3.81877,0,0,1,.417-5.07129L33.29,25.54l-.4707-1.21631a11.97306,11.97306,0,0,1,9.21484-16.1665,12.50412,12.50412,0,0,1,1.9668-.15772,11.66195,11.66195,0,0,1,2.9375.37207l-7.09766,7.09766a6.14845,6.14845,0,0,0-.84961,7.88476,6.04121,6.04121,0,0,0,9.22852.81934l7.34863-7.36963.002.00635A12.11634,12.11634,0,0,1,55.86035,21.86084ZM14,52a2,2,0,1,1-2-2A2.00006,2.00006,0,0,1,14,52Z"/></g><g id="White_space" data-name="White space"><rect class="cls-1" width="64" height="64"/></g></svg>