<svg xmlns="http://www.w3.org/2000/svg" viewBox="0 0 64 64"><defs><style>.cls-1{fill:none;}</style></defs><title>TC</title><g id="ARTWORK"><path d="M40,32H24a4.00427,4.00427,0,0,0-4,4V48a4.00427,4.00427,0,0,0,4,4H40a4.00427,4.00427,0,0,0,4-4V36A4.00427,4.00427,0,0,0,40,32Zm.001,8H34V36h6ZM24,36h6V48H24ZM34,48V44h6.002l.001,4ZM49.65625,16.82861,39.17188,6.34229A7.95562,7.95562,0,0,0,33.51465,4H20a8.00917,8.00917,0,0,0-8,8V52a8.00917,8.00917,0,0,0,8,8H44a8.00917,8.00917,0,0,0,8-8V22.48535A7.94552,7.94552,0,0,0,49.65625,16.82861ZM48,52a4.00427,4.00427,0,0,1-4,4H20a4.00427,4.00427,0,0,1-4-4V12a4.00427,4.00427,0,0,1,4-4H33.51465a3.97848,3.97848,0,0,1,2.8291,1.17139L46.82812,19.65771A3.96821,3.96821,0,0,1,48,22.48535Z"/></g><g id="White_space" data-name="White space"><rect class="cls-1" width="64" height="64"/></g></svg>