<svg xmlns="http://www.w3.org/2000/svg" viewBox="0 0 64 64"><defs><style>.cls-1{fill:#fff;}.cls-2{fill:none;}</style></defs><title>TC</title><g id="ARTWORK"><path class="cls-1" d="M49.93378,13.23938l1.61407-1.97278a2,2,0,0,0-3.0957-2.5332L36,23.9527V14.82812A3.99988,3.99988,0,0,0,29.17188,12l-10,10H16a8.00917,8.00917,0,0,0-8,8v4a8.00917,8.00917,0,0,0,8,8h3.17188L20.306,43.13416,12.45215,52.7334a2,2,0,0,0,3.0957,2.5332l7.60077-9.28985L29.17188,52A3.99988,3.99988,0,0,0,36,49.17188V30.26953l5.79315-7.0805A17.75933,17.75933,0,0,1,44,32a16.60348,16.60348,0,0,1-3.51953,10.69922,2.00025,2.00025,0,0,0,3.03906,2.60156A20.636,20.636,0,0,0,48,32a21.28154,21.28154,0,0,0-3.538-12.07294l2.87207-3.51031A26.58956,26.58956,0,0,1,52,32c0,6.51562-2.01172,12.60156-5.51953,16.69922a2.00025,2.00025,0,0,0,3.03906,2.60156C53.6377,46.48926,56,39.45508,56,32,56,24.80914,53.78516,18.03021,49.93378,13.23938ZM20.82812,38H16a4.004,4.004,0,0,1-4-4V30a4.004,4.004,0,0,1,4-4h4.82812L32,14.82812V28.84155l-9.14862,11.1817ZM32,49.17188l-6.306-6.306L32,35.15845Z"/></g><g id="White_space" data-name="White space"><rect class="cls-2" width="64" height="64"/></g></svg>