<svg xmlns="http://www.w3.org/2000/svg" viewBox="0 0 64 64"><defs><style>.cls-1{fill:#fff;}.cls-2{fill:none;}</style></defs><title>TC</title><g id="ARTWORK"><path class="cls-1" d="M24.30884,40.75116V29.37689L21.4223,30.69775a.98055.98055,0,0,1-.39129.09784q-.61158,0-1.1742-.88055A1.94927,1.94927,0,0,1,19.49,29.01q0-.68454,1.1496-1.22308L25.67853,25.512a2.70391,2.70391,0,0,1,1.07623-.22015q.95416,0,.954.88055V40.04175a3.30928,3.30928,0,0,1-.53808,1.83465,1.47616,1.47616,0,0,1-1.1742.83161q-.61165,0-1.272-.95392A2.05788,2.05788,0,0,1,24.30884,40.75116Zm7.45074-1.80078a11.19475,11.19475,0,0,1-.74536-4.30194v-1.297c0-3.38837,1.08185-5.91,2.956-7.18365a5.7661,5.7661,0,0,1,3.29249-.93708,5.68878,5.68878,0,0,1,5.52465,3.82074,11.66339,11.66339,0,0,1,.72187,4.3v1.297c0,3.38836-1.05835,5.91-2.9325,7.16015a5.97007,5.97007,0,0,1-8.81714-2.85821Zm2.52362-4.49365c0,3.48419.98407,5.21356,2.9795,5.21356,1.99346,0,2.97753-1.72937,2.97753-5.21356v-.91358c0-3.48425-.98407-5.21362-2.97753-5.21362-1.99543,0-2.9795,1.72937-2.9795,5.21362ZM30,10H18.82812l2.58594-2.58594a1.99978,1.99978,0,1,0-2.82812-2.82812l-6,6a1.98242,1.98242,0,0,0-.3161.4273c-.02106.03693-.04.07343-.05866.11145a1.99128,1.99128,0,0,0-.16907.47486l-.00378.01282a2.00229,2.00229,0,0,0-.02612.51495c.00262.04132.00659.08136.01178.12262a1.9857,1.9857,0,0,0,.12738.51178l.001.0039L12.161,12.78a1.99171,1.99171,0,0,0,.25977.43188c.02856.03717.05694.0727.08789.10761.02722.03076.04785.06512.07727.09454l6,6a1.99978,1.99978,0,0,0,2.82812-2.82812L18.82812,14H30c12.542,0,22,8.59766,22,20a20,20,0,0,1-40,0,2,2,0,0,0-4,0,24,24,0,0,0,48,0C56,20.31738,44.82227,10,30,10Z"/></g><g id="White_space" data-name="White space"><rect class="cls-2" width="64" height="64"/></g></svg>