<svg xmlns="http://www.w3.org/2000/svg" viewBox="0 0 64 64"><defs><style>.cls-1{fill:#fff;}.cls-2{fill:none;}</style></defs><title>TC</title><g id="ARTWORK"><path class="cls-1" d="M53,29a2,2,0,1,1-2-2A2.00006,2.00006,0,0,1,53,29Zm6.999-.12793A9,9,0,0,1,51,38H48.82812L46,40.82812V42a8,8,0,0,1-16,0H22A8,8,0,0,1,6,42a2,2,0,0,1,0-4h.04919c.011-.0498.03022-.096.0448-.14429.002-.05249-.00824-.104-.00415-.15649C7.07031,25.32812,15.62988,16,26,16c6.803,0,12.81036,4.02966,16.42633,10.28345A9.01571,9.01571,0,0,1,51.001,20c.043,0,.084.001.127.001A9.06017,9.06017,0,0,1,59.999,28.87207Zm-23.86322-4.356a1.98578,1.98578,0,0,1-.15338.28077l-3.6076,5.27319L37.13281,38h4.78125A21.64485,21.64485,0,0,0,36.1358,24.51611ZM26,20a13.46819,13.46819,0,0,0-7.11462,2.06726,1.99114,1.99114,0,0,1,.20153.23547L23.04608,28h5.89948l3.73608-5.46094a1.97056,1.97056,0,0,1,.45209-.46142A13.47351,13.47351,0,0,0,26,20ZM10.07971,38h4.78784l4.7519-7.92041-3.81769-5.49365-.00171-.00305A21.71463,21.71463,0,0,0,10.07971,38ZM18,42H10a4,4,0,0,0,8,0Zm14.46716-4-3.6-6H23.13281l-3.60028,6ZM42,42H34a4,4,0,0,0,8,0ZM55.999,28.92871A5.094,5.094,0,0,0,51.07129,24.001C51.04785,24,51.02441,24,51.001,24a5.01936,5.01936,0,0,0-4.88184,3.90625,3.94331,3.94331,0,0,1-1.78937,2.48083,27.58019,27.58019,0,0,1,1.32166,5.13343L46,35.17188A3.97268,3.97268,0,0,1,48.82812,34H51a4.99855,4.99855,0,0,0,4.999-5.07129Z"/></g><g id="White_space" data-name="White space"><rect class="cls-2" width="64" height="64"/></g></svg>