<svg xmlns="http://www.w3.org/2000/svg" viewBox="0 0 64 64"><defs><style>.cls-1{fill:none;}</style></defs><title>TC</title><g id="ARTWORK"><path d="M58.29883,33.4707a6.39269,6.39269,0,0,0-5.13037-1.81591,19.996,19.996,0,1,0-36.99939,3.37805c-.05463.04907-.11676.08673-.16907.139l-10.00049,10A4.00518,4.00518,0,0,0,6,50.82812L13.17139,58a3.99911,3.99911,0,0,0,5.65673,0l2.00049-2H43.17139A3.973,3.973,0,0,0,46,54.82812L58.29883,42.5293A6.41248,6.41248,0,0,0,58.29883,33.4707ZM38,34H29.57245a28.92494,28.92494,0,0,1-.99628-6H39.42053a28.83137,28.83137,0,0,1-.99707,6.03461C38.2818,34.02454,38.14417,34,38,34ZM20.14917,34a15.88015,15.88015,0,0,1-2.01563-6h6.44367a33.888,33.888,0,0,0,.84582,6ZM34,10.34247C36.60614,12.27075,39.02972,17.18994,39.43433,24H28.56567C28.97028,17.18994,31.39386,12.27075,34,10.34247ZM43.4386,28h6.42383a15.84285,15.84285,0,0,1-3.02149,7.50244l-3.12317,2.67725a5.99965,5.99965,0,0,0-1.58722-2.5116A32.80707,32.80707,0,0,0,43.4386,28Zm6.4256-4H43.44244a28.29572,28.29572,0,0,0-3.54693-12.875A16.03813,16.03813,0,0,1,49.8642,24ZM28.10449,11.125A28.29572,28.29572,0,0,0,24.55756,24H18.1358A16.03813,16.03813,0,0,1,28.10449,11.125ZM55.4707,39.70117,43.17139,52h-24L16,55.17188,8.82812,48,18.82861,38H28.0694l.00628.001L28.08734,38H38a1.986,1.986,0,0,1,.759.15161c.0232.01361.04968.02283.07355.03558a1.9962,1.9962,0,0,1-.30566,3.7425A3.96753,3.96753,0,0,1,37.78027,42H28a2,2,0,0,0,0,4H38a5.96686,5.96686,0,0,0,1.43115-.17285,8.00688,8.00688,0,0,0,3.55567-1.75293l9.21679-7.90039a2.40571,2.40571,0,0,1,3.26709,3.52734Z"/></g><g id="White_space" data-name="White space"><rect class="cls-1" width="64" height="64"/></g></svg>