<svg xmlns="http://www.w3.org/2000/svg" viewBox="0 0 64 64"><defs><style>.cls-1{fill:#fff;}.cls-2{fill:none;}</style></defs><title>TC</title><g id="ARTWORK"><path class="cls-1" d="M39.19305,25.23071a5.76607,5.76607,0,0,0-3.29248.93708c-1.87414,1.27362-2.956,3.79528-2.956,7.18365v1.297a11.19475,11.19475,0,0,0,.74536,4.30194,5.97007,5.97007,0,0,0,8.81714,2.85821c1.87415-1.25012,2.9325-3.77179,2.9325-7.16015v-1.297a11.66359,11.66359,0,0,0-.72187-4.3A5.68878,5.68878,0,0,0,39.19305,25.23071Zm2.97754,9.226c0,3.48419-.98407,5.21356-2.97754,5.21356-1.99542,0-2.97949-1.72937-2.97949-5.21356v-.91358c0-3.48425.98407-5.21362,2.97949-5.21362,1.99347,0,2.97754,1.72937,2.97754,5.21362ZM27.49774,37.87415a2.11158,2.11158,0,0,0-.79968-2.2273,3.7344,3.7344,0,0,0-2.27661-.6297H23.3316q-.48477,0-.993-.72662a1.47231,1.47231,0,0,1-.31482-.775q0-.43588.60541-.82348a2.30617,2.30617,0,0,1,1.2594-.38745,3.68266,3.68266,0,0,0,2.21613-.59333,1.86807,1.86807,0,0,0,.81128-1.58642,1.654,1.654,0,0,0-.69007-1.34418,2.7095,2.7095,0,0,0-1.73175-.54492,4.637,4.637,0,0,0-3.29376,1.69543.96041.96041,0,0,1-.654.339,1.46039,1.46039,0,0,1-1.1626-.82342,1.66222,1.66222,0,0,1-.339-.87189.89889.89889,0,0,1,.14539-.46021,6.30536,6.30536,0,0,1,2.39758-2.13128,6.78253,6.78253,0,0,1,3.22119-.82343,5.87119,5.87119,0,0,1,2.72473.62891,4.90772,4.90772,0,0,1,1.90106,1.65643,3.98271,3.98271,0,0,1,.67823,2.23682,3.88974,3.88974,0,0,1-.53284,1.98334A4.78294,4.78294,0,0,1,28.006,33.26123,5.02626,5.02626,0,0,1,30.07672,34.971a4.11725,4.11725,0,0,1,.76288,2.38861,4.67451,4.67451,0,0,1-.92035,2.80078,6.22229,6.22229,0,0,1-2.37341,1.97644,7.029,7.029,0,0,1-3.10022.70312,7.16513,7.16513,0,0,1-3.4148-.82348,5.31382,5.31382,0,0,1-2.27661-2.17969,1.81975,1.81975,0,0,1-.19379-.65387q0-.50867.7024-.96881a2.69346,2.69346,0,0,1,1.50158-.46014.824.824,0,0,1,.75086.33905,4.40906,4.40906,0,0,0,1.39245,1.27148,3.48136,3.48136,0,0,0,1.68329.3996,3.10734,3.10734,0,0,0,2.57-1.13367A1.66687,1.66687,0,0,0,27.49774,37.87415ZM56,34A24,24,0,0,1,8,34C8,20.31738,19.17773,10,34,10H45.17188L42.58594,7.41406a1.99978,1.99978,0,0,1,2.82812-2.82812l6,6a1.98242,1.98242,0,0,1,.3161.4273c.02106.03693.04.07343.05866.11145a1.99128,1.99128,0,0,1,.16907.47486l.00378.01282a2.00229,2.00229,0,0,1,.02612.51495c-.00262.04132-.00659.08136-.01178.12262a1.9857,1.9857,0,0,1-.12738.51178l-.001.0039L51.839,12.78a1.99171,1.99171,0,0,1-.25977.43188c-.02856.03717-.05694.0727-.08789.10761-.02722.03076-.04785.06512-.07727.09454l-6,6a1.99978,1.99978,0,0,1-2.82812-2.82812L45.17188,14H34c-12.542,0-22,8.59766-22,20a20,20,0,0,0,40,0,2,2,0,0,1,4,0Z"/></g><g id="White_space" data-name="White space"><rect class="cls-2" width="64" height="64"/></g></svg>