<svg xmlns="http://www.w3.org/2000/svg" viewBox="0 0 64 64"><defs><style>.cls-1{fill:#fff;}.cls-2{fill:none;}</style></defs><title>TC</title><g id="ARTWORK"><path class="cls-1" d="M12,34a2.0001,2.0001,0,0,1-2-2A21.99783,21.99783,0,0,1,48,16.90363V12a2,2,0,0,1,4,0V22a2.0001,2.0001,0,0,1-2,2H40a2,2,0,0,1,0-4h5.41327A17.99783,17.99783,0,0,0,14,32,2.0001,2.0001,0,0,1,12,34Zm40-4a2.0001,2.0001,0,0,0-2,2A17.99783,17.99783,0,0,1,18.58673,44H24a2,2,0,0,0,0-4H14a2.0001,2.0001,0,0,0-2,2V52a2,2,0,0,0,4,0V47.09637A21.99783,21.99783,0,0,0,54,32,2.0001,2.0001,0,0,0,52,30Z"/></g><g id="White_space" data-name="White space"><rect class="cls-2" width="64" height="64"/></g></svg>