<svg xmlns="http://www.w3.org/2000/svg" viewBox="0 0 64 64"><defs><style>.cls-1{fill:#fff;}.cls-2{fill:none;}</style></defs><title>TC</title><g id="ARTWORK"><path class="cls-1" d="M46,6H18a8.00917,8.00917,0,0,0-8,8V50a8.00917,8.00917,0,0,0,8,8H46a8.00917,8.00917,0,0,0,8-8V14A8.00917,8.00917,0,0,0,46,6Zm4,44a4.004,4.004,0,0,1-4,4H18a4.004,4.004,0,0,1-4-4V42H50Zm0-12H14V26H50ZM14,22V14a4.004,4.004,0,0,1,4-4H46a4.004,4.004,0,0,1,4,4v8Zm14-6a2.0001,2.0001,0,0,1-2,2H20a2,2,0,0,1,0-4h6A2.0001,2.0001,0,0,1,28,16ZM18,32a2.0001,2.0001,0,0,1,2-2h6a2,2,0,0,1,0,4H20A2.0001,2.0001,0,0,1,18,32Zm0,16a2.0001,2.0001,0,0,1,2-2h6a2,2,0,0,1,0,4H20A2.0001,2.0001,0,0,1,18,48Z"/></g><g id="White_space" data-name="White space"><rect class="cls-2" width="64" height="64"/></g></svg>