<svg xmlns="http://www.w3.org/2000/svg" viewBox="0 0 64 64"><defs><style>.cls-1{fill:#fff;}.cls-2{fill:none;}</style></defs><title>TC</title><g id="ARTWORK"><path class="cls-1" d="M39.19305,42.7691a5.66423,5.66423,0,0,0,3.314-.96057c1.87414-1.25006,2.93249-3.77173,2.93249-7.16009v-1.297a11.66382,11.66382,0,0,0-.72186-4.3,5.6886,5.6886,0,0,0-5.5246-3.82068,5.76561,5.76561,0,0,0-3.29248.93708c-1.87414,1.27356-2.956,3.79522-2.956,7.18359v1.297a11.195,11.195,0,0,0,.74536,4.30194A5.64008,5.64008,0,0,0,39.19305,42.7691Zm-2.97949-9.226c0-3.48419.98407-5.21356,2.97949-5.21356,1.99347,0,2.97748,1.72937,2.97748,5.21356v.91358c0,3.48419-.984,5.21356-2.97748,5.21356-1.99542,0-2.97949-1.72937-2.97949-5.21356Zm-8.71582,4.331a2.11158,2.11158,0,0,0-.79968-2.2273,3.7344,3.7344,0,0,0-2.27661-.6297H23.33167q-.48487,0-.993-.72662a1.47183,1.47183,0,0,1-.31482-.775q0-.436.60541-.82354a2.30588,2.30588,0,0,1,1.2594-.38745,3.68246,3.68246,0,0,0,2.21607-.59333,1.868,1.868,0,0,0,.81128-1.58636,1.65406,1.65406,0,0,0-.69007-1.34424,2.70941,2.70941,0,0,0-1.73169-.54486,4.63706,4.63706,0,0,0-3.29382,1.69537.96.96,0,0,1-.654.339,1.46052,1.46052,0,0,1-1.1626-.82336,1.66218,1.66218,0,0,1-.339-.872.89867.89867,0,0,1,.14539-.46014,6.30494,6.30494,0,0,1,2.39758-2.13135A6.7828,6.7828,0,0,1,24.809,25.16a5.87189,5.87189,0,0,1,2.72473.62885,4.9082,4.9082,0,0,1,1.90106,1.65643,3.98285,3.98285,0,0,1,.67823,2.23682,3.88974,3.88974,0,0,1-.53284,1.98334A4.78239,4.78239,0,0,1,28.006,33.26123,5.02626,5.02626,0,0,1,30.07672,34.971a4.11712,4.11712,0,0,1,.76288,2.38861,4.67451,4.67451,0,0,1-.92035,2.80078,6.22345,6.22345,0,0,1-2.37341,1.97644,7.02974,7.02974,0,0,1-3.10016.70312,7.165,7.165,0,0,1-3.4148-.82348,5.31315,5.31315,0,0,1-2.27661-2.17969,1.81865,1.81865,0,0,1-.19378-.65393q0-.50866.70239-.96881a2.69326,2.69326,0,0,1,1.50159-.46008.824.824,0,0,1,.75079.339,4.40886,4.40886,0,0,0,1.39252,1.27154,3.48164,3.48164,0,0,0,1.68328.3996,3.1073,3.1073,0,0,0,2.57-1.13367A1.66715,1.66715,0,0,0,27.49774,37.87415ZM56,34A24,24,0,0,1,8,34a2,2,0,0,1,4,0,20,20,0,0,0,40,0c0-11.40234-9.458-20-22-20H18.82812l2.58594,2.58594a1.99978,1.99978,0,1,1-2.82812,2.82812l-6-6c-.02942-.02942-.05005-.06378-.07727-.09454-.031-.03491-.05933-.07044-.08789-.10761A1.99171,1.99171,0,0,1,12.161,12.78l-.00867-.01441-.001-.0039a1.9857,1.9857,0,0,1-.12738-.51178c-.00519-.04126-.00916-.0813-.01178-.12262a2.00229,2.00229,0,0,1,.02612-.51495l.00378-.01282a1.99128,1.99128,0,0,1,.16907-.47486c.01862-.038.0376-.07452.05866-.11145a1.98242,1.98242,0,0,1,.3161-.4273l6-6a1.99978,1.99978,0,1,1,2.82812,2.82812L18.82812,10H30C44.82227,10,56,20.31738,56,34Z"/></g><g id="White_space" data-name="White space"><rect class="cls-2" width="64" height="64"/></g></svg>