<svg xmlns="http://www.w3.org/2000/svg" viewBox="0 0 64 64"><defs><style>.cls-1{fill:#fff;}.cls-2{fill:none;}</style></defs><title>TC</title><g id="ARTWORK"><path class="cls-1" d="M32,6A26,26,0,1,0,58,32,26.02916,26.02916,0,0,0,32,6Zm0,48A22,22,0,1,1,54,32,22.02489,22.02489,0,0,1,32,54ZM47.3374,36.57031a16.00541,16.00541,0,0,1-30.6748,0,2,2,0,1,1,3.834-1.14062,12.00533,12.00533,0,0,0,23.00684,0,2,2,0,0,1,3.834,1.14062ZM21,26a3,3,0,1,1,3,3A3,3,0,0,1,21,26Zm16,0a3,3,0,1,1,3,3A3,3,0,0,1,37,26Z"/></g><g id="White_space" data-name="White space"><rect class="cls-2" width="64" height="64"/></g></svg>