<svg xmlns="http://www.w3.org/2000/svg" viewBox="0 0 64 64"><defs><style>.cls-1{fill:#fff;}.cls-2{fill:none;}</style></defs><title>TC</title><g id="ARTWORK"><path class="cls-1" d="M46,24h-.00964L45.957,17.13477l-.00488-.13184a14.00987,14.00987,0,0,0-27.94727,0l-.03729,6.99872A8.0082,8.0082,0,0,0,10,32V50a8.00917,8.00917,0,0,0,8,8H46a8.00917,8.00917,0,0,0,8-8V32A8.00917,8.00917,0,0,0,46,24ZM32,8a10.00891,10.00891,0,0,1,9.957,9.22363L41.99017,24H21.96686L22,17.22363A10.04934,10.04934,0,0,1,32,8ZM50,50a4.004,4.004,0,0,1-4,4H18a4.004,4.004,0,0,1-4-4V32a4.004,4.004,0,0,1,4-4H46a4.004,4.004,0,0,1,4,4ZM34,40v6a2,2,0,0,1-4,0V40a2,2,0,0,1,4,0Z"/></g><g id="White_space" data-name="White space"><rect class="cls-2" width="64" height="64"/></g></svg>