<svg xmlns="http://www.w3.org/2000/svg" viewBox="0 0 64 64"><defs><style>.cls-1{fill:none;}</style></defs><title>TC</title><g id="ARTWORK"><path d="M48,16H44a12,12,0,0,0-24,0H16a4.004,4.004,0,0,0-4,4V54a4.004,4.004,0,0,0,4,4H48a4.004,4.004,0,0,0,4-4V20A4.004,4.004,0,0,0,48,16ZM32,8a8.00917,8.00917,0,0,1,8,8H24A8.00917,8.00917,0,0,1,32,8ZM48,54H16V20l4-.00024V24a2,2,0,0,0,4,0V19.99951l16-.001V24a2,2,0,0,0,4,0V19.99829l4-.00024Z"/></g><g id="White_space" data-name="White space"><rect class="cls-1" width="64" height="64"/></g></svg>