<svg xmlns="http://www.w3.org/2000/svg" viewBox="0 0 64 64"><defs><style>.cls-1{fill:none;}</style></defs><title>TC</title><g id="ARTWORK"><path d="M45.61316,30.36481a16.04628,16.04628,0,1,0-3.09454,3.66144A14.00574,14.00574,0,0,1,56,48v2a4.00427,4.00427,0,0,1-4,4H12a4.00427,4.00427,0,0,1-4-4V48a14.05666,14.05666,0,0,1,4.76007-10.51965,26.10981,26.10981,0,0,0,15.65338,8.25921,3.98836,3.98836,0,1,0,.28925-3.99975,22.08862,22.08862,0,0,1-14.57184-8.90265l-.00293-.00513A21.84521,21.84521,0,0,1,10,20a2,2,0,0,0-4,0,25.80405,25.80405,0,0,0,4.315,14.31458A18.06653,18.06653,0,0,0,4,48v2a8.00917,8.00917,0,0,0,8,8H52a8.00917,8.00917,0,0,0,8-8V48A18.03079,18.03079,0,0,0,45.61316,30.36481ZM32,34A12,12,0,1,1,44,22,12.01343,12.01343,0,0,1,32,34Z"/></g><g id="White_space" data-name="White space"><rect class="cls-1" width="64" height="64"/></g></svg>