<svg xmlns="http://www.w3.org/2000/svg" viewBox="0 0 64 64"><defs><style>.cls-1{fill:#fff;}.cls-2{fill:none;}</style></defs><title>TC</title><g id="ARTWORK"><path class="cls-1" d="M57.41406,21.41406l-10,10a1.99978,1.99978,0,0,1-2.82812-2.82812L51.17188,22H24a2,2,0,0,1,0-4H51.17188l-6.58594-6.58594a1.99978,1.99978,0,0,1,2.82812-2.82812l10,10A1.99926,1.99926,0,0,1,57.41406,21.41406ZM40,42H12.82812l6.58594-6.58594a1.99978,1.99978,0,0,0-2.82812-2.82812l-10,10a1.99926,1.99926,0,0,0,0,2.82812l10,10a1.99978,1.99978,0,0,0,2.82812-2.82812L12.82812,46H40a2,2,0,0,0,0-4Z"/></g><g id="White_space" data-name="White space"><rect class="cls-2" width="64" height="64"/></g></svg>