<svg xmlns="http://www.w3.org/2000/svg" viewBox="0 0 64 64"><defs><style>.cls-1{fill:none;}</style></defs><title>TC</title><g id="ARTWORK"><path d="M46,32a2.0001,2.0001,0,0,1-2,2H34V44a2,2,0,0,1-4,0V34H20a2,2,0,0,1,0-4H30V20a2,2,0,0,1,4,0V30H44A2.0001,2.0001,0,0,1,46,32ZM56,18V28c0,22.61621-18.70508,28.70117-22.45508,29.69141a6.04035,6.04035,0,0,1-3.0918,0C26.70508,56.70117,8,50.61621,8,28V18a4.00326,4.00326,0,0,1,3.93262-3.999A31.73119,31.73119,0,0,0,29.582,7.38672a3.95006,3.95006,0,0,1,4.83594,0A31.73119,31.73119,0,0,0,52.06738,14.001,4.00326,4.00326,0,0,1,56,18Zm-4,0c-.03809,0-.0752-.001-.11328-.00293a35.71526,35.71526,0,0,1-19.916-7.44629,35.37456,35.37456,0,0,1-19.85742,7.44629C12.0752,17.999,12.03809,18,12,18h-.00293L12,28c0,19.18945,14.90723,24.61719,19.47656,25.82422a2.01673,2.01673,0,0,0,1.04492,0C37.09277,52.61719,52,47.18945,52,28Z"/></g><g id="White_space" data-name="White space"><rect class="cls-1" width="64" height="64"/></g></svg>