<svg xmlns="http://www.w3.org/2000/svg" viewBox="0 0 64 64"><defs><style>.cls-1{fill:none;}</style></defs><title>TC</title><g id="ARTWORK"><path d="M52.06738,14.001A31.73119,31.73119,0,0,1,34.418,7.38672a3.95006,3.95006,0,0,0-4.83594,0A31.73119,31.73119,0,0,1,11.93262,14.001,4.00326,4.00326,0,0,0,8,18V28C8,50.61621,26.70508,56.70117,30.45312,57.69141a6.04035,6.04035,0,0,0,3.0918,0C37.29492,56.70117,56,50.61621,56,28V18A4.00326,4.00326,0,0,0,52.06738,14.001ZM52,28c0,19.18945-14.90723,24.61719-19.47852,25.82422a2.01673,2.01673,0,0,1-1.04492,0C26.90723,52.61719,12,47.18945,12,28l-.00293-10H12c.03809,0,.0752-.001.11328-.00293A35.37456,35.37456,0,0,0,31.9707,10.55078a35.71526,35.71526,0,0,0,19.916,7.44629C51.9248,17.999,51.96191,18,52,18Zm-8.33594-2.89062-12,18a1.99718,1.99718,0,0,1-1.46679.88085A1.91827,1.91827,0,0,1,30,44a2.0005,2.0005,0,0,1-1.41406-.58594l-8-8a1.99978,1.99978,0,0,1,2.82812-2.82812l6.27539,6.27441L40.33594,22.89062a2,2,0,1,1,3.32812,2.21876Z"/></g><g id="White_space" data-name="White space"><rect class="cls-1" width="64" height="64"/></g></svg>