<svg xmlns="http://www.w3.org/2000/svg" viewBox="0 0 64 64"><defs><style>.cls-1{fill:none;}</style></defs><title>TC</title><g id="ARTWORK"><path d="M32,22A10,10,0,1,0,42,32,10.01146,10.01146,0,0,0,32,22Zm0,16a6,6,0,1,1,6-6A6.00657,6.00657,0,0,1,32,38Zm26.65332,1.51172a3.97237,3.97237,0,0,0-1.86816-2.44043L53.74121,35.314a21.35428,21.35428,0,0,0,0-6.6289l3.043-1.75684A4.00239,4.00239,0,0,0,58.252,21.46973l-1.30664-2.25879c-.93457-1.61328-1.96679-3.396-2.6875-4.66016a3.99652,3.99652,0,0,0-5.47558-1.478l-3.05274,1.7627A21.72045,21.72045,0,0,0,40,11.50342V8a4.0022,4.0022,0,0,0-3.99316-4l-2.61133.00244c-1.86328.00244-3.92383.00537-5.377-.00293a3.79864,3.79864,0,0,0-2.83886,1.16113A3.97666,3.97666,0,0,0,24,8v3.50342a21.71415,21.71415,0,0,0-5.73047,3.33252l-3.05566-1.76367a4.004,4.004,0,0,0-5.46,1.459L8.40723,16.86914c-.918,1.59522-1.92481,3.34473-2.64746,4.58008a3.99711,3.99711,0,0,0,1.45507,5.48l3.04395,1.75732a21.35435,21.35435,0,0,0,0,6.62891l-3.043,1.75732a4.00566,4.00566,0,0,0-1.46777,5.45948l1.24121,2.14355c.95215,1.64258,2.0166,3.48047,2.75293,4.772a3.99526,3.99526,0,0,0,5.47363,1.48145L18.27051,49.165a21.73714,21.73714,0,0,0,5.73047,3.332V56a4.00219,4.00219,0,0,0,3.99316,4l2.60352-.00244c1.86718-.00244,3.92968-.00684,5.38574.00293h.02148A3.99766,3.99766,0,0,0,40.001,56V52.49609a21.73235,21.73235,0,0,0,5.72949-3.33154l3.05469,1.76318a4.00375,4.00375,0,0,0,5.46191-1.459l1.21484-2.10937c.95215-1.65479,2.02149-3.51368,2.77832-4.80762A3.96748,3.96748,0,0,0,58.65332,39.51172Zm-3.86621,1.02051c-.76074,1.30078-1.83594,3.16894-2.793,4.83252l-1.209,2.09912-5.55274-3.20606-1.081.99219a17.84329,17.84329,0,0,1-6.75,3.92285l-1.40039.43994.00488,6.3877c-.72852-.0044-1.60742-.00537-2.53906-.00537-.93946,0-1.93262.00146-2.875.00244L28.001,56V49.61426l-1.40039-.44043a17.835,17.835,0,0,1-6.75-3.92334l-1.082-.99219-5.55078,3.21045c-.74023-1.2998-1.81054-3.14746-2.76757-4.79883l-1.23438-2.1333,5.53906-3.19824-.3164-1.43115a17.61674,17.61674,0,0,1,0-7.812l.3164-1.43164-5.542-3.19482c.72656-1.24219,1.73828-3.001,2.66113-4.605l1.34082-2.32715,5.55274,3.20606,1.082-.99219a17.83182,17.83182,0,0,1,6.75-3.92383L28,14.38672l-.00391-6.38721c1.46094.0083,3.53223.00537,5.40528.00293L36,8v6.38672l1.40039.43994a17.82789,17.82789,0,0,1,6.749,3.92334l1.082.99219,5.55175-3.21045c.72364,1.27,1.76172,3.0625,2.70118,4.68408l1.2998,2.248-5.53906,3.19824.3164,1.43115a17.6167,17.6167,0,0,1,0,7.812l-.3164,1.43164,5.54,3.19825,1-1.73194Z"/></g><g id="White_space" data-name="White space"><rect class="cls-1" width="64" height="64"/></g></svg>