<svg xmlns="http://www.w3.org/2000/svg" viewBox="0 0 64 64"><defs><style>.cls-1{fill:none;}</style></defs><title>TC</title><g id="ARTWORK"><path d="M35.541,27.43164a2.00133,2.00133,0,0,1,.00488-2.8291L39.832,20.332A7.94909,7.94909,0,0,1,45.47852,18h7.69336l-2.58594-2.58594a1.99978,1.99978,0,0,1,2.82812-2.82812l6,6a1.99926,1.99926,0,0,1,0,2.82812l-6,6a1.99978,1.99978,0,0,1-2.82812-2.82812L53.17188,22H45.47852a4.0236,4.0236,0,0,0-2.82227,1.166l-4.28613,4.2705a2.00164,2.00164,0,0,1-2.8291-.00488Zm17.873,9.1543a1.99978,1.99978,0,0,0-2.82812,2.82812L53.17188,42H45.48047a3.97282,3.97282,0,0,1-2.82422-1.167L32.5517,30.75629a1.18313,1.18313,0,0,0-.33686-.33594L22.10059,20.334C20.502,18.74219,18.38965,18,15.45215,18H6a2,2,0,0,0,0,4h9.45215c2.33789,0,3.24512.58984,3.82422,1.167l8.86194,8.8371-8.861,8.82989A3.97931,3.97931,0,0,1,16.45312,42H6a2,2,0,0,0,0,4H16.45312a7.95473,7.95473,0,0,0,5.64747-2.332l8.87072-8.83881L39.832,43.665A7.9466,7.9466,0,0,0,45.48047,46h7.69141l-2.58594,2.58594a1.99978,1.99978,0,1,0,2.82812,2.82812l6-6a1.99926,1.99926,0,0,0,0-2.82812Z"/></g><g id="White_space" data-name="White space"><rect class="cls-1" width="64" height="64"/></g></svg>