<svg xmlns="http://www.w3.org/2000/svg" viewBox="0 0 64 64"><defs><style>.cls-1{fill:#fff;}.cls-2{fill:none;}</style></defs><title>TC</title><g id="ARTWORK"><path class="cls-1" d="M39.07129,35.92871a2.00013,2.00013,0,0,1-2.82813,2.8291,6.00017,6.00017,0,0,0-8.48632,0,2.00013,2.00013,0,0,1-2.82813-2.8291,10.00107,10.00107,0,0,1,14.14258,0ZM32,41a3,3,0,1,0,3,3A3,3,0,0,0,32,41Zm26.93262-7.46924A3.98728,3.98728,0,0,1,55.2373,36H54V54a4.00427,4.00427,0,0,1-4,4H14a4.00427,4.00427,0,0,1-4-4V36H8.7627a3.99976,3.99976,0,0,1-2.82813-6.82812L27.75781,7.34863a5.999,5.999,0,0,1,8.48438,0L58.06543,29.17188A3.9875,3.9875,0,0,1,58.93262,33.53076ZM55.2373,32,33.41406,10.17676a2.049,2.049,0,0,0-2.82812,0L8.7627,32H14V54H50V32ZM19.27246,30.27246a1.99979,1.99979,0,0,0,2.82813,2.82813,13.99959,13.99959,0,0,1,19.79882,0,1.99979,1.99979,0,0,0,2.82813-2.82813,17.99816,17.99816,0,0,0-25.45508,0Z"/></g><g id="White_space" data-name="White space"><rect class="cls-2" width="64" height="64"/></g></svg>