<svg xmlns="http://www.w3.org/2000/svg" viewBox="0 0 64 64"><defs><style>.cls-1{fill:#fff;}.cls-2{fill:none;}</style></defs><title>TC</title><g id="ARTWORK"><path class="cls-1" d="M52,34H46.82812L38,25.17188A3.97268,3.97268,0,0,0,35.17188,24H17.35449a3.98173,3.98173,0,0,0-3.71484,2.51465L10.64551,34H8a4.00427,4.00427,0,0,0-4,4v6a8.00647,8.00647,0,0,0,7.33765,7.96643A5.99069,5.99069,0,0,0,22.6499,52H42a1.99067,1.99067,0,0,0,.33752-.03406A5.99066,5.99066,0,0,0,53.6499,52H56a4.00427,4.00427,0,0,0,4-4V42A8.00917,8.00917,0,0,0,52,34ZM17,52a2,2,0,1,1,2-2A2.00229,2.00229,0,0,1,17,52Zm31,0a2,2,0,1,1,2-2A2.00229,2.00229,0,0,1,48,52Zm8-4H53.6499a5.99066,5.99066,0,0,0-11.31238.03406A1.99067,1.99067,0,0,0,42,48H22.6499a5.98983,5.98983,0,0,0-11.27661-.06335A3.99561,3.99561,0,0,1,8,44V38h3.9939l.00512.00049.00806-.00122a1.98087,1.98087,0,0,0,.51379-.07648c.04053-.011.07923-.02344.1189-.03693a1.98878,1.98878,0,0,0,.45142-.21283l.02063-.01116a2.00379,2.00379,0,0,0,.38488-.34772c.02845-.03235.0553-.06458.08167-.099a1.98141,1.98141,0,0,0,.27173-.46l.00732-.01245L17.35449,28H35.17188l9.41284,9.41278a2.00275,2.00275,0,0,0,.30664.25073c.04736.03174.09887.05335.14843.08057a1.95167,1.95167,0,0,0,.19568.10309,1.98151,1.98151,0,0,0,.19959.062c.05786.01715.1134.03949.17334.05139A2.00882,2.00882,0,0,0,46,38h6a4.00427,4.00427,0,0,1,4,4ZM32.66309,9.1499a1.99981,1.99981,0,0,1,1.34668-2.4873A16.01916,16.01916,0,0,1,53.917,17.42969a2,2,0,1,1-3.834,1.14062,12.0189,12.0189,0,0,0-14.93262-8.07373A2.00086,2.00086,0,0,1,32.66309,9.1499ZM45.88574,19.334a1.9999,1.9999,0,1,1-3.77148,1.332,4.0084,4.0084,0,0,0-5.10547-2.43946,1.99977,1.99977,0,1,1-1.334-3.77051A8.00655,8.00655,0,0,1,45.88574,19.334Z"/></g><g id="White_space" data-name="White space"><rect class="cls-2" width="64" height="64"/></g></svg>