<svg xmlns="http://www.w3.org/2000/svg" viewBox="0 0 64 64"><defs><style>.cls-1{fill:none;}</style></defs><title>TC</title><g id="ARTWORK"><path d="M40.92871,40.92871a9.99947,9.99947,0,0,0-.814.934L23.65723,34.54828a10.0627,10.0627,0,0,0-.001-5.10022L40.062,22.06549a10.01948,10.01948,0,1,0-1.74023-3.60364L21.88293,25.85931a10.07028,10.07028,0,1,0,.00245,12.278L38.3429,45.45178a9.98054,9.98054,0,1,0,2.58581-4.52307Zm2.82813-29.17187a6.00073,6.00073,0,1,1,0,8.48632A5.98428,5.98428,0,0,1,43.75684,11.75684ZM18.24316,36.24316a5.99707,5.99707,0,1,1,0-8.48632A6.0108,6.0108,0,0,1,18.24316,36.24316Zm34,16a5.99707,5.99707,0,1,1,0-8.48632A6.0108,6.0108,0,0,1,52.24316,52.24316Z"/></g><g id="White_space" data-name="White space"><rect class="cls-1" width="64" height="64"/></g></svg>