<svg xmlns="http://www.w3.org/2000/svg" viewBox="0 0 64 64"><defs><style>.cls-1{fill:#fff;}.cls-2{fill:none;}</style></defs><title>TC</title><g id="ARTWORK"><path class="cls-1" d="M54.41113,29.7666a1.99948,1.99948,0,1,0,1.57032-3.67773l-5.70264-2.436,4.729-2.75836a2,2,0,1,0-2.01562-3.45508l-4.50385,2.627.6933-5.75495a1.99971,1.99971,0,1,0-3.9707-.47851l-1.05591,8.761-4.71368,2.74945A9.99176,9.99176,0,0,0,34,22.2016V16.99994l7.2002-5.40033a1.99981,1.99981,0,1,0-2.4004-3.19922L34,12.00006V8a2,2,0,0,0-4,0v4.00006L25.2002,8.40039a1.99981,1.99981,0,1,0-2.4004,3.19922L30,16.99994V22.2016a9.99176,9.99176,0,0,0-5.44135,3.14191L19.845,22.59406l-1.05591-8.761a1.99971,1.99971,0,1,0-3.9707.47851l.6933,5.75495-4.50385-2.627a2,2,0,1,0-2.01562,3.45508l4.729,2.75836-5.70264,2.436A1.99948,1.99948,0,1,0,9.58887,29.7666l8.43676-3.603,4.51093,2.63116a9.84159,9.84159,0,0,0,0,6.4104l-4.51093,2.63116-8.43676-3.603a1.99948,1.99948,0,1,0-1.57032,3.67773l5.70264,2.436-4.729,2.75836a2,2,0,0,0,2.01562,3.45508l4.50385-2.627-.6933,5.755a1.99881,1.99881,0,0,0,1.74609,2.22461,2.02834,2.02834,0,0,0,.24219.01464A1.99954,1.99954,0,0,0,18.78906,50.167l1.05591-8.761,4.71368-2.74945A9.99176,9.99176,0,0,0,30,41.7984v5.20166l-7.2002,5.40033a1.99981,1.99981,0,0,0,2.4004,3.19922L30,51.99994V56a2,2,0,0,0,4,0V51.99994l4.7998,3.59967a1.99981,1.99981,0,1,0,2.4004-3.19922L34,47.00006V41.7984a9.99176,9.99176,0,0,0,5.44135-3.14191l4.71386,2.74958L45.21094,50.167a1.99954,1.99954,0,0,0,1.98242,1.76074,2.02834,2.02834,0,0,0,.24219-.01464,1.99881,1.99881,0,0,0,1.74609-2.22461l-.69348-5.75507,4.504,2.62714a2,2,0,1,0,2.01562-3.45508L50.22,40.31287l5.59247-2.48572a1.99966,1.99966,0,1,0-1.625-3.6543l-8.2262,3.65589L41.46344,35.2052a9.84177,9.84177,0,0,0,0-6.41046l4.51093-2.6311ZM32,38a6,6,0,1,1,6-6A6.00657,6.00657,0,0,1,32,38Z"/></g><g id="White_space" data-name="White space"><rect class="cls-2" width="64" height="64"/></g></svg>