<svg xmlns="http://www.w3.org/2000/svg" viewBox="0 0 64 64"><defs><style>.cls-1{fill:none;}</style></defs><title>TC</title><g id="ARTWORK"><path d="M32,6A26,26,0,1,0,58,32,26.02916,26.02916,0,0,0,32,6Zm0,48A22,22,0,1,1,54,32,22.02489,22.02489,0,0,1,32,54ZM21,26a3,3,0,1,1,3,3A3,3,0,0,1,21,26Zm16,0a3,3,0,1,1,3,3A3,3,0,0,1,37,26Zm6.66113,16.16016a2.00083,2.00083,0,0,1-2.77539.54687,15.93709,15.93709,0,0,0-17.77148,0,2.00023,2.00023,0,0,1-2.22852-3.32226,19.93983,19.93983,0,0,1,22.22852,0A2.00079,2.00079,0,0,1,43.66113,42.16016Z"/></g><g id="White_space" data-name="White space"><rect class="cls-1" width="64" height="64"/></g></svg>