<svg xmlns="http://www.w3.org/2000/svg" viewBox="0 0 64 64"><defs><style>.cls-1{fill:#fff;}.cls-2{fill:none;}</style></defs><title>TC</title><g id="ARTWORK"><path class="cls-1" d="M56,34A24,24,0,0,1,8,34C8,20.31738,19.17773,10,34,10H45.17188L42.58594,7.41406a1.99978,1.99978,0,0,1,2.82812-2.82812l6,6a1.9847,1.9847,0,0,1,.31616.4273c.021.03693.04.07343.0586.11145a1.98866,1.98866,0,0,1,.16907.47486l.00378.01282a1.99962,1.99962,0,0,1,.02612.51495c-.00268.04132-.00659.08136-.01172.12262a1.98826,1.98826,0,0,1-.12744.51178l-.001.0039L51.839,12.78a1.98933,1.98933,0,0,1-.25977.43188c-.02856.03717-.057.0727-.08789.10761-.02722.03076-.04785.06512-.07727.09454l-6,6a1.99978,1.99978,0,0,1-2.82812-2.82812L45.17188,14H34c-12.542,0-22,8.59766-22,20a20,20,0,0,0,40,0,2,2,0,0,1,4,0ZM24.72461,41.75409q.66027.954,1.272.95392a1.476,1.476,0,0,0,1.17407-.83161,3.30872,3.30872,0,0,0,.53809-1.83465V26.17242q0-.88045-.954-.88055a2.70441,2.70441,0,0,0-1.07629.22015l-5.03882,2.27485Q19.48956,28.32519,19.49,29.01a1.94994,1.94994,0,0,0,.36682.90509q.5625.88045,1.1742.88055a.981.981,0,0,0,.39135-.09784l2.88648-1.32086V40.75116A2.05751,2.05751,0,0,0,24.72461,41.75409ZM42.78735,29.05145a11.66479,11.66479,0,0,1,.72193,4.3v1.297c0,3.38836-1.05835,5.91-2.93262,7.16015a5.97007,5.97007,0,0,1-8.81714-2.85821,11.197,11.197,0,0,1-.74536-4.30194v-1.297c0-3.38837,1.08191-5.91,2.95605-7.18365a5.766,5.766,0,0,1,3.29249-.93708A5.68883,5.68883,0,0,1,42.78735,29.05145Zm-2.54712,4.4917c0-3.48425-.98413-5.21362-2.97753-5.21362-1.99537,0-2.9795,1.72937-2.9795,5.21362v.91358c0,3.48419.98413,5.21356,2.9795,5.21356,1.9934,0,2.97753-1.72937,2.97753-5.21356Z"/></g><g id="White_space" data-name="White space"><rect class="cls-2" width="64" height="64"/></g></svg>