<svg xmlns="http://www.w3.org/2000/svg" viewBox="0 0 64 64"><defs><style>.cls-1{fill:#fff;}.cls-2{fill:none;}</style></defs><title>TC</title><g id="ARTWORK"><path class="cls-1" d="M56,28H54.89648a18.54611,18.54611,0,0,0-2.74511-4.8457l1.80761-8.75a2.0003,2.0003,0,0,0-3.0371-2.08887L43.6048,16.99866a11.99138,11.99138,0,0,0-23.067-.55347c-.5003.22693-1.00635.44885-1.47925.70129C12.81366,20.47815,8.85,25.93091,8.12976,32H6a2,2,0,0,0,0,4H8.12787C8.807,41.71436,12.36615,46.88428,18,50.25V54a4.004,4.004,0,0,0,4,4h4a4.004,4.004,0,0,0,4-4V52h4v2a4.004,4.004,0,0,0,4,4h4a4.004,4.004,0,0,0,4-4V50.249A21.34283,21.34283,0,0,0,54.00293,42H56a4.004,4.004,0,0,0,4-4V32A4.004,4.004,0,0,0,56,28ZM32,12a8.00917,8.00917,0,0,1,8,8,7.917,7.917,0,0,1-2.72461,6H26.72461A7.917,7.917,0,0,1,24,20,8.00917,8.00917,0,0,1,32,12ZM56,38H52.74316a2.00029,2.00029,0,0,0-1.83593,1.207,17.24018,17.24018,0,0,1-7.84864,8.11231A2.00086,2.00086,0,0,0,42,49.084V54H38V52a4.004,4.004,0,0,0-4-4H30a4.004,4.004,0,0,0-4,4v2H22V49.084a2.00086,2.00086,0,0,0-1.05859-1.76464C15.34277,44.33105,12,39.35156,12,34c0-5.07031,2.99854-9.80078,8.06775-12.82666a11.8265,11.8265,0,0,0,1.57892,4.8623A1.99772,1.99772,0,0,0,22,30H41a1.99668,1.99668,0,0,0,1.15784-3.62573,11.81928,11.81928,0,0,0,1.73388-4.81006l5.18933-3.322-1.04,5.03515a2.00175,2.00175,0,0,0,.44043,1.70606,14.48773,14.48773,0,0,1,3.04,5.55078A1.99892,1.99892,0,0,0,53.44824,32H56Z"/></g><g id="White_space" data-name="White space"><rect class="cls-2" width="64" height="64"/></g></svg>