<svg xmlns="http://www.w3.org/2000/svg" viewBox="0 0 64 64"><defs><style>.cls-1{fill:none;}</style></defs><title>TC</title><g id="ARTWORK"><path d="M48,4H20a8.00917,8.00917,0,0,0-8,8V56a4.004,4.004,0,0,0,4,4H44a8.00917,8.00917,0,0,0,8-8V8A4.004,4.004,0,0,0,48,4Zm0,48a4.004,4.004,0,0,1-4,4l-28,.00293V12a4.004,4.004,0,0,1,4-4H48ZM30,44a2.0001,2.0001,0,0,1,2-2h8a2,2,0,0,1,0,4H32A2.0001,2.0001,0,0,1,30,44Zm0-12a2.0001,2.0001,0,0,1,2-2h8a2,2,0,0,1,0,4H32A2.0001,2.0001,0,0,1,30,32Zm0-12a2.0001,2.0001,0,0,1,2-2h8a2,2,0,0,1,0,4H32A2.0001,2.0001,0,0,1,30,20ZM22,32a2,2,0,1,1,2,2A2,2,0,0,1,22,32Zm0-12a2,2,0,1,1,2,2A2,2,0,0,1,22,20Zm0,24a2,2,0,1,1,2,2A2,2,0,0,1,22,44Z"/></g><g id="White_space" data-name="White space"><rect class="cls-1" width="64" height="64"/></g></svg>