<svg xmlns="http://www.w3.org/2000/svg" viewBox="0 0 64 64"><defs><style>.cls-1{fill:#fff;fill-rule:evenodd;}.cls-2{fill:none;}</style></defs><title>TC</title><g id="ARTWORK"><path class="cls-1" d="M58,7.37573v49.4068a3.2166,3.2166,0,0,1-.48889,1.70465l-.17676.255a3.219,3.219,0,0,1-4.25745.76867L16,36.35V58a2.00006,2.00006,0,0,1-2,2H8a2.00006,2.00006,0,0,1-2-2V6A2,2,0,0,1,8,4h6a2,2,0,0,1,2,2V27.648L53.0769,4.48877a3.2265,3.2265,0,0,1,3.01246-.21332A3.351,3.351,0,0,1,58,7.37573Z"/></g><g id="White_space" data-name="White space"><rect class="cls-2" width="64" height="64"/></g></svg>