<svg xmlns="http://www.w3.org/2000/svg" viewBox="0 0 64 64"><defs><style>.cls-1{fill:#fff;}.cls-2{fill:none;}</style></defs><title>TC</title><g id="ARTWORK"><path class="cls-1" d="M52,16H42V10a4.004,4.004,0,0,0-4-4H26a4.004,4.004,0,0,0-4,4v6H12a8.00917,8.00917,0,0,0-8,8V46a8.00917,8.00917,0,0,0,8,8H52a8.00917,8.00917,0,0,0,8-8V24A8.00917,8.00917,0,0,0,52,16Zm-6,4V50H18V20ZM26,10H38v6H26ZM8,46V24a4.004,4.004,0,0,1,4-4h2V50H12A4.004,4.004,0,0,1,8,46Zm48,0a4.004,4.004,0,0,1-4,4H50V20h2a4.004,4.004,0,0,1,4,4Z"/></g><g id="White_space" data-name="White space"><rect class="cls-2" width="64" height="64"/></g></svg>