<svg xmlns="http://www.w3.org/2000/svg" viewBox="0 0 64 64"><defs><style>.cls-1{fill:none;}</style></defs><title>TC</title><g id="ARTWORK"><path d="M58.10254,23.833a3.975,3.975,0,0,0-3.8916-.17481L47.429,27.04913a8.03489,8.03489,0,0,0-4.47162-4.47577A10.99381,10.99381,0,1,0,26.52142,22H21.91754a8.00061,8.00061,0,1,0-13.3233.77191A8.00282,8.00282,0,0,0,4,30V40a8.00917,8.00917,0,0,0,8,8H27.17188l-8.58594,8.58594a1.99978,1.99978,0,1,0,2.82812,2.82812L30,50.82812l8.58594,8.58594a1.99978,1.99978,0,0,0,2.82812-2.82812L32.82812,48H40a8.00775,8.00775,0,0,0,7.429-5.04913l6.78192,3.39093A4,4,0,0,0,60,42.76367V27.23633A3.9751,3.9751,0,0,0,58.10254,23.833ZM28,15a7,7,0,1,1,7,7A7.00848,7.00848,0,0,1,28,15ZM15,14a4,4,0,1,1-4,4A4.004,4.004,0,0,1,15,14ZM44,40a4.004,4.004,0,0,1-4,4H12a4.004,4.004,0,0,1-4-4V30a4.004,4.004,0,0,1,4-4H40a4.004,4.004,0,0,1,4,4Zm12,2.76367-8-4V31.23633l8-4Z"/></g><g id="White_space" data-name="White space"><rect class="cls-1" width="64" height="64"/></g></svg>