<svg xmlns="http://www.w3.org/2000/svg" viewBox="0 0 64 64"><defs><style>.cls-1{fill:#fff;}.cls-2{fill:none;}</style></defs><title>TC</title><g id="ARTWORK"><path class="cls-1" d="M52,22V50a8.00917,8.00917,0,0,1-8,8H20a8.00917,8.00917,0,0,1-8-8V22a2,2,0,0,1,4,0V50a4.00427,4.00427,0,0,0,4,4H44a4.00427,4.00427,0,0,0,4-4V22a2,2,0,0,1,4,0Zm4-8a2.0001,2.0001,0,0,1-2,2H10a2,2,0,0,1,0-4H20V8a4.00427,4.00427,0,0,1,4-4H40a4.00427,4.00427,0,0,1,4,4v4H54A2.0001,2.0001,0,0,1,56,14ZM24,12H40V8H24Zm4,34V26a2,2,0,0,0-4,0V46a2,2,0,0,0,4,0Zm12,0V26a2,2,0,0,0-4,0V46a2,2,0,0,0,4,0Z"/></g><g id="White_space" data-name="White space"><rect class="cls-2" width="64" height="64"/></g></svg>