<svg xmlns="http://www.w3.org/2000/svg" viewBox="0 0 64 64"><defs><style>.cls-1{fill:#fff;}.cls-2{fill:none;}</style></defs><title>TC</title><g id="ARTWORK"><path class="cls-1" d="M54,6V58a2.00006,2.00006,0,0,1-2,2H42a2,2,0,0,1-2-2V6a2,2,0,0,1,2-2H52A2.00006,2.00006,0,0,1,54,6ZM22,4H12a2.00006,2.00006,0,0,0-2,2V58a2.00006,2.00006,0,0,0,2,2H22a2.00006,2.00006,0,0,0,2-2V6A2.00006,2.00006,0,0,0,22,4Z"/></g><g id="White_space" data-name="White space"><rect class="cls-2" width="64" height="64"/></g></svg>