<svg xmlns="http://www.w3.org/2000/svg" viewBox="0 0 64 64"><defs><style>.cls-1{fill-rule:evenodd;}.cls-2{fill:none;}</style></defs><title>TC</title><g id="ARTWORK"><path class="cls-1" d="M58,6V58a2.00006,2.00006,0,0,1-2,2H50a2.00006,2.00006,0,0,1-2-2V36.35L10.9231,59.5108a3.219,3.219,0,0,1-4.25745-.76867l-.17676-.255A3.2166,3.2166,0,0,1,6,56.78253V7.37573A3.351,3.351,0,0,1,7.91064,4.27545a3.2265,3.2265,0,0,1,3.01246.21332L48,27.648V6a2,2,0,0,1,2-2h6A2,2,0,0,1,58,6Z"/></g><g id="White_space" data-name="White space"><rect class="cls-2" width="64" height="64"/></g></svg>