<svg xmlns="http://www.w3.org/2000/svg" viewBox="0 0 64 64"><defs><style>.cls-1{fill:none;}</style></defs><title>TC</title><g id="ARTWORK"><path d="M52,12H12a8.00917,8.00917,0,0,0-8,8V42a8.00917,8.00917,0,0,0,8,8H52a8.00917,8.00917,0,0,0,8-8V20A8.00917,8.00917,0,0,0,52,12Zm4,30a4.00458,4.00458,0,0,1-4,4H12a4.00458,4.00458,0,0,1-4-4V20a4.00458,4.00458,0,0,1,4-4H52a4.00458,4.00458,0,0,1,4,4ZM44,54a2.0001,2.0001,0,0,1-2,2H22a2,2,0,0,1,0-4H42A2.0001,2.0001,0,0,1,44,54ZM31,21.99316a3.61983,3.61983,0,0,1-.63306,2.06891A1.739,1.739,0,0,1,28.9856,25H25V37.993a3.61962,3.61962,0,0,1-.63312,2.069A1.73887,1.73887,0,0,1,22.9856,41q-.74864,0-1.4964-1.07593A2.40222,2.40222,0,0,1,21,38.79309V25H16.9856q-.74864,0-1.4964-1.07587A2.40214,2.40214,0,0,1,15,22.79309q0-.662.90643-1.22748A3.65561,3.65561,0,0,1,17.87769,21H29.87762Q31.00007,21,31,21.99316Zm18-.03137a3.69833,3.69833,0,0,1-.24042,1.309L43.22961,39.21a3.84944,3.84944,0,0,1-.788,1.30908A1.38828,1.38828,0,0,1,41.43976,41H40.665q-.74817,0-1.46936-1.042a3.43053,3.43053,0,0,1-.4007-.77466L33.13141,23.351a1.82462,1.82462,0,0,1-.16034-.6145,1.49966,1.49966,0,0,1,.84161-1.18878A3.29124,3.29124,0,0,1,35.64258,21a.92238.92238,0,0,1,1.01513.66791L41.01123,36l4.30212-13.50391a1.9654,1.9654,0,0,1,.9751-1.04187A3.29362,3.29362,0,0,1,47.95813,21Q49,21,49,21.96179Z"/></g><g id="White_space" data-name="White space"><rect class="cls-1" width="64" height="64"/></g></svg>