<svg xmlns="http://www.w3.org/2000/svg" viewBox="0 0 64 64"><defs><style>.cls-1{fill:none;}</style></defs><title>TC</title><g id="ARTWORK"><path d="M57.48486,30.9375l-7.46289-4.749A13.97907,13.97907,0,0,0,42.50537,24H40.83221L29.98047,13.07227c-.0376-.03809-.07666-.07422-.11719-.10938A4.002,4.002,0,0,0,27.26025,12H24.36084a3.9997,3.9997,0,0,0-3.94531,4.6582L21.63916,24H17l-4.80078-6.40137A4.02237,4.02237,0,0,0,9,16H8a4.00427,4.00427,0,0,0-4,4V31.52832a5.96714,5.96714,0,0,0,3.31641,5.36621l4.72168,2.36133a25.90112,25.90112,0,0,0,5.70886,2.05823l-3.1156,4.36169A3.99968,3.99968,0,0,0,17.88623,52H23.314a4.02737,4.02737,0,0,0,2.45557-.8418L37.54462,42h16.719a6.00026,6.00026,0,0,0,3.22119-11.0625ZM24.36084,16H27.251l7.94452,8H25.69415ZM23.314,48H17.88623L25.0293,38,36.189,37.98438,36.17151,38H36v.13354ZM56.18408,36.55859A1.93232,1.93232,0,0,1,54.26367,38h-14.09a4.06768,4.06768,0,0,0-.21961-1.29883A3.9511,3.9511,0,0,0,36.1709,34H25.0293a4.00617,4.00617,0,0,0-3.25489,1.67578l-1.46673,2.05347a21.88156,21.88156,0,0,1-6.48053-2.05152L9.10547,33.31641A1.989,1.989,0,0,1,8,31.52832V20H9l4.80078,6.40137A4.02237,4.02237,0,0,0,17,28H42.50537a9.98665,9.98665,0,0,1,5.36914,1.56348l7.46289,4.749A1.9317,1.9317,0,0,1,56.18408,36.55859Z"/></g><g id="White_space" data-name="White space"><rect class="cls-1" width="64" height="64"/></g></svg>