<svg xmlns="http://www.w3.org/2000/svg" viewBox="0 0 64 64"><defs><style>.cls-1{fill:none;}</style></defs><title>TC</title><g id="ARTWORK"><path d="M59.41406,30.58594l-6-6a1.99978,1.99978,0,0,0-2.82812,2.82812L53.17188,30H24.82812l6.84357-6.84357a7.00417,7.00417,0,1,0-2.82812-2.82812L19.17188,30H17.70514a7,7,0,1,0,0,4h7.46674l8.97717,8.97717A3.95254,3.95254,0,0,0,34,44v6a4.004,4.004,0,0,0,4,4h6a4.004,4.004,0,0,0,4-4V44a4.004,4.004,0,0,0-4-4H38a3.95254,3.95254,0,0,0-1.02283.14905L30.82812,34H53.17188l-2.58594,2.58594a1.99978,1.99978,0,1,0,2.82812,2.82812l6-6A1.99926,1.99926,0,0,0,59.41406,30.58594ZM35,14a3,3,0,1,1-3,3A3.00328,3.00328,0,0,1,35,14Zm9,30v6H38V44ZM11,35a3,3,0,1,1,3-3A3.00328,3.00328,0,0,1,11,35Z"/></g><g id="White_space" data-name="White space"><rect class="cls-1" width="64" height="64"/></g></svg>