<svg xmlns="http://www.w3.org/2000/svg" viewBox="0 0 64 64"><defs><style>.cls-1{fill:#fff;}.cls-2{fill:none;}</style></defs><title>TC</title><g id="ARTWORK"><path class="cls-1" d="M33.53027,11.13281A3.98724,3.98724,0,0,0,29.17188,12l-10,10H16a8.00917,8.00917,0,0,0-8,8v4a8.00917,8.00917,0,0,0,8,8h3.17188l10,10A3.99988,3.99988,0,0,0,36,49.17188V14.82812A3.98872,3.98872,0,0,0,33.53027,11.13281ZM32,49.17188,20.82812,38H16a4.004,4.004,0,0,1-4-4V30a4.004,4.004,0,0,1,4-4h4.82812L32,14.82812ZM48,32a20.636,20.636,0,0,1-4.48047,13.30078,2.00025,2.00025,0,0,1-3.03906-2.60156A16.60348,16.60348,0,0,0,44,32a16.60348,16.60348,0,0,0-3.51953-10.69922,2.00025,2.00025,0,0,1,3.03906-2.60156A20.636,20.636,0,0,1,48,32Zm8,0c0,7.45508-2.3623,14.48926-6.48047,19.30078a2.00025,2.00025,0,0,1-3.03906-2.60156C49.98828,44.60156,52,38.51562,52,32s-2.01172-12.60156-5.51953-16.69922a2.00025,2.00025,0,0,1,3.03906-2.60156C53.6377,17.51074,56,24.54492,56,32Z"/></g><g id="White_space" data-name="White space"><rect class="cls-2" width="64" height="64"/></g></svg>