<svg xmlns="http://www.w3.org/2000/svg" viewBox="0 0 64 64"><defs><style>.cls-1{fill:#fff;}.cls-2{fill:none;}</style></defs><title>TC</title><g id="ARTWORK"><path class="cls-1" d="M52,12H12a8.00917,8.00917,0,0,0-8,8V40a8.00917,8.00917,0,0,0,8,8H30v4H22a2,2,0,0,0,0,4H42a2,2,0,0,0,0-4H34V48H52a8.00917,8.00917,0,0,0,8-8V20A8.00917,8.00917,0,0,0,52,12ZM20,44a8.01815,8.01815,0,0,1,6.27948-7.81012,9.94434,9.94434,0,0,0,11.441,0A8.01815,8.01815,0,0,1,44,44Zm6-16a6,6,0,1,1,6,6A6.00657,6.00657,0,0,1,26,28ZM56,40a4.004,4.004,0,0,1-4,4H48a12.04032,12.04032,0,0,0-7.32617-11.04449,10,10,0,1,0-17.34766,0A12.04032,12.04032,0,0,0,16,44H12a4.004,4.004,0,0,1-4-4V20a4.004,4.004,0,0,1,4-4H52a4.004,4.004,0,0,1,4,4Z"/></g><g id="White_space" data-name="White space"><rect class="cls-2" width="64" height="64"/></g></svg>