<svg xmlns="http://www.w3.org/2000/svg" viewBox="0 0 64 64"><defs><style>.cls-1{fill:none;}</style></defs><title>TC</title><g id="ARTWORK"><path d="M52,12H12a8.00917,8.00917,0,0,0-8,8V44a8.00917,8.00917,0,0,0,8,8H52a8.00917,8.00917,0,0,0,8-8V20A8.00917,8.00917,0,0,0,52,12Zm4,32a4.004,4.004,0,0,1-4,4H12a4.004,4.004,0,0,1-4-4V20a4.004,4.004,0,0,1,4-4H52a4.004,4.004,0,0,1,4,4ZM40.3457,28.60742l-10.22656-6.3916A4.0003,4.0003,0,0,0,24,25.6084V38.3916a4.00006,4.00006,0,0,0,6.11914,3.39258l10.22656-6.3916a4.00009,4.00009,0,0,0,0-6.78516ZM28,38.3916V25.6084L38.22656,32Z"/></g><g id="White_space" data-name="White space"><rect class="cls-1" width="64" height="64"/></g></svg>