<svg xmlns="http://www.w3.org/2000/svg" viewBox="0 0 64 64"><defs><style>.cls-1{fill:none;}</style></defs><title>TC</title><g id="ARTWORK"><path d="M36,50a4,4,0,1,1-4-4A4,4,0,0,1,36,50ZM56.667,18.81055a38.93549,38.93549,0,0,0-49.334,0,2,2,0,0,0,2.5332,3.0957,34.93524,34.93524,0,0,1,44.26758,0,2,2,0,1,0,2.5332-3.0957ZM32,34a14.97886,14.97886,0,0,0-9.83789,3.69531A2.00032,2.00032,0,0,0,24.791,40.71094a10.94059,10.94059,0,0,1,14.418,0,2.00032,2.00032,0,1,0,2.62891-3.01563A14.97886,14.97886,0,0,0,32,34Zm0-12a27.028,27.028,0,0,0-17.24609,6.23535,2,2,0,1,0,2.55664,3.07617,22.96821,22.96821,0,0,1,29.3789,0,2,2,0,1,0,2.55664-3.07617A27.028,27.028,0,0,0,32,22Z"/></g><g id="White_space" data-name="White space"><rect class="cls-1" width="64" height="64"/></g></svg>