<svg xmlns="http://www.w3.org/2000/svg" viewBox="0 0 64 64"><defs><style>.cls-1{fill:none;}</style></defs><title>TC</title><g id="ARTWORK"><path d="M59.41406,14.58594a1.99926,1.99926,0,0,0-2.82812,0L48,23.17188,40.82812,16l8.58594-8.58594a1.99978,1.99978,0,1,0-2.82812-2.82812L38,13.17188,34.82812,10a4.00206,4.00206,0,0,0-5.65624,0l-9.58594,9.58594A17.5687,17.5687,0,0,0,15.99713,39.1748L5.584,49.58789A6.24243,6.24243,0,0,0,14.41211,58.416L24.82544,48.00269a17.52585,17.52585,0,0,0,19.58862-3.58863L54,34.82812a4.00384,4.00384,0,0,0,0-5.65624L50.82812,26l8.58594-8.58594A1.99926,1.99926,0,0,0,59.41406,14.58594ZM11.584,55.58789A2.24285,2.24285,0,0,1,8.41211,52.416l9.70074-9.70069a15.837,15.837,0,0,0,3.17194,3.17175Zm30.002-14.00195A13.55657,13.55657,0,0,1,22.41406,22.41406L32,12.82812,51.17188,32Z"/></g><g id="White_space" data-name="White space"><rect class="cls-1" width="64" height="64"/></g></svg>