<svg xmlns="http://www.w3.org/2000/svg" viewBox="0 0 64 64"><defs><style>.cls-1{fill:none;}</style></defs><title>TC</title><g id="ARTWORK"><path d="M32,6A26,26,0,1,0,58,32,26.02916,26.02916,0,0,0,32,6Zm6,10V10.8385A22.06924,22.06924,0,0,1,49.91589,19.256l-3.32995,3.33A2.00025,2.00025,0,0,0,46,24v4H43.44141l-1.08789-3.26514A3.99558,3.99558,0,0,0,38.55859,22H34V20.82812l3.41406-3.41406A2.00025,2.00025,0,0,0,38,16Zm-20-.95789v7.31873l-6.34106,1.268A22.10792,22.10792,0,0,1,18,15.04211ZM32,54A21.97977,21.97977,0,0,1,10.37781,27.9624l.01477-.00146,8.39258-1.67823A4.0112,4.0112,0,0,0,22,22.36035V12.41406A21.85639,21.85639,0,0,1,32,10c.67456,0,1.34076.03528,2,.095v5.07642L31.17188,18A3.973,3.973,0,0,0,30,20.82861V22a4.00427,4.00427,0,0,0,4,4h4.55859l1.54395,4.63232A1.99973,1.99973,0,0,0,42,32h6a2.0001,2.0001,0,0,0,2-2V24.82861l1.99261-1.99292A21.98609,21.98609,0,0,1,32,54Zm2-18H22a4.00427,4.00427,0,0,0-4,4v2a4.00427,4.00427,0,0,0,4,4h3.17188L28,48.82812A3.97268,3.97268,0,0,0,30.82812,50H34a4.00427,4.00427,0,0,0,4-4V40A4.00427,4.00427,0,0,0,34,36Zm0,10H30.82812L28,43.17188A3.97268,3.97268,0,0,0,25.17188,42H22V40H34Z"/></g><g id="White_space" data-name="White space"><rect class="cls-1" width="64" height="64"/></g></svg>