<svg xmlns="http://www.w3.org/2000/svg" viewBox="0 0 64 64"><defs><style>.cls-1{fill:none;}</style></defs><title>TC</title><g id="ARTWORK"><path d="M52,16a8.00917,8.00917,0,0,0-8-8H10a6.00657,6.00657,0,0,0-6,6V48a8.00917,8.00917,0,0,0,8,8H52a8.00917,8.00917,0,0,0,8-8V24A8.00917,8.00917,0,0,0,52,16Zm4,24H46a4,4,0,0,1,0-8H56ZM10,12H44a4.00427,4.00427,0,0,1,4,4H10a2,2,0,0,1,0-4ZM52,52H12a4.00427,4.00427,0,0,1-4-4V19.65A5.96023,5.96023,0,0,0,10,20H52a4.00427,4.00427,0,0,1,4,4v4H46a8,8,0,0,0,0,16H56v4A4.00427,4.00427,0,0,1,52,52ZM46,34a2,2,0,1,1-2,2A2,2,0,0,1,46,34Z"/></g><g id="White_space" data-name="White space"><rect class="cls-1" width="64" height="64"/></g></svg>