<svg xmlns="http://www.w3.org/2000/svg" viewBox="0 0 64 64"><defs><style>.cls-1{fill:#fff;}.cls-2{fill:none;}</style></defs><title>TC</title><g id="ARTWORK"><path class="cls-1" d="M40,4H24a8.00917,8.00917,0,0,0-8,8V52a8.00917,8.00917,0,0,0,8,8H40a8.00917,8.00917,0,0,0,8-8V12A8.00917,8.00917,0,0,0,40,4Zm4,48a4.00427,4.00427,0,0,1-4,4H24a4.00427,4.00427,0,0,1-4-4V48H44Zm0-8H20V12a4.00427,4.00427,0,0,1,4-4H40a4.00427,4.00427,0,0,1,4,4ZM30,52a2,2,0,1,1,2,2A2,2,0,0,1,30,52Zm5-17a3,3,0,1,1-3-3A3,3,0,0,1,35,35Zm2.95215-8.33594a2.00029,2.00029,0,0,1-2.97754,2.67188,3.97961,3.97961,0,0,0-5.94922,0,2.00029,2.00029,0,0,1-2.97754-2.67188,7.9813,7.9813,0,0,1,11.9043,0Zm3.6875-5a2.0011,2.0011,0,0,1-2.78467.49414,11.95889,11.95889,0,0,0-13.7085.002,1.99992,1.99992,0,1,1-2.293-3.27735,15.95775,15.95775,0,0,1,18.2915-.0039A2.00028,2.00028,0,0,1,41.63965,21.66406Z"/></g><g id="White_space" data-name="White space"><rect class="cls-2" width="64" height="64"/></g></svg>